<?xml version="1.0" standalone="no"?>
<!DOCTYPE svg PUBLIC "-//W3C//DTD SVG 1.1//EN" "http://www.w3.org/Graphics/SVG/1.1/DTD/svg11.dtd" >
<svg xmlns="http://www.w3.org/2000/svg" xmlns:xlink="http://www.w3.org/1999/xlink" version="1.1">
<metadata>
Created by FontForge 20170924 at Thu Jun 29 22:56:22 2017
 By www-data
Copyright \(c\) 2017 by Alexander Slobzheninov. All rights reserved.
</metadata>
<defs>
<font id="FivoSans-Oblique" horiz-adv-x="565" >
  <font-face 
    font-family="Fivo Sans"
    font-weight="400"
    font-style="oblique"
    font-stretch="normal"
    units-per-em="1000"
    panose-1="0 0 0 0 0 0 0 0 0 0"
    ascent="800"
    descent="-200"
    x-height="500"
    cap-height="700"
    bbox="-75.2998 -251 1232.38 960"
    underline-thickness="50"
    underline-position="975"
    stemh="54"
    stemv="80"
    unicode-range="U+000D-E133"
  />
<missing-glyph horiz-adv-x="200" 
 />
    <glyph glyph-name=".notdef" horiz-adv-x="200" 
 />
    <glyph glyph-name="NULL" horiz-adv-x="795" 
d="M198.38 700h595l-98.3799 -700h-595zM264.7 624l-77.0195 -548h441l77.0195 548h-441z" />
    <glyph glyph-name="NULL" horiz-adv-x="795" 
d="M198.38 700h595l-98.3799 -700h-595zM264.7 624l-77.0195 -548h441l77.0195 548h-441z" />
    <glyph glyph-name="CR" unicode="&#xd;" horiz-adv-x="250" 
 />
    <glyph glyph-name="space" unicode=" " horiz-adv-x="300" 
 />
    <glyph glyph-name="exclam" unicode="!" horiz-adv-x="273" 
d="M150.89 106c40 0 54.4697 -18 48.8496 -58s-26.1504 -58 -65.1504 -58s-53.4697 18 -47.8496 58s25.1504 58 64.1504 58zM192.37 700h84l-26.7002 -190l-51.6797 -261h-54l21.6797 261z" />
    <glyph glyph-name="quotedbl" unicode="&#x22;" horiz-adv-x="318" 
d="M221.38 700l-19.6797 -140l-31.0303 -171h-58l16.0303 171l19.6797 140h73zM366.38 700l-19.6797 -140l-31.0303 -171h-58l17.0303 171l19.6797 140h72z" />
    <glyph glyph-name="numbersign" unicode="#" horiz-adv-x="770" 
d="M411 0l57.6699 204h-152l-57.6699 -204h-62l57.6699 204h-166l8.84961 63h175l41.6602 147h-166l8.84961 63h175l63.3398 223h62l-63.3398 -223h152l63.3398 223h62l-63.3398 -223h169l-8.84961 -63h-178l-41.6602 -147h169l-8.84961 -63h-178l-57.6699 -204h-62z
M528.18 414h-152l-41.6602 -147h152z" />
    <glyph glyph-name="dollar" unicode="$" horiz-adv-x="645" 
d="M275.95 -100h-0.0107422l11.3799 81c-158.88 8 -219.46 75 -199.22 219h81c-15.3203 -109 30.5 -153 160.5 -153c128 0 183.48 39 196.69 133c27.6904 197 -420.17 77 -385.03 327c19.54 139 95.6797 204 249.8 212l11.3799 81h65l-11.3799 -81
c152.88 -8 209.46 -75 189.22 -219h-80c15.1797 108 -28.5 153 -150.5 153c-121 0 -174.34 -38 -187.689 -133c-25.1602 -179 422.14 -63 385.04 -327c-19.6797 -140 -97.8193 -205 -259.8 -212l-11.3799 -81h-65z" />
    <glyph glyph-name="percent" unicode="%" horiz-adv-x="861" 
d="M310.79 710c113 0 153.85 -58 134.739 -194s-76.4004 -195 -189.4 -195c-112 0 -152.71 59 -133.6 195s76.2607 194 188.261 194zM263.85 376c72 0 105.62 40 119.67 140c13.9102 99 -9.33008 140 -79.3301 140c-72 0 -105.76 -41 -119.67 -140
c-14.0498 -100 8.33008 -140 79.3301 -140zM242.79 -30h-74l546.81 760h74zM703.82 390c113 0 153.85 -58 134.739 -194s-76.4004 -195 -189.4 -195s-152.71 59 -133.6 195s75.2607 194 188.261 194zM656.88 56c71 0 105.62 40 119.67 140
c13.9102 99 -9.33008 140 -80.3301 140s-105.76 -41 -119.67 -140c-14.0498 -100 9.33008 -140 80.3301 -140z" />
    <glyph glyph-name="ampersand" unicode="&#x26;" horiz-adv-x="780" 
d="M750 0h-101.979l-85.9297 93c-69.2803 -66 -160.891 -113 -271.891 -113c-153 0 -221.76 80 -205.319 197c14.9004 106 108.61 168 207.641 218c-35.6797 45 -72.6699 102 -63.1104 170c15.5996 111 99.7793 155 213.779 155c126 0 175.55 -53 162.34 -147
c-12.0898 -86 -103.26 -137 -199.01 -185l165.44 -189c33.6104 47 57.0605 100 69.3701 152h66c-15.9805 -71 -46.9609 -142 -92.3906 -202zM309.631 47l-0.00976562 0.0107422h-0.490234c75.8301 0.160156 151.68 36.1201 210.42 91.9902l-186.63 209
c-81.04 -43 -150.79 -91 -161.19 -165c-12.3398 -87.8301 54.6299 -135.811 137.41 -136.001h0.490234zM367.451 430.011c86.9004 42 161.11 79 169.261 137c9.55957 68 -35.79 94 -99.79 94c-63 0 -123.94 -28 -134.061 -100c-6.45996 -46 31.79 -94 64.5898 -131z" />
    <glyph glyph-name="quotesingle" unicode="'" horiz-adv-x="173" 
d="M221.38 700l-19.6797 -140l-31.0303 -171h-58l16.0303 171l19.6797 140h73z" />
    <glyph glyph-name="parenleft" unicode="(" horiz-adv-x="285" 
d="M160.9 -200c-12.9697 50 -99.4795 210 -64.3398 460s163.819 390 190.85 440h66c-27.0303 -50 -152.71 -190 -187.85 -440s48.3701 -410 61.3398 -460h-66z" />
    <glyph glyph-name="parenright" unicode=")" horiz-adv-x="285" 
d="M68.8896 -200h-67c27.0303 50 155.521 210 190.66 460s-51.1807 390 -64.1504 440h67c12.9697 -50 101.29 -190 66.1504 -440s-165.63 -410 -192.66 -460z" />
    <glyph glyph-name="asterisk" unicode="*" horiz-adv-x="381" 
d="M225.22 400l8.42871 60l9.62012 40l2.66992 19l-18.4102 -10l-35.3701 -24l-57.2197 -30l-15.5195 39l56.3604 31l39.25 16l15.1201 8l-13.7402 9l-33.6104 17l-47.7803 30l26.4805 39l47.7803 -30l29.7695 -23l15.5898 -10l2.66992 19l1.62012 40l8.42969 60h43
l-8.42969 -60l-9.62012 -40l-2.66992 -19l18.4102 10l36.3701 24l56.0801 29l15.5195 -39l-56.2197 -30l-38.25 -16l-17.2598 -9l14.7402 -9l33.6104 -17l47.7803 -30l-26.4805 -39l-47.7803 30l-29.7695 23l-15.5898 10l-2.53027 -18l-1.62012 -40l-8.42969 -60h-43z" />
    <glyph glyph-name="plus" unicode="+" horiz-adv-x="620" 
d="M610.9 291l-9.41992 -67h-228l-31.4805 -224h-65l31.4805 224h-227l9.41992 67h227l29.3701 209h65l-29.3701 -209h228z" />
    <glyph glyph-name="comma" unicode="," horiz-adv-x="212" 
d="M116.89 106h0.00976562c42 0 55.7803 -30 45.9404 -100c-14.0498 -100 -51.3701 -145 -122.37 -145l6.32031 45c33 0 50.5098 25 58.7998 84c-38 0 -52.75 16 -49.4102 54c4.04004 43 22.71 62 60.71 62z" />
    <glyph glyph-name="hyphen" unicode="-" horiz-adv-x="430" 
d="M412.89 234h-330l9.41992 67h330z" />
    <glyph glyph-name="period" unicode="." horiz-adv-x="213" 
d="M120.89 106c40 0 54.4707 -18 48.8506 -58s-26.1504 -58 -65.1504 -58s-53.6104 17 -47.8506 58c5.62012 40 25.1504 58 64.1504 58z" />
    <glyph glyph-name="slash" unicode="/" horiz-adv-x="373" 
d="M367.38 700l73.8604 -1l-338.38 -700l-72.8604 1z" />
    <glyph glyph-name="zero" unicode="0" horiz-adv-x="693" 
d="M448.19 720c200 0 270.4 -111 234 -370s-138 -370 -338 -370c-201 0 -271.4 111 -235 370s138 370 339 370zM353.61 47c142 0 214.65 90 244.591 303s-17.4092 303 -159.409 303c-143 0 -215.65 -90 -245.591 -303s17.4092 -303 160.409 -303z" />
    <glyph glyph-name="one" unicode="1" horiz-adv-x="351" 
d="M138.96 633l9.41992 67h201l-98.3799 -700h-81l88.96 633h-120z" />
    <glyph glyph-name="two" unicode="2" horiz-adv-x="592" 
d="M179.42 67h361.999l-9.41992 -67h-482l7.4502 53c235.86 184 452.48 288 474.971 448c15.1797 108 -24.6406 152 -139.641 152c-114 0 -168.59 -54 -186.72 -183h-80c24.5898 175 107.13 250 276.13 250s231.72 -66 210.22 -219
c-23.8896 -170 -232.35 -280 -432.989 -434z" />
    <glyph glyph-name="three" unicode="3" horiz-adv-x="640" 
d="M351.94 334h-31l8.84961 63h31c121 0 177.34 38 189.71 126c13.0703 93 -27.7295 130 -143.729 130s-169.03 -50 -186.32 -173h-73c23.6104 168 104.73 240 268.73 240c165 0 226.85 -58 207.88 -193c-21.3604 -152 -150.061 -157 -164.061 -157
c16 0 171.02 -7 147.13 -177c-20.9404 -149 -108.931 -213 -294.931 -213c-185 0 -254.46 75 -229.87 250h77c-18.1299 -129 29.2803 -183 162.28 -183c132 0 190.9 42 205.521 146c13.9102 99 -38.1895 141 -175.189 141z" />
    <glyph glyph-name="four" unicode="4" horiz-adv-x="657" 
d="M511.37 700h0.0107422h93l-61.7002 -439h70l-9.41992 -67h-70l-27.2598 -194h-80l27.2598 194h-377l11.5195 82zM158.681 261h304l50.5898 360z" />
    <glyph glyph-name="five" unicode="5" horiz-adv-x="630" 
d="M299.96 633h-0.0195312l-1.13965 -1l-60.5498 -196c40.2197 30 93.1895 44 162.189 44c166 0 226.46 -75 201.87 -250s-114.13 -250 -298.13 -250c-162 0 -226.72 66 -216.08 220h73c-4.17969 -108 41.5 -153 156.5 -153c126 0 186.59 54 204.72 183
s-25.2803 183 -147.28 183c-99 0 -148.36 -31 -177.74 -112h-69l122.08 399h368l-9.41992 -67h-309z" />
    <glyph glyph-name="six" unicode="6" horiz-adv-x="640" 
d="M107.78 340h0.00976562c37.3799 266 133.399 380 318.399 380c137 0 198.57 -60 206.891 -200h-76c-10.2305 98 -48.75 137 -139.75 137c-134 0 -197.51 -89 -228.01 -306c0 0 22.1299 129 211.13 129c173 0 236.46 -75 211.87 -250s-111.13 -250 -290.13 -250
c-205 0 -249.4 111 -214.41 360zM383.05 413c-122 0 -181.729 -55 -199.719 -183s26.2793 -183 148.279 -183c124 0 182.45 53 200.72 183c18.1299 129 -25.2803 183 -149.28 183z" />
    <glyph glyph-name="seven" unicode="7" horiz-adv-x="544" 
d="M594.93 647l-390.93 -647h-85l385.96 633h-366l9.41992 67h454z" />
    <glyph glyph-name="eight" unicode="8" horiz-adv-x="670" 
d="M236 370c-60.21 27 -83.04 78 -71.9404 157c18.9697 135 101.12 193 272.12 193c172 0 236.85 -58 217.88 -193c-11.0996 -79 -47.2695 -130 -115.06 -157c81.21 -27 111.06 -85 97.71 -180c-20.5195 -146 -111.369 -209 -304.369 -209c-192 0 -266.15 63 -245.631 209
c13.3496 95 60.5 153 149.29 180zM342.6 47c138 0 200.9 42 215.24 144s-35.9004 143 -174.9 143c-138 0 -199.76 -41 -214.1 -143s35.7598 -144 173.76 -144zM426.77 653c-120 0 -173.341 -38 -185.991 -128c-12.9297 -92 30.0107 -128 150.011 -128s174.2 37 186.99 128
c12.6504 90 -31.0098 128 -151.01 128z" />
    <glyph glyph-name="nine" unicode="9" horiz-adv-x="640" 
d="M630.6 360h-0.00976562c-37.3799 -266 -132.399 -380 -318.399 -380c-136 0 -198.57 60 -206.891 200h77c9.23047 -98 48.75 -137 138.75 -137c134 0 198.51 89 229.01 306c0 0 -23.1299 -129 -211.13 -129c-174 0 -237.46 75 -212.87 250s112.13 250 290.13 250
c206 0 249.4 -111 214.41 -360zM355.33 287c122 0 182.729 55 200.719 183s-26.2793 183 -149.279 183c-124 0 -181.45 -53 -199.72 -183c-18.1299 -129 25.2803 -183 148.28 -183z" />
    <glyph glyph-name="colon" unicode=":" horiz-adv-x="213" 
d="M121.89 106c39 0 53.4697 -18 47.8496 -58s-25.1504 -58 -65.1504 -58c-39 0 -53.4697 18 -47.8496 58s25.1504 58 65.1504 58zM178.109 506c39 0 53.4697 -18 47.8496 -58s-25.1504 -58 -65.1504 -58c-39 0 -53.4697 18 -47.8496 58s25.1504 58 65.1504 58z" />
    <glyph glyph-name="semicolon" unicode=";" horiz-adv-x="213" 
d="M178.11 506c39 0 53.4697 -18 47.8496 -58s-25.1504 -58 -65.1504 -58c-39 0 -53.4697 18 -47.8496 58s25.1504 58 65.1504 58zM117.891 106h0.00976562c42 0 55.7803 -30 45.9404 -100c-14.1904 -101 -53.3701 -145 -123.37 -145l6.32031 45c34 0 51.5098 25 59.7998 84
c-40 0 -54.75 16 -49.4102 54c6.04004 43 24.71 62 60.71 62z" />
    <glyph glyph-name="less" unicode="&#x3c;" horiz-adv-x="500" 
d="M91.5996 296h-0.00976562l428.67 204l-11.5195 -82l-352.61 -168l305.39 -168l-11.5195 -82l-371.33 204z" />
    <glyph glyph-name="equal" unicode="=" horiz-adv-x="650" 
d="M629.1 207l-9.41992 -67h-550l9.41992 67h550zM654.819 390l-9.41992 -67h-550l9.41992 67h550z" />
    <glyph glyph-name="greater" unicode="&#x3e;" horiz-adv-x="500" 
d="M120.27 500h0.00976562l371.33 -204l-12.9297 -92l-428.67 -204l11.5195 82l352.61 168l-305.39 168z" />
    <glyph glyph-name="question" unicode="?" horiz-adv-x="533" 
d="M275.9 106c39 0 53.4697 -18 47.8496 -58s-25.1504 -58 -64.1504 -58c-40 0 -54.4697 18 -48.8496 58s25.1504 58 65.1504 58zM252.471 231h-0.00976562c27.9697 199 201.489 160 221.029 299c12.0898 86 -23.71 123 -118.71 123c-96 0 -142.89 -49 -158.909 -163h-77
c22.6299 161 97.3301 230 248.33 230c152 0 208.99 -57 190.3 -190c-25.2998 -180 -213.12 -136 -236.03 -299h-69z" />
    <glyph glyph-name="at" unicode="@" horiz-adv-x="846" 
d="M673.65 460h0.00976562l-37.9502 -270c-11.3799 -81 -0.299805 -116 36.7002 -116c43 0 69.4502 53 86.7402 176c33.1699 236 -38.0605 334 -243.061 334c-221 0 -325.77 -98 -358.939 -334c-31.9004 -227 35.4697 -324 228.47 -324c77 0 129.37 24 167.74 48
l-9.13965 -65c-31.6699 -19 -87.9004 -42 -165.9 -42c-236 0 -320.84 115 -283.18 383c38.79 276 167.23 393 429.23 393c246 0 335.42 -118 296.77 -393c-22.6299 -161 -72.3301 -230 -156.33 -230c-58 0 -89.3496 26 -96.3398 83c-34.04 -43 -83.8496 -63 -152.85 -63
c-129 0 -175.15 63 -154.49 210c21.6396 154 85.9199 220 214.92 220c62 0 106.91 -22 130.59 -67l18.0098 57h49zM434.221 94c87.9902 0 130.45 46 145.91 156c16.0195 114 -13.3701 161 -101.37 161c-92 0 -135.46 -46 -151.62 -161
c-15.5996 -111 15.0801 -156 107.07 -156h0.00976562z" />
    <glyph glyph-name="A" unicode="A" horiz-adv-x="693" 
d="M561 0l-35.1104 170h-313l-83.8896 -170h-89l348.38 700h121l143.62 -700h-92zM432.85 618l-187.55 -381h266z" />
    <glyph glyph-name="B" unicode="B" horiz-adv-x="685" 
d="M530 370h0.00976562s145.45 -11 122.96 -171c-19.54 -139 -102.97 -199 -276.97 -199h-276l98.3799 700h273c155 0 214.41 -54 196.84 -179c-19.3896 -138 -138.22 -151 -138.22 -151zM374.43 67c120 0 173.34 38 186.55 132c13.3496 95 -31.0303 135 -149.03 135h-177
l-37.5195 -267h177zM276.979 633l-33.1689 -236h173c100 0 147.06 36 158.869 120c11.5195 82 -24.7002 116 -125.7 116h-173z" />
    <glyph glyph-name="C" unicode="C" horiz-adv-x="755" 
d="M639.18 229h87.9805c-73.4502 -174 -174.99 -249 -343.99 -249c-226 0 -310.4 111 -274 370s152 370 378 370c186 0 265.46 -75 274.01 -249h-88c-12.4297 125 -66.6797 173 -196.68 173c-163 0 -246.09 -86 -275.32 -294s28.6797 -294 192.68 -294
c118 0 186.75 48 245.32 173z" />
    <glyph glyph-name="D" unicode="D" horiz-adv-x="723" 
d="M712.19 350c-34.4297 -245 -146.19 -350 -372.19 -350h-240l98.3799 700h240c226 0 308.24 -105 273.811 -350zM424.399 629h-148l-78.4199 -558h148c166 0 246.52 82 274.21 279c27.5498 196 -29.79 279 -195.79 279z" />
    <glyph glyph-name="E" unicode="E" horiz-adv-x="620" 
d="M658.4 629h-381.998l-32.04 -228h342l-9.98047 -71h-342l-36.4004 -259h382l-9.98047 -71h-470l98.3799 700h470z" />
    <glyph glyph-name="F" unicode="F" horiz-adv-x="610" 
d="M658.4 629h-381.999l-32.04 -228h342l-9.98047 -71h-342l-46.3799 -330h-88l98.3799 700h470z" />
    <glyph glyph-name="G" unicode="G" horiz-adv-x="765" 
d="M437.97 320l9.4209 67h312l-5.2002 -37c-36.4004 -259 -145 -370 -364 -370c-233 0 -317.4 111 -281 370s152 370 385 370c178 0 258.88 -72 268.27 -240h-84c-10.7002 116 -67.9502 164 -194.95 164c-171 0 -253.09 -86 -282.32 -294s29.6797 -294 199.68 -294
c161 0 238.82 77 265.101 264h-228z" />
    <glyph glyph-name="H" unicode="H" horiz-adv-x="745" 
d="M655.38 700h88l-98.3799 -700h-88l46.9404 334h-369l-46.9404 -334h-88l98.3799 700h88l-40.7598 -290h369z" />
    <glyph glyph-name="I" unicode="I" horiz-adv-x="288" 
d="M198.38 700h88l-98.3799 -700h-88z" />
    <glyph glyph-name="J" unicode="J" horiz-adv-x="569" 
d="M79.5195 210l3.23047 23h85l-3.23047 -23c-15.46 -110 15.3604 -154 106.36 -154s134.18 44 149.64 154l68.8701 490h88l-68.8701 -490c-22.21 -158 -96.7695 -226 -247.77 -226c-149 0 -203.44 68 -181.23 226z" />
    <glyph glyph-name="K" unicode="K" horiz-adv-x="654" 
d="M286.37 700l-43.0098 -306l340.01 306h109l-377.78 -340l299.41 -360h-109l-271.18 326l-45.8203 -326h-88l98.3799 700h87.9902z" />
    <glyph glyph-name="L" unicode="L" horiz-adv-x="580" 
d="M540.68 76l-10.6797 -76h-430l98.3799 700h88l-87.7002 -624h342z" />
    <glyph glyph-name="M" unicode="M" horiz-adv-x="913" 
d="M100 0l98.3799 700h120l158.03 -569l317.97 569h117l-98.3799 -700h-84l81.5098 580l-325.51 -580h-58l-161.49 580l-81.5098 -580h-84z" />
    <glyph glyph-name="N" unicode="N" horiz-adv-x="753" 
d="M667.38 700h84l-98.3799 -700h-106l-281.35 581l-81.6504 -581h-84l98.3799 700h105l282.35 -581z" />
    <glyph glyph-name="O" unicode="O" horiz-adv-x="785" 
d="M494.19 720c233 0 316.4 -111 280 -370s-151 -370 -384 -370s-317.4 111 -281 370s152 370 385 370zM483.511 644c-170 0 -253.09 -86 -282.32 -294s29.6797 -294 199.68 -294s253.09 86 282.32 294s-29.6797 294 -199.68 294z" />
    <glyph glyph-name="P" unicode="P" horiz-adv-x="675" 
d="M692.6 481h-0.0195312c-18.9697 -135 -101.63 -218 -272.63 -218h-195l-36.96 -263h-88l98.3799 700h283c171 0 230.34 -83 211.229 -219zM604.58 481c14.0498 100 -25.1992 148 -137.199 148h-191l-41.46 -295h191c112 0 164.89 49 178.659 147z" />
    <glyph glyph-name="Q" unicode="Q" horiz-adv-x="785" 
d="M494.19 720c233 0 316.54 -110 280.14 -369c-20.2402 -144 -65.0098 -242 -140.3 -301l81.2803 -119h-84l-57.3398 83c-51.2305 -23 -111.78 -34 -183.78 -34c-233 0 -317.4 111 -281 370s152 370 385 370zM483.65 645c-170 0 -254.09 -86 -283.32 -294
s29.6797 -294 199.68 -294c50 0 91.9805 7 128.23 23l-130.16 191h84l104.5 -153c50.6104 47 81.29 123 96.75 233c29.2305 208 -29.6797 294 -199.68 294z" />
    <glyph glyph-name="R" unicode="R" horiz-adv-x="703" 
d="M549 0h-0.00976562l-107.62 266h-216l-37.5195 -267h-88l98.3799 700h299c171 0 230.34 -83 211.229 -219c-15.5996 -111 -71.4395 -181 -180.67 -204l115.21 -276h-94zM234.93 334h207.001c111 0 164.89 49 178.659 147c14.0498 100 -25.2002 148 -137.2 148h-207z" />
    <glyph glyph-name="S" unicode="S" horiz-adv-x="645" 
d="M227.08 520h-0.0107422c-25.1602 -179 422.14 -63 385.04 -327c-20.9404 -149 -107.931 -213 -291.931 -213s-253.72 66 -232.08 220h81c-15.3203 -109 30.5 -153 160.5 -153c128 0 183.48 39 196.69 133c27.6904 197 -420.17 77 -385.03 327
c20.9404 149 105.931 213 282.931 213s242.72 -66 221.08 -220h-80c15.1797 108 -28.5 153 -150.5 153c-121 0 -174.34 -38 -187.689 -133z" />
    <glyph glyph-name="T" unicode="T" horiz-adv-x="625" 
d="M673.38 700l-10.6797 -76h-219l-87.7002 -624h-88l87.7002 624h-218l10.6797 76h525z" />
    <glyph glyph-name="U" unicode="U" horiz-adv-x="725" 
d="M125.69 254l62.6797 446h88l-62.6797 -446c-19.6797 -140 26.1699 -198 157.17 -198c130 0 192.15 58 211.83 198l62.6797 446h88l-62.6797 -446c-26.9805 -192 -120.5 -274 -310.5 -274c-191 0 -261.48 82 -234.5 274z" />
    <glyph glyph-name="V" unicode="V" horiz-adv-x="689" 
d="M227.38 700l126.33 -638l305.67 638h88l-340.38 -700h-124l-144.62 700h89z" />
    <glyph glyph-name="W" unicode="W" horiz-adv-x="1012" 
d="M551.38 700h106l62.1504 -618l252.85 618h88l-293.38 -700h-113l-65.1504 618l-230.85 -618h-113l-96.6201 700h88l79.1504 -618z" />
    <glyph glyph-name="X" unicode="X" horiz-adv-x="668" 
d="M246.38 700l148.24 -290l226.76 290h95l-270.78 -340l182.41 -360h-98l-150.43 310l-245.57 -310h-94l284.59 360l-176.22 340h98z" />
    <glyph glyph-name="Y" unicode="Y" horiz-adv-x="649" 
d="M408.77 283h-1l-39.7695 -283h-84l39.7695 283l-185.39 417h98l141.78 -336l236.22 336h93z" />
    <glyph glyph-name="Z" unicode="Z" horiz-adv-x="630" 
d="M164.98 71h425l-9.98047 -71h-530l8.15039 58l494.25 571h-404l9.98047 71h510l-8.15039 -58z" />
    <glyph glyph-name="bracketleft" unicode="[" horiz-adv-x="309" 
d="M198.38 700h179l-9.41992 -67h-110l-107.65 -766h110l-9.41992 -67h-179z" />
    <glyph glyph-name="backslash" unicode="\" horiz-adv-x="373" 
d="M128.24 699l73.1396 1l141.62 -700l-74.1396 -1z" />
    <glyph glyph-name="bracketright" unicode="]" horiz-adv-x="309" 
d="M128.38 700h179l-126.49 -900h-179l9.41992 67h110l107.65 766h-110z" />
    <glyph glyph-name="asciicircum" unicode="^" horiz-adv-x="484" 
d="M379.16 670l99.8096 -350h-66l-84.54 295l-167.46 -295h-66l198.19 350h86z" />
    <glyph glyph-name="underscore" unicode="_" horiz-adv-x="520" 
d="M520 0l-9.41992 -67h-520l9.41992 67h520z" />
    <glyph glyph-name="grave" unicode="`" horiz-adv-x="295" 
d="M232.38 700l89.9199 -150h-69l-104.92 150h84z" />
    <glyph glyph-name="a" unicode="a" horiz-adv-x="545" 
d="M410.02 0l-1.70898 59c-37.6104 -47 -94.7002 -69 -175.7 -69c-129 0 -177.54 46 -162.36 154c16.7197 119 90.8896 170 248.89 170h120l3.65039 26c11.5195 82 -20.7002 116 -107.7 116c-89 0 -128.36 -31 -138.9 -106h-77c15.7402 112 83.4902 160 225.49 160
c140 0 194.41 -54 176.84 -179l-46.5195 -331h-64.9805zM431.561 260h-118.001c-103 0 -151.64 -33 -162.6 -111c-9.83984 -70 21.5098 -96 109.51 -96c95 0 147.9 42 161.811 141z" />
    <glyph glyph-name="b" unicode="b" horiz-adv-x="595" 
d="M580.14 250c-25.5801 -182 -99.6807 -261 -249.681 -261c-84 0 -137.49 25 -163.9 79l-21.5596 -68h-65l98.3799 700h80l-36.96 -263c41.0303 50 100.261 73 181.261 73c150 0 203.04 -78 177.46 -260zM321.879 56c106 0 160.15 58 179.12 193s-18.8799 193 -124.88 193
c-107 0 -161.15 -58 -180.12 -193s18.8799 -193 125.88 -193z" />
    <glyph glyph-name="c" unicode="c" 
d="M459.32 173h80.002c-34.9902 -128 -109.721 -183 -247.721 -183c-170 0 -232.04 78 -206.46 260s109.54 260 279.54 260c138 0 197.27 -55 196.279 -183h-80c-4.62012 81 -42.7002 116 -125.7 116c-114 0 -171.15 -58 -190.12 -193s21.8799 -193 135.88 -193
c83 0 129.92 35 158.3 116z" />
    <glyph glyph-name="d" unicode="d" horiz-adv-x="595" 
d="M261.6 -10c-150 0 -201.899 79 -176.319 261s100.54 260 250.54 260c81 0 133.77 -23 160.739 -73l36.96 263h80l-98.3799 -700h-65l-2.44043 68c-41.5898 -54 -102.1 -79 -186.1 -79zM291.16 58c106 0 160.15 58 179.12 193s-18.8799 193 -124.88 193
c-107 0 -161.15 -58 -180.12 -193s18.8799 -193 125.88 -193z" />
    <glyph glyph-name="e" unicode="e" 
d="M159.96 206c-6.17969 -108 30.9297 -157 129.93 -157c77 0 118.79 27 150.05 100h76c-39.5996 -111 -110.35 -159 -234.35 -159c-163 0 -222.04 78 -196.46 260s105.54 260 269.54 260c162 0 220.62 -81 193.92 -271l-4.63965 -33h-383.99zM471.549 260
c19.25 137 -19.1602 191 -126.16 191c-106 0 -160.87 -56 -179.84 -191h306z" />
    <glyph glyph-name="f" unicode="f" horiz-adv-x="405" 
d="M381.96 633c-58 0 -83.79 -27 -89.8301 -70l-8.84961 -63h152l-8.29004 -59h-152l-61.9805 -441h-81l61.9805 441h-92l8.29004 59h92l8.84961 63c11.6602 83 67.25 137 161.25 137h91l-9.41992 -67h-72z" />
    <glyph glyph-name="g" unicode="g" horiz-adv-x="595" 
d="M262.6 -10h-0.00976562c-150 0 -203.18 77 -177.6 259s100.68 261 250.68 261c85 0 138.35 -26 164.619 -81l19.9805 71h65l-63.2402 -450c-25.7197 -183 -106.54 -260 -268.54 -260c-130 0 -186.25 48 -190.65 159h77c5.74023 -73 39.9502 -100 117.95 -100
c110 0 163.73 55 182.421 188l3.65039 26c-41.0303 -50 -100.261 -73 -181.261 -73zM290.869 56c108 0 159.87 56 179.12 193s-16.8799 193 -124.88 193c-109 0 -160.87 -56 -180.12 -193c-19.1104 -136 16.8799 -193 125.88 -193z" />
    <glyph glyph-name="h" unicode="h" horiz-adv-x="575" 
d="M80.0098 0l98.3818 700h80l-35.7002 -254c38.1797 44 92.9893 64 166.989 64c131 0 176.88 -72 153.27 -240l-37.9502 -270h-80l37.9502 270c17.29 123 -11.6797 173 -101.68 173c-99 0 -146.03 -50 -163.32 -173l-37.9502 -270h-79.9902z" />
    <glyph glyph-name="i" unicode="i" horiz-adv-x="253" 
d="M167 0h-81l70.2695 500h81zM225.36 707c40 0 54.6104 -17 49.1299 -56c-5.33984 -38 -24.7295 -55 -64.7295 -55c-39 0 -53.6104 17 -48.2705 55c5.48047 39 24.8701 56 63.8701 56z" />
    <glyph glyph-name="j" unicode="j" horiz-adv-x="256" 
d="M-13.8799 -113c60.9902 0.00976562 92.4795 32.0098 99.0898 79l75.0498 534h80l-76.3096 -543c-11.6602 -83 -66.25 -137 -160.25 -137h-79l9.41992 67h51.9805h0.0195312zM229.339 707c39 0 53.6104 -17 48.1299 -56c-5.33984 -38 -24.7295 -55 -63.7295 -55
s-54.6104 17 -49.2705 55c5.48047 39 24.8701 56 64.8701 56z" />
    <glyph glyph-name="k" unicode="k" horiz-adv-x="533" 
d="M258.37 700l-58.46 -416l255.36 216h98l-283.73 -240l233.46 -260h-98l-211.83 236l-33.1699 -236h-80l98.3799 700h79.9902z" />
    <glyph glyph-name="l" unicode="l" horiz-adv-x="240" 
d="M80 0l98.3799 700h80l-98.3799 -700h-80z" />
    <glyph glyph-name="m" unicode="m" horiz-adv-x="856" 
d="M346.26 443c-86.9902 0 -131.158 -50.9902 -148.309 -172.99l-37.9502 -270h-80l70.2695 500h65l1.87988 -72c34.8701 56 86.5205 82 159.521 82c75 0 118.78 -30 134.5 -96c36.2803 66 92.5 96 175.5 96c120 0 160.88 -72 137.27 -240l-37.9502 -270h-80l37.9502 270
c17.0098 121 -8.68066 173 -85.6807 173c-86 0 -129.17 -51 -146.32 -173l-37.9502 -270h-81l37.9502 270c17.29 122.99 -6.67969 172.99 -84.6699 172.99h-0.00976562z" />
    <glyph glyph-name="n" unicode="n" horiz-adv-x="575" 
d="M217.98 441c38.6104 47 94.7002 69 171.7 69c131 0 176.88 -72 153.27 -240l-37.9502 -270h-80l37.9502 270c17.29 123 -12.6797 173 -101.68 173c-97 0 -146.31 -52 -163.319 -173l-37.9502 -270h-80l70.2695 500h65z" />
    <glyph glyph-name="o" unicode="o" horiz-adv-x="585" 
d="M364.68 510c169 0 231.04 -78 205.46 -260s-109.54 -260 -278.54 -260c-170 0 -232.04 78 -206.46 260s109.54 260 279.54 260zM165.14 250c-19.1104 -136 20.8799 -193 135.88 -193c114 0 170.01 57 189.12 193c19.25 137 -19.8799 193 -134.88 193
c-116 0 -170.87 -56 -190.12 -193z" />
    <glyph glyph-name="p" unicode="p" horiz-adv-x="595" 
d="M217.57 431c41.5898 54 101.099 79 185.099 79c150 0 202.9 -79 177.32 -261s-100.54 -260 -250.54 -260c-81 0 -133.77 23 -160.739 73l-36.96 -263h-80l98.3799 700h65zM375.119 442c-107 0 -161.15 -58 -180.12 -193s18.8799 -193 125.88 -193
c106 0 160.15 58 179.12 193s-18.8799 193 -124.88 193z" />
    <glyph glyph-name="q" unicode="q" horiz-adv-x="595" 
d="M85.1396 250c25.5801 182 100.541 260 250.541 260c84 0 136.63 -24 163.04 -78l21.5596 68h65l-98.3799 -700h-80l36.96 263c-41.0303 -50 -100.261 -73 -181.261 -73c-150 0 -203.04 78 -177.46 260zM344.4 444c-107 0 -161.15 -58 -180.12 -193
s18.8799 -193 125.88 -193c106 0 160.15 58 179.12 193s-18.8799 193 -124.88 193z" />
    <glyph glyph-name="r" unicode="r" horiz-adv-x="381" 
d="M346.99 434c-96.9902 0 -132.74 -48 -151.851 -184l-35.1396 -250h-80l70.2695 500h65l3.57031 -60c32.46 46 77.8301 70 138.83 70h55l-10.6797 -76h-54.9902h-0.00976562z" />
    <glyph glyph-name="s" unicode="s" horiz-adv-x="501" 
d="M185.7 375h0.0117188c-18.4102 -131 313.5 -32 285.39 -232c-15.04 -107 -82.5 -153 -225.5 -153c-138 0 -190.25 48 -174.51 160h77c-10.54 -75 20.0996 -106 107.1 -106s125.65 26 134.641 90c19.96 142 -309.521 39 -282.261 233c14.0498 100 78.0898 143 213.09 143
c132 0 182.68 -45 167.92 -150h-73c9.55957 68 -20.5 96 -102.5 96c-83 0 -119.23 -23 -127.381 -81z" />
    <glyph glyph-name="t" unicode="t" horiz-adv-x="403" 
d="M231.52 146h0.0205078c-6.61035 -47 14.8896 -79 75.8896 -79h65l-9.41992 -67h-91c-94 0 -134.41 54 -122.75 137l42.7197 304h-80l8.29004 59h80l16.7197 119h81l-16.7197 -119h152l-8.29004 -59h-152z" />
    <glyph glyph-name="u" unicode="u" horiz-adv-x="575" 
d="M417.29 59c-38.6104 -47 -94.7002 -69 -171.7 -69c-131 0 -176.88 72 -153.27 240l37.9502 270h80l-37.9502 -270c-17.29 -123 12.6797 -173 101.68 -173c97 0 146.31 52 163.319 173l37.9502 270h80l-70.2695 -500h-65z" />
    <glyph glyph-name="v" unicode="v" horiz-adv-x="541" 
d="M279.87 56l216.4 444h85l-252.27 -500h-117l-111.73 500h85z" />
    <glyph glyph-name="w" unicode="w" horiz-adv-x="849" 
d="M643 0h-96l-61.2998 439l-184.7 -439h-97l-93.7305 500h81l74.0098 -434l181.99 434h97l57.8604 -435l196.14 435h81z" />
    <glyph glyph-name="x" unicode="x" horiz-adv-x="513" 
d="M197.27 500l101.59 -195l156.41 195h88l-199.73 -240l139.46 -260h-88l-108.92 214l-169.08 -214h-87l212.54 260l-132.27 240h87z" />
    <glyph glyph-name="y" unicode="y" horiz-adv-x="525" 
d="M246.84 6h0.0107422l2.83984 6l-149.42 488h78l119.19 -390l190.81 390h77l-259.08 -520c-55.7402 -112 -112.49 -160 -189.49 -160h-55l8.29004 59h52c46 0 83.3398 38 124.85 127z" />
    <glyph glyph-name="z" unicode="z" horiz-adv-x="491" 
d="M146.85 63h313l-8.84961 -63h-411l7.03027 50l357.39 387h-293l8.84961 63h391l-7.03027 -50z" />
    <glyph glyph-name="braceleft" unicode="{" horiz-adv-x="369" 
d="M201.61 104l-22.21 -158c-7.73047 -55 16.8994 -79 80.8994 -79h60l-9.41992 -67h-55c-115 0 -160.08 35 -148.84 115l32.8896 234c7.58984 54 -7.17969 77 -48.1797 77l8.15039 58c38 0 58.2305 23 68.6807 76l26.5596 189c14.9004 106 68.2207 151 178.221 151h64
l-9.41992 -67h-60c-64 0 -95.3701 -24 -103.101 -79l-21.2197 -151c-11.2402 -80 -34.4199 -124 -77.79 -148c37.8896 -15 48.5693 -60 35.7793 -151z" />
    <glyph glyph-name="bar" unicode="|" horiz-adv-x="269" 
d="M198.38 700h69l-126.49 -900h-69z" />
    <glyph glyph-name="braceright" unicode="}" horiz-adv-x="369" 
d="M198.61 104c12.79 91 36.1104 136 78.2207 151c-36.6299 24 -47.4502 68 -36.21 148l21.2197 151c7.73047 55 -16.8994 79 -80.8994 79h-60l9.41992 67h64c110 0 150.68 -45 135.779 -151l-26.5596 -189c-4.4502 -53 9.31934 -76 47.3193 -76l-8.15039 -58
c-41 0 -62.2305 -23 -69.8203 -77l-32.8896 -234c-11.2402 -80 -66.1602 -115 -181.16 -115h-55l9.41992 67h60c64 0 95.3701 24 103.101 79z" />
    <glyph glyph-name="asciitilde" unicode="~" horiz-adv-x="700" 
d="M82.1797 229l9.2793 66c232.98 192 385.591 -195 600.001 0l-9.28027 -66c-234.55 -196 -387.16 191 -600 0z" />
    <glyph glyph-name="space_" unicode="&#xa0;" horiz-adv-x="300" 
 />
    <glyph glyph-name="exclamdown" unicode="&#xa1;" horiz-adv-x="273" 
d="M158.89 -200h-85l26.7002 190l51.6797 261h54l-20.6797 -261zM190.529 388c-39 0 -53.4688 18 -47.8486 58c5.75977 41 25.1494 58 64.1494 58s54.4697 -18 48.8496 -58s-25.1504 -58 -65.1504 -58z" />
    <glyph glyph-name="cent" unicode="&#xa2;" 
d="M246.79 -94h-0.0175781l11.9502 85c-144.59 10 -197.49 89 -173.601 259s98.9893 249 246.399 259l11.3799 81h65l-11.3799 -81c114.88 -8 165.01 -64 164.43 -182h-80c-4.62012 81 -42.7002 116 -125.7 116c-114 0 -171.15 -58 -190.12 -193s21.8799 -193 135.88 -193
c83 0 129.92 35 158.3 116h80c-32.5801 -118 -98.4502 -174 -215.57 -182l-11.9502 -85h-65z" />
    <glyph glyph-name="sterling" unicode="&#xa3;" horiz-adv-x="666" 
d="M625.98 71h0.00976562l-9.83984 -70h-556l12.0898 86c81.9404 28 121.4 74 132.5 153l11.8096 84h-111l9.41992 67h111l15.3203 109c21.6396 154 94.9199 220 243.92 220c141 0 192.72 -66 171.08 -220h-76c15.7402 112 -14.9395 157 -103.939 157
c-93 0 -139.61 -47 -155.07 -157l-15.3203 -109h276l-9.41992 -67h-276l-13.21 -94c-10.6797 -76 -52.4297 -124 -138.35 -159h481z" />
    <glyph glyph-name="currency" unicode="&#xa4;" horiz-adv-x="606" 
d="M608.14 492l-53.75 -48c31.0996 -42 39.1094 -106 26.7393 -194s-38.3604 -152 -81.2607 -194l40.25 -48l-49.46 -46l-46.2695 55c-38.5303 -18 -85.79 -27 -142.79 -27s-101.74 9 -135.21 27l-61.7305 -55l-36.54 46l53.75 48c-31.0996 42 -39.1094 106 -26.7393 194
s38.3604 152 81.2607 194l-40.25 48l49.46 46l46.2695 -55c38.5303 18 85.79 27 142.79 27s101.74 -9 135.21 -27l61.7305 55zM176.13 250c-19.1104 -136 20.8799 -193 135.88 -193c114 0 170.01 57 189.12 193c19.25 137 -19.8799 193 -134.88 193
c-116 0 -170.87 -56 -190.12 -193z" />
    <glyph glyph-name="yen" unicode="&#xa5;" horiz-adv-x="669" 
d="M418.77 283h-1l-12.79 -91h213l-8.84961 -63h-213l-18.1299 -129h-84l18.1299 129h-216l8.84961 63h216l12.79 91l-4.4502 11h-210l8.84961 63h173l-152.79 343h98l141.78 -336l236.22 336h93l-245.21 -343h170l-8.84961 -63h-207z" />
    <glyph glyph-name="section" unicode="&#xa7;" horiz-adv-x="651" 
d="M410.78 653c-94 0 -135.5 -32 -146.74 -112c-24.4502 -174 390.069 -92 357.319 -325c-10.4004 -74 -41.0107 -121 -98.6611 -147c13.6299 -24 19.4102 -54 14.0703 -92c-19.3896 -138 -93.6797 -197 -249.68 -197c-153 0 -208.72 66 -187.08 220h69
c-15.1797 -108 21.5 -153 127.5 -153c101 0 146.78 34 158.44 117c25.5801 182 -387.77 87 -355.02 320c10.1201 72 44.2998 116 109.67 140c-21.21 27 -31.29 62 -24.6797 109c18.4102 131 89.2803 187 235.28 187c148 0 201.72 -66 180.08 -220h-69
c15.3203 109 -18.5 153 -120.5 153zM544.38 209c15.5996 111 -174.699 109 -284.56 174c-51.1104 -15 -73.9004 -42 -80.5107 -89c-16.4404 -117 195.25 -105 301.85 -179c38.5303 18 56.6104 47 63.2207 94z" />
    <glyph glyph-name="dieresis" unicode="&#xa8;" horiz-adv-x="390" 
d="M208.17 727c40 0 54.4707 -18 48.8506 -58s-26.1504 -58 -65.1504 -58s-53.4697 18 -47.8496 58c5.75977 41 25.1494 58 64.1494 58zM386.171 727c39 0 53.4707 -18 47.8506 -58s-25.1504 -58 -64.1504 -58s-53.4697 18 -47.8496 58c5.75977 41 25.1494 58 64.1494 58z
" />
    <glyph glyph-name="copyright" unicode="&#xa9;" horiz-adv-x="875" 
d="M539.19 720c264 0 361.4 -111 325 -370s-165 -370 -429 -370c-265 0 -362.4 111 -326 370s165 370 430 370zM443.48 39c224 0 332.07 93 362.71 311s-51.29 311 -275.29 311c-225 0 -332.93 -92 -363.85 -312c-30.5 -217 52.4297 -310 276.43 -310zM515.301 550
c124 0 176.253 -48 174.513 -160h-65c-2.32031 76 -35.1006 106 -117.101 106c-98 0 -145.04 -43 -159.521 -146c-14.3398 -102 21.4805 -146 118.48 -146c82 0 123.22 30 146.899 106h65c-29.7402 -112 -95.4902 -160 -219.49 -160c-143 0 -195.57 60 -175.891 200
s90.1094 200 232.109 200z" />
    <glyph glyph-name="guillemotleft" unicode="&#xab;" horiz-adv-x="443" 
d="M235.24 450h78l-144.7 -190l89.8896 -200h-78l-93.8896 200zM378.24 450h78l-144.7 -190l89.8896 -200h-78l-93.8896 200z" />
    <glyph glyph-name="logicalnot" unicode="&#xac;" horiz-adv-x="630" 
d="M612.31 301l-27.6895 -197h-66l18.2695 130h-454l9.41992 67h520z" />
    <glyph glyph-name="registered" unicode="&#xae;" horiz-adv-x="875" 
d="M539.19 720c264 0 361.4 -111 325 -370s-165 -370 -429 -370c-265 0 -362.4 111 -326 370s165 370 430 370zM443.48 39c226 0 331.79 91 362.71 311s-49.29 311 -275.29 311s-332.79 -91 -363.85 -312c-30.7803 -219 50.4297 -310 276.43 -310zM567.141 307h-0.999023h-1
l71.75 -137h-60l-65.5898 131h-126l-18.4102 -131h-53l50.5898 360h174c99 0 136.22 -34 124.979 -114c-8.57031 -61 -38.4902 -96 -96.3203 -109zM411.021 484h-0.00976562l-19.25 -137h120c63 0 89.6699 19 96.7002 69c6.88965 49 -14.4404 68 -77.4404 68h-120z" />
    <glyph glyph-name="macron" unicode="&#xaf;" horiz-adv-x="440" 
d="M135.87 611l7.73047 55h340l-7.73047 -55h-340z" />
    <glyph glyph-name="degree" unicode="&#xb0;" horiz-adv-x="480" 
d="M123.08 520c18.6904 133 82.7002 190 216.7 190c133 0 181.99 -57 163.3 -190s-83.7002 -190 -216.7 -190s-181.99 57 -163.3 190zM177.08 520c-13.6299 -97 18.8896 -136 116.89 -136c97 0 141.48 39 155.11 136s-19.8896 136 -116.89 136
c-98 0 -141.48 -39 -155.11 -136z" />
    <glyph glyph-name="plusminus" unicode="&#xb1;" horiz-adv-x="620" 
d="M50 0l9.41992 67h520l-9.41992 -67h-520zM618.77 347l-9.41992 -67h-228l-23.75 -169h-65l23.75 169h-227l9.41992 67h227l21.5 153h65l-21.5 -153h228z" />
    <glyph glyph-name="acute" unicode="&#xb4;" horiz-adv-x="295" 
d="M127.3 550l132.08 150h84l-147.08 -150h-69z" />
    <glyph glyph-name="paragraph" unicode="&#xb6;" horiz-adv-x="860" 
d="M766.96 633l-117.068 -833h-69l117.07 833h-257l-117.07 -833h-69l70.2695 500c-156 0 -214.57 60 -194.891 200s103.109 200 278.109 200h470l-9.41992 -67h-102z" />
    <glyph glyph-name="periodcentered" unicode="&#xb7;" horiz-adv-x="213" 
d="M150.41 316c40 0 54.4697 -18 48.8496 -58s-26.1504 -58 -65.1504 -58s-53.4697 18 -47.8496 58s25.1504 58 64.1504 58z" />
    <glyph glyph-name="cedilla" unicode="&#xb8;" horiz-adv-x="297" 
d="M119.38 17h47.999l-30.5596 -68s101.17 -13 90.4902 -89c-9.83984 -70 -82.46 -110 -212.46 -110l5.75977 41c90 0 139.09 22 145.7 69c6.04004 43 -59.5498 53 -93.5498 53z" />
    <glyph glyph-name="guillemotright" unicode="&#xbb;" horiz-adv-x="449" 
d="M113.24 450h79l100.3 -190l-155.11 -200h-79l151.11 200zM255.24 450h79l101.3 -190l-156.11 -200h-79l152.11 200z" />
    <glyph glyph-name="questiondown" unicode="&#xbf;" horiz-adv-x="533" 
d="M350.8 269h0.00976562c-27.9697 -199 -201.489 -160 -221.029 -299c-12.0898 -86 23.71 -123 118.71 -123s142.89 49 158.909 163h77c-22.6299 -161 -97.3301 -230 -249.33 -230c-151 0 -207.99 57 -189.3 190c25.2998 180 213.12 136 236.03 299h69zM332.53 388
c-39 0 -53.4707 18 -47.8506 58s25.1504 58 64.1504 58c40 0 54.6104 -17 48.8506 -58c-5.62012 -40 -25.1504 -58 -65.1504 -58z" />
    <glyph glyph-name="Agrave" unicode="&#xc0;" horiz-adv-x="693" 
d="M561 0l-35.1104 170h-313l-83.8896 -170h-89l348.38 700h121l143.62 -700h-92zM432.85 618l-187.55 -381h266zM498.399 750h-66l-102.14 120h77z" />
    <glyph glyph-name="Aacute" unicode="&#xc1;" horiz-adv-x="693" 
d="M561 0l-35.1104 170h-313l-83.8896 -170h-89l348.38 700h121l143.62 -700h-92zM432.85 618l-187.55 -381h266zM401.399 750l120.86 120h81l-132.86 -120h-69z" />
    <glyph glyph-name="Acircumflex" unicode="&#xc2;" horiz-adv-x="693" 
d="M561 0l-35.1104 170h-313l-83.8896 -170h-89l348.38 700h121l143.62 -700h-92zM432.85 618l-187.55 -381h266zM588.399 750h-61l-66.9004 79l-88.0996 -79h-62l115.86 120h81z" />
    <glyph glyph-name="Atilde" unicode="&#xc3;" horiz-adv-x="693" 
d="M561 0l-35.1104 170h-313l-83.8896 -170h-89l348.38 700h121l143.62 -700h-92zM432.85 618l-187.55 -381h266zM293.81 760c9.83984 70 51.6201 104 99.6201 104c77 0 90.4404 -68 142.44 -68c23 0 41.3896 17 46.5898 54h39c-9.83984 -70 -52.6201 -104 -99.6201 -104
c-78 0 -90.4404 68 -143.44 68c-22 0 -40.3896 -17 -45.5898 -54h-39z" />
    <glyph glyph-name="Adieresis" unicode="&#xc4;" horiz-adv-x="693" 
d="M561 0l-35.1104 170h-313l-83.8896 -170h-89l348.38 700h121l143.62 -700h-92zM432.85 618l-187.55 -381h266zM371.46 850c39 0 53.749 -16 48.6895 -52c-4.91992 -35 -24.1699 -51 -63.1699 -51c-40 0 -54.75 16 -49.8301 51c5.2002 37 24.3105 52 64.3105 52z
M556.459 850c39 0 53.749 -16 48.6895 -52c-4.91992 -35 -24.1699 -51 -63.1699 -51s-53.75 16 -48.8301 51c5.2002 37 23.3105 52 63.3105 52z" />
    <glyph glyph-name="Aring" unicode="&#xc5;" horiz-adv-x="693" 
d="M561 0l-35.1104 170h-313l-83.8896 -170h-89l348.38 700h121l143.62 -700h-92zM432.85 618l-187.55 -381h266zM473.43 921c78 0 107.92 -29 98.2197 -98s-47.9199 -99 -125.92 -99s-106.78 30 -97.0801 99s46.7803 98 124.78 98zM451.649 766c48 0 67.1104 15 73.0107 57
c5.75977 41 -9.99023 57 -56.9902 57s-67.25 -16 -73.0098 -57c-5.90039 -42 9.98926 -57 56.9893 -57z" />
    <glyph glyph-name="AE" unicode="&#xc6;" horiz-adv-x="933" 
d="M971.4 629h-339.998l-32.04 -228h300l-9.98047 -71h-300l-36.4004 -259h340l-9.98047 -71h-420l23.8896 170h-244l-112.89 -170h-90l470.38 700h471zM552.522 637l-265.22 -400h209z" />
    <glyph glyph-name="Ccedilla" unicode="&#xc7;" horiz-adv-x="755" 
d="M355.33 -19h0.990234c-205.74 9 -282 121 -247.15 369c36.4004 259 152 370 378 370c186 0 265.46 -75 274.01 -249h-88c-12.4297 125 -66.6797 173 -196.68 173c-163 0 -246.09 -86 -275.32 -294s28.6797 -294 192.68 -294c118 0 186.75 48 245.32 173h88
c-70.4697 -167 -167.149 -243 -323.989 -249l-14.3604 -31s101.17 -13 90.4902 -89c-9.83984 -70 -83.46 -110 -212.46 -110l5.75977 41c90 0 139.09 22 145.7 69c6.04004 43 -60.5498 53 -93.5498 53z" />
    <glyph glyph-name="Egrave" unicode="&#xc8;" horiz-adv-x="620" 
d="M658.4 629h-381.998l-32.04 -228h342l-9.98047 -71h-342l-36.4004 -259h382l-9.98047 -71h-470l98.3799 700h470zM489.412 750h-66l-102.14 120h77z" />
    <glyph glyph-name="Eacute" unicode="&#xc9;" horiz-adv-x="620" 
d="M658.4 629h-381.998l-32.04 -228h342l-9.98047 -71h-342l-36.4004 -259h382l-9.98047 -71h-470l98.3799 700h470zM391.412 750l121.86 120h80l-131.86 -120h-70z" />
    <glyph glyph-name="Ecircumflex" unicode="&#xca;" horiz-adv-x="620" 
d="M658.4 629h-381.998l-32.04 -228h342l-9.98047 -71h-342l-36.4004 -259h382l-9.98047 -71h-470l98.3799 700h470zM579.412 750h-62l-65.9004 79l-88.0996 -79h-62l115.86 120h80z" />
    <glyph glyph-name="Edieresis" unicode="&#xcb;" horiz-adv-x="620" 
d="M658.4 629h-381.998l-32.04 -228h342l-9.98047 -71h-342l-36.4004 -259h382l-9.98047 -71h-470l98.3799 700h470zM361.462 850c39 0 54.749 -16 49.6895 -52c-4.91992 -35 -25.1699 -51 -64.1699 -51s-53.75 16 -48.8301 51c5.2002 37 24.3105 52 63.3105 52z
M546.461 850c39 0 54.749 -16 49.6895 -52c-4.91992 -35 -24.1699 -51 -64.1699 -51c-39 0 -53.75 16 -48.8301 51c5.2002 37 24.3105 52 63.3105 52z" />
    <glyph glyph-name="Igrave" unicode="&#xcc;" horiz-adv-x="286" 
d="M191.38 700h88l-98.3799 -700h-88zM291.41 750h-66l-103.14 120h78z" />
    <glyph glyph-name="Iacute" unicode="&#xcd;" horiz-adv-x="295" 
d="M203.38 700h88l-98.3799 -700h-88zM205.41 750l120.86 120h81l-131.86 -120h-70z" />
    <glyph glyph-name="Icircumflex" unicode="&#xce;" horiz-adv-x="298" 
d="M203.38 700h88l-98.3799 -700h-88zM393.41 750h-62l-65.9004 79l-89.0996 -79h-61l115.86 120h80z" />
    <glyph glyph-name="Idieresis" unicode="&#xcf;" horiz-adv-x="305" 
d="M207.38 700h88l-98.3799 -700h-88zM184.62 844c39 0 54.8896 -15 49.8301 -51s-25.3096 -52 -64.3096 -52s-53.75 16 -48.6904 52s24.1699 51 63.1699 51zM357.62 844c39 0 53.8896 -15 48.8301 -51s-24.3096 -52 -63.3096 -52s-53.75 16 -48.6904 52
s23.1699 51 63.1699 51z" />
    <glyph glyph-name="Ntilde" unicode="&#xd1;" horiz-adv-x="753" 
d="M667.38 700h84l-98.3799 -700h-106l-281.35 581l-81.6504 -581h-84l98.3799 700h105l282.35 -581zM325.81 760c9.83984 70 51.6201 104 99.6201 104c77 0 90.4404 -68 142.44 -68c23 0 41.3896 17 46.5898 54h39c-9.83984 -70 -52.6201 -104 -99.6201 -104
c-78 0 -90.4404 68 -143.44 68c-22 0 -40.3896 -17 -45.5898 -54h-39z" />
    <glyph glyph-name="Ograve" unicode="&#xd2;" horiz-adv-x="785" 
d="M494.19 720c233 0 316.4 -111 280 -370s-151 -370 -384 -370s-317.4 111 -281 370s152 370 385 370zM483.511 644c-170 0 -253.09 -86 -282.32 -294s29.6797 -294 199.68 -294s253.09 86 282.32 294s-29.6797 294 -199.68 294zM547.411 750h-66l-103.14 120h78z" />
    <glyph glyph-name="Oacute" unicode="&#xd3;" horiz-adv-x="785" 
d="M494.19 720c233 0 316.4 -111 280 -370s-151 -370 -384 -370s-317.4 111 -281 370s152 370 385 370zM483.511 644c-170 0 -253.09 -86 -282.32 -294s29.6797 -294 199.68 -294s253.09 86 282.32 294s-29.6797 294 -199.68 294zM449.411 750l120.86 120h81l-131.86 -120
h-70z" />
    <glyph glyph-name="Ocircumflex" unicode="&#xd4;" horiz-adv-x="785" 
d="M494.19 720c233 0 316.4 -111 280 -370s-151 -370 -384 -370s-317.4 111 -281 370s152 370 385 370zM483.511 644c-170 0 -253.09 -86 -282.32 -294s29.6797 -294 199.68 -294s253.09 86 282.32 294s-29.6797 294 -199.68 294zM637.411 750h-62l-65.9004 79l-89.0996 -79
h-61l115.86 120h80z" />
    <glyph glyph-name="Otilde" unicode="&#xd5;" horiz-adv-x="785" 
d="M494.19 720c233 0 316.4 -111 280 -370s-151 -370 -384 -370s-317.4 111 -281 370s152 370 385 370zM483.511 644c-170 0 -253.09 -86 -282.32 -294s29.6797 -294 199.68 -294s253.09 86 282.32 294s-29.6797 294 -199.68 294zM341.811 760
c9.83984 70 52.6201 104 99.6201 104c78 0 90.4404 -68 143.44 -68c22 0 40.3896 17 45.5898 54h39c-9.83984 -70 -51.6201 -104 -99.6201 -104c-77 0 -90.4404 68 -142.44 68c-23 0 -41.3896 -17 -46.5898 -54h-39z" />
    <glyph glyph-name="Odieresis" unicode="&#xd6;" horiz-adv-x="785" 
d="M494.19 720c232 0 316.4 -111 280 -370s-152 -370 -384 -370c-234 0 -317.4 111 -281 370s152 370 385 370zM483.511 644c-171 0 -253.09 -86 -282.32 -294s28.6797 -294 199.68 -294c170 0 252.09 86 281.32 294s-28.6797 294 -198.68 294zM418.621 844
c39 0 53.8896 -15 48.8301 -51s-24.3096 -52 -63.3096 -52s-54.75 16 -49.6904 52s24.1699 51 64.1699 51zM603.621 844c39 0 54.8896 -15 49.8301 -51s-25.3096 -52 -64.3096 -52s-53.75 16 -48.6904 52s24.1699 51 63.1699 51z" />
    <glyph glyph-name="multiply" unicode="&#xd7;" horiz-adv-x="546" 
d="M160.61 474l152.261 -176l201.88 177l39.8301 -51l-198.45 -174l150.55 -174l-54.1699 -51l-151.12 177l-200.74 -176l-39.8301 51l199.59 175l-149.41 175z" />
    <glyph glyph-name="Oslash" unicode="&#xd8;" horiz-adv-x="785" 
d="M606.64 709h0.00878906l34.2598 73h58l-42.3701 -88c108.39 -47 143.93 -157 117.79 -343c-36.4004 -259 -151 -370 -384 -370c-28 0 -53.7197 2 -78.2998 5l-32.1396 -65h-58l36.6797 76c-132.52 39 -177.779 151 -149.249 354c36.4004 259 152 370 385 370
c42 0 79.4404 -4 112.32 -12zM570.108 634h0.00878906c-25.0195 7 -53.5996 10 -86.5996 10c-170 0 -253.09 -86 -282.32 -294c-22.0596 -157 6.57031 -245 94.9307 -278zM347.308 59c16.7197 -2 34.5811 -3 53.5811 -3c170 0 253.09 86 282.32 294
c19.3896 138 0.199219 222 -65.041 263z" />
    <glyph glyph-name="Ugrave" unicode="&#xd9;" horiz-adv-x="725" 
d="M125.69 254l62.6797 446h88l-62.6797 -446c-19.6797 -140 26.1699 -198 157.17 -198c130 0 192.15 58 211.83 198l62.6797 446h88l-62.6797 -446c-26.9805 -192 -120.5 -274 -310.5 -274c-191 0 -261.48 82 -234.5 274zM516.4 750h-65l-103.14 120h77z" />
    <glyph glyph-name="Uacute" unicode="&#xda;" horiz-adv-x="725" 
d="M125.69 254l62.6797 446h88l-62.6797 -446c-19.6797 -140 26.1699 -198 157.17 -198c130 0 192.15 58 211.83 198l62.6797 446h88l-62.6797 -446c-26.9805 -192 -120.5 -274 -310.5 -274c-191 0 -261.48 82 -234.5 274zM419.4 750l120.86 120h81l-132.86 -120h-69z" />
    <glyph glyph-name="Ucircumflex" unicode="&#xdb;" horiz-adv-x="725" 
d="M125.69 254l62.6797 446h88l-62.6797 -446c-19.6797 -140 26.1699 -198 157.17 -198c130 0 192.15 58 211.83 198l62.6797 446h88l-62.6797 -446c-26.9805 -192 -120.5 -274 -310.5 -274c-191 0 -261.48 82 -234.5 274zM606.4 750h-61l-65.9004 79l-89.0996 -79h-61
l114.86 120h81z" />
    <glyph glyph-name="Udieresis" unicode="&#xdc;" horiz-adv-x="725" 
d="M125.69 254l62.6797 446h88l-62.6797 -446c-19.6797 -140 26.1699 -198 156.17 -198c131 0 193.15 58 212.83 198l62.6797 446h88l-62.6797 -446c-26.9805 -192 -120.5 -274 -311.5 -274s-260.48 82 -233.5 274zM388.61 844c39 0 53.8896 -15 48.8301 -51
s-24.3096 -52 -63.3096 -52c-40 0 -54.75 16 -49.6904 52s24.1699 51 64.1699 51zM573.61 844c39 0 53.8896 -15 48.8301 -51s-24.3096 -52 -63.3096 -52s-53.75 16 -48.6904 52s23.1699 51 63.1699 51z" />
    <glyph glyph-name="Yacute" unicode="&#xdd;" horiz-adv-x="649" 
d="M408.77 283h-1l-39.7695 -283h-84l39.7695 283l-185.39 417h98l141.78 -336l236.22 336h93zM378.399 750l120.86 120h81l-131.86 -120h-70z" />
    <glyph glyph-name="germandbls" unicode="&#xdf;" horiz-adv-x="628" 
d="M420.71 720l0.0195312 -0.000976562c151.61 -0.129883 208.45 -57.1494 189.78 -189.999c-11.0996 -79 -69.5801 -118 -169.41 -131c124.89 -15 171.739 -73 154.589 -195c-20.0996 -143 -85.6699 -204 -217.67 -204c-37 0 -67.1602 6 -100.19 20l8.84961 63
s46.75 -16 82.75 -16c89 0 133.04 43 146.95 142c14.9004 106 -36.7793 151 -170.779 151l9.7002 69c120 0 170.22 30 181.46 110c10.54 75 -22.9795 114 -120.979 114c-108 0 -160.89 -49 -176.77 -162l-69.0098 -491h-80l70.2695 500
c20.7803 147.85 104.75 219.85 260.44 220z" />
    <glyph glyph-name="agrave" unicode="&#xe0;" horiz-adv-x="545" 
d="M410.02 0l-1.70898 59c-37.6104 -47 -94.7002 -69 -175.7 -69c-129 0 -177.54 46 -162.36 154c16.7197 119 90.8896 170 248.89 170h120l3.65039 26c11.5195 82 -20.7002 116 -107.7 116c-89 0 -128.36 -31 -138.9 -106h-77c15.7402 112 83.4902 160 225.49 160
c140 0 194.41 -54 176.84 -179l-46.5195 -331h-64.9805zM431.561 260h-118.001c-103 0 -151.64 -33 -162.6 -111c-9.83984 -70 21.5098 -96 109.51 -96c95 0 147.9 42 161.811 141zM307.399 700l89.9199 -150h-69l-104.92 150h84z" />
    <glyph glyph-name="aacute" unicode="&#xe1;" horiz-adv-x="545" 
d="M410.02 0l-1.70898 59c-37.6104 -47 -94.7002 -69 -175.7 -69c-129 0 -177.54 46 -162.36 154c16.7197 119 90.8896 170 248.89 170h120l3.65039 26c11.5195 82 -20.7002 116 -107.7 116c-89 0 -128.36 -31 -138.9 -106h-77c15.7402 112 83.4902 160 225.49 160
c140 0 194.41 -54 176.84 -179l-46.5195 -331h-64.9805zM431.561 260h-118.001c-103 0 -151.64 -33 -162.6 -111c-9.83984 -70 21.5098 -96 109.51 -96c95 0 147.9 42 161.811 141zM428.399 700h84l-147.08 -150h-69z" />
    <glyph glyph-name="acircumflex" unicode="&#xe2;" horiz-adv-x="545" 
d="M410.02 0l-1.70898 59c-37.6104 -47 -94.7002 -69 -175.7 -69c-129 0 -177.54 46 -162.36 154c16.7197 119 90.8896 170 248.89 170h120l3.65039 26c11.5195 82 -20.7002 116 -107.7 116c-89 0 -128.36 -31 -138.9 -106h-77c15.7402 112 83.4902 160 225.49 160
c140 0 194.41 -54 176.84 -179l-46.5195 -331h-64.9805zM431.561 260h-118.001c-103 0 -151.64 -33 -162.6 -111c-9.83984 -70 21.5098 -96 109.51 -96c95 0 147.9 42 161.811 141zM410.399 700l70.9199 -150h-56l-61.3799 104l-91.6201 -104h-56l113.08 150h81z" />
    <glyph glyph-name="atilde" unicode="&#xe3;" horiz-adv-x="545" 
d="M410.02 0l-1.70898 59c-37.6104 -47 -94.7002 -69 -175.7 -69c-129 0 -177.54 46 -162.36 154c16.7197 119 90.8896 170 248.89 170h120l3.65039 26c11.5195 82 -20.7002 116 -107.7 116c-89 0 -128.36 -31 -138.9 -106h-77c15.7402 112 83.4902 160 225.49 160
c140 0 194.41 -54 176.84 -179l-46.5195 -331h-64.9805zM431.561 260h-118.001c-103 0 -151.64 -33 -162.6 -111c-9.83984 -70 21.5098 -96 109.51 -96c95 0 147.9 42 161.811 141zM194.829 575c9.83984 70 54.5898 118 101.59 118c78 0 87.9297 -93 135.93 -93
c22 0 41.3701 24 47.1299 65h43c-9.83984 -70 -53.7295 -119 -101.729 -119c-78 0 -87.9297 93 -135.93 93c-22 0 -41.3701 -24 -46.9902 -64h-43z" />
    <glyph glyph-name="adieresis" unicode="&#xe4;" horiz-adv-x="545" 
d="M410.02 0l-1.70898 59c-37.6104 -47 -94.7002 -69 -175.7 -69c-129 0 -177.54 46 -162.36 154c16.7197 119 90.8896 170 248.89 170h120l3.65039 26c11.5195 82 -20.7002 116 -107.7 116c-89 0 -128.36 -31 -138.9 -106h-77c15.7402 112 83.4902 160 225.49 160
c140 0 194.41 -54 176.84 -179l-46.5195 -331h-64.9805zM431.561 260h-118.001c-103 0 -151.64 -33 -162.6 -111c-9.83984 -70 21.5098 -96 109.51 -96c95 0 147.9 42 161.811 141zM279.569 687c39 0 53.4707 -18 47.8506 -58s-25.1504 -58 -64.1504 -58
c-40 0 -54.4697 18 -48.8496 58c5.75977 41 25.1494 58 65.1494 58zM456.57 687c40 0 54.4707 -18 48.8506 -58s-25.1504 -58 -65.1504 -58c-39 0 -53.4697 18 -47.8496 58c5.75977 41 25.1494 58 64.1494 58z" />
    <glyph glyph-name="aring" unicode="&#xe5;" horiz-adv-x="545" 
d="M410.02 0l-1.70898 59c-37.6104 -47 -94.7002 -69 -175.7 -69c-129 0 -177.54 46 -162.36 154c16.7197 119 90.8896 170 248.89 170h120l3.65039 26c11.5195 82 -20.7002 116 -107.7 116c-89 0 -128.36 -31 -138.9 -106h-77c15.7402 112 83.4902 160 225.49 160
c140 0 194.41 -54 176.84 -179l-46.5195 -331h-64.9805zM431.561 260h-118.001c-103 0 -151.64 -33 -162.6 -111c-9.83984 -70 21.5098 -96 109.51 -96c95 0 147.9 42 161.811 141zM373.35 721c77 0 106.92 -29 97.2197 -98s-47.9199 -99 -125.92 -99
c-77 0 -106.78 30 -97.0801 99s47.7803 98 125.78 98zM351.569 566c47 0 66.1104 15 72.0107 57c5.75977 41 -8.99023 57 -55.9902 57c-48 0 -67.25 -16 -73.0098 -57c-5.90039 -42 8.98926 -57 56.9893 -57z" />
    <glyph glyph-name="ae" unicode="&#xe6;" horiz-adv-x="910" 
d="M504.97 206c-6.17969 -108 29.791 -158 128.791 -158c78 0 118.79 27 150.05 100h77c-39.5996 -111 -110.35 -159 -235.35 -159c-103 0 -159.66 38 -176.851 122c-32.8096 -84 -101.01 -121 -216.01 -121c-129 0 -177.54 46 -162.36 154
c16.2998 116 87.8896 170 236.89 170h132l3.65039 26c10.96 78 -22.4004 111 -110.4 111s-125.94 -28 -136.2 -101h-77c15.7402 112 83.4902 160 225.49 160c94 0 145.06 -28 160.35 -90c41.71 62 104.65 90 193.65 90c163 0 221.62 -81 194.92 -271l-4.63965 -33h-383.98z
M431.561 260h-111.99c-109 0 -157.5 -32 -168.6 -111c-9.41992 -67 23.5 -96 109.5 -96c99 0 147.76 41 160.97 135zM816.431 259c19.25 137 -19.1602 191 -127.16 191c-105 0 -159.87 -56 -178.84 -191h306z" />
    <glyph glyph-name="ccedilla" unicode="&#xe7;" 
d="M260.73 -9h0.0117188l0.139648 1c-146.74 9 -199.641 88 -175.751 258c25.5801 182 109.54 260 279.54 260c138 0 197.27 -55 196.279 -183h-80c-4.62012 81 -42.7002 116 -125.7 116c-114 0 -171.15 -58 -190.12 -193s21.8799 -193 135.88 -193
c83 0 129.92 35 158.3 116h80c-33.29 -123 -103.16 -179 -230.72 -183l-18.7598 -41s101.17 -13 90.4902 -89c-9.83984 -70 -83.46 -110 -212.46 -110l5.75977 41c90 0 139.09 22 145.7 69c6.04004 43 -60.5498 53 -94.5498 53z" />
    <glyph glyph-name="egrave" unicode="&#xe8;" 
d="M159.96 206c-6.17969 -108 30.9297 -157 129.93 -157c77 0 118.79 27 150.05 100h76c-39.5996 -111 -110.35 -159 -234.35 -159c-163 0 -222.04 78 -196.46 260s105.54 260 269.54 260c162 0 220.62 -81 193.92 -271l-4.63965 -33h-383.99zM346.389 451h-1
c-106 0 -160.87 -56 -179.84 -191h306c19.25 137 -18.1602 191 -125.16 191zM407.299 550h-69l-104.92 150h84z" />
    <glyph glyph-name="eacute" unicode="&#xe9;" 
d="M159.96 206c-6.17969 -108 30.9297 -157 129.93 -157c77 0 118.79 27 150.05 100h76c-39.5996 -111 -110.35 -159 -236.35 -159c-161 0 -220.04 78 -194.46 260s105.54 260 266.54 260c165 0 223.62 -81 196.92 -271l-4.63965 -33h-383.99zM346.389 451h-1
c-106 0 -160.87 -56 -179.84 -191h306c19.25 137 -18.1602 191 -125.16 191zM310.299 550l132.08 150h84l-147.08 -150h-69z" />
    <glyph glyph-name="ecircumflex" unicode="&#xea;" 
d="M159.96 206c-6.17969 -108 30.9297 -157 129.93 -157c77 0 118.79 27 150.05 100h76c-39.5996 -111 -110.35 -159 -236.35 -159c-161 0 -220.04 78 -194.46 260s105.54 260 266.54 260c165 0 223.62 -81 196.92 -271l-4.63965 -33h-383.99zM346.389 451h-1
c-106 0 -160.87 -56 -179.84 -191h306c19.25 137 -18.1602 191 -125.16 191zM491.299 550h-56l-61.3799 104l-91.6201 -104h-56l113.08 150h81z" />
    <glyph glyph-name="edieresis" unicode="&#xeb;" 
d="M159.96 206c-6.17969 -108 30.9297 -157 129.93 -157c77 0 118.79 27 150.05 100h76c-39.5996 -111 -110.35 -159 -236.35 -159c-161 0 -220.04 78 -194.46 260s105.54 260 266.54 260c165 0 223.62 -81 196.92 -271l-4.63965 -33h-383.99zM346.389 451h-1
c-106 0 -160.87 -56 -179.84 -191h306c19.25 137 -18.1602 191 -125.16 191zM288.559 687c40 0 54.4707 -18 48.8506 -58s-25.1504 -58 -64.1504 -58c-40 0 -54.4697 18 -48.8496 58c5.75977 41 25.1494 58 64.1494 58zM466.56 687c40 0 54.4707 -18 48.8506 -58
s-25.1504 -58 -65.1504 -58c-39 0 -53.4697 18 -47.8496 58c5.75977 41 25.1494 58 64.1494 58z" />
    <glyph glyph-name="igrave" unicode="&#xec;" horiz-adv-x="245" 
d="M167 0h-81l70.2695 500h81zM252.3 550h-69l-104.92 150h84z" />
    <glyph glyph-name="iacute" unicode="&#xed;" horiz-adv-x="245" 
d="M162 0h-80l70.2695 500h80zM147.3 550l132.08 150h84l-147.08 -150h-69z" />
    <glyph glyph-name="icircumflex" unicode="&#xee;" horiz-adv-x="245" 
d="M163 0h-81l70.2695 500h81zM332.3 550h-57l-61.3799 104l-90.6201 -104h-56l113.08 150h81z" />
    <glyph glyph-name="idieresis" unicode="&#xef;" horiz-adv-x="238" 
d="M160 0h-81l70.2695 500h81zM131.16 670c39 0 53.4707 -18 47.8506 -58s-25.1504 -58 -64.1504 -58c-40 0 -54.4697 18 -48.8496 58c5.75977 41 25.1494 58 65.1494 58zM296.161 670c39 0 53.4707 -18 47.8506 -58s-25.1504 -58 -64.1504 -58s-53.4697 18 -47.8496 58
c5.75977 41 24.1494 58 64.1494 58z" />
    <glyph glyph-name="ntilde" unicode="&#xf1;" horiz-adv-x="575" 
d="M217.98 441c38.6104 47 94.7002 69 171.7 69c131 0 176.88 -72 153.27 -240l-37.9502 -270h-80l37.9502 270c17.29 123 -12.6797 173 -101.68 173c-97 0 -146.31 -52 -163.319 -173l-37.9502 -270h-80l70.2695 500h65zM215.811 575c9.83984 70 54.5898 118 101.59 118
c78 0 87.9297 -93 135.93 -93c22 0 41.3701 24 47.1299 65h43c-9.83984 -70 -53.7295 -119 -101.729 -119c-78 0 -87.9297 93 -135.93 93c-22 0 -41.3701 -24 -46.9902 -64h-43z" />
    <glyph glyph-name="ograve" unicode="&#xf2;" horiz-adv-x="585" 
d="M364.68 510c169 0 231.04 -78 205.46 -260s-109.54 -260 -278.54 -260c-170 0 -232.04 78 -206.46 260s109.54 260 279.54 260zM165.14 250c-19.1104 -136 20.8799 -193 135.88 -193c114 0 170.01 57 189.12 193c19.25 137 -19.8799 193 -134.88 193
c-116 0 -170.87 -56 -190.12 -193zM418.3 550h-69l-104.92 150h84z" />
    <glyph glyph-name="oacute" unicode="&#xf3;" horiz-adv-x="585" 
d="M364.68 510c169 0 231.04 -78 205.46 -260s-109.54 -260 -278.54 -260c-170 0 -232.04 78 -206.46 260s109.54 260 279.54 260zM165.14 250c-19.1104 -136 20.8799 -193 135.88 -193c114 0 170.01 57 189.12 193c19.25 137 -19.8799 193 -134.88 193
c-116 0 -170.87 -56 -190.12 -193zM321.3 550l132.08 150h84l-147.08 -150h-69z" />
    <glyph glyph-name="ocircumflex" unicode="&#xf4;" horiz-adv-x="585" 
d="M364.68 510c169 0 231.04 -78 205.46 -260s-109.54 -260 -278.54 -260c-170 0 -232.04 78 -206.46 260s109.54 260 279.54 260zM165.14 250c-19.1104 -136 20.8799 -193 135.88 -193c114 0 170.01 57 189.12 193c19.25 137 -19.8799 193 -134.88 193
c-116 0 -170.87 -56 -190.12 -193zM502.3 550h-56l-61.3799 104l-91.6201 -104h-56l113.08 150h81z" />
    <glyph glyph-name="otilde" unicode="&#xf5;" horiz-adv-x="585" 
d="M364.68 510c169 0 231.04 -78 205.46 -260s-109.54 -260 -278.54 -260c-170 0 -232.04 78 -206.46 260s109.54 260 279.54 260zM165.14 250c-19.1104 -136 20.8799 -193 135.88 -193c114 0 170.01 57 189.12 193c19.25 137 -19.8799 193 -134.88 193
c-116 0 -170.87 -56 -190.12 -193zM215.819 575c9.83984 70 54.5898 118 101.59 118c78 0 87.9297 -93 135.93 -93c22 0 41.3701 24 47.1299 65h43c-9.83984 -70 -53.7295 -119 -101.729 -119c-78 0 -87.9297 93 -135.93 93c-22 0 -41.3701 -24 -46.9902 -64h-43z" />
    <glyph glyph-name="odieresis" unicode="&#xf6;" horiz-adv-x="585" 
d="M364.68 510c169 0 231.04 -78 205.46 -260s-109.54 -260 -278.54 -260c-170 0 -232.04 78 -206.46 260s109.54 260 279.54 260zM165.14 250c-19.1104 -136 20.8799 -193 135.88 -193c114 0 170.01 57 189.12 193c19.25 137 -19.8799 193 -134.88 193
c-116 0 -170.87 -56 -190.12 -193zM300.56 687c39 0 53.4707 -18 47.8506 -58s-25.1504 -58 -64.1504 -58c-40 0 -54.4697 18 -48.8496 58c5.75977 41 25.1494 58 65.1494 58zM477.561 687c40 0 54.4707 -18 48.8506 -58s-25.1504 -58 -65.1504 -58
c-39 0 -53.4697 18 -47.8496 58c5.75977 41 25.1494 58 64.1494 58z" />
    <glyph glyph-name="divide" unicode="&#xf7;" horiz-adv-x="620" 
d="M258.73 55c4.78027 34 31.29 59 67.29 59c35 0 55.4902 -25 50.71 -59s-32.29 -59 -67.29 -59c-36 0 -55.4902 25 -50.71 59zM602.181 229h-520l9.41992 67h520zM316.911 469c4.78027 34 32.4307 60 67.4307 60s55.3496 -26 50.5693 -60s-32.29 -59 -67.29 -59
s-55.4902 25 -50.71 59z" />
    <glyph glyph-name="oslash" unicode="&#xf8;" horiz-adv-x="584" 
d="M363.14 510l0.0214844 0.000976562c23.8096 -0.0302734 45.3691 -2.02051 64.8193 -5.00098l31.1396 65h43l-35.4004 -74c89.7803 -30 120.82 -108 101.431 -246c-25.5801 -182 -109.54 -260 -278.54 -260c-24 0 -45.7197 2 -65.2998 5l-31.1396 -65h-43l35.4004 74
c-89.7803 30 -120.82 108 -101.431 246c25.5498 181.81 109.359 259.84 278.999 260zM353.271 443.001h-0.00976562l0.139648 1c-116 0 -170.87 -56 -190.12 -193c-13.6299 -97 2.36035 -154 53.8506 -179l178.72 368c-12.7197 2 -26.5801 3 -42.5801 3zM433.432 430.001
l-177.85 -369c12.7197 -2 27.5801 -3 43.5801 -3c114 0 170.01 57 189.12 193c13.7695 98 -2.2207 155 -54.8506 179z" />
    <glyph glyph-name="ugrave" unicode="&#xf9;" horiz-adv-x="575" 
d="M417.29 59c-38.6104 -47 -94.7002 -69 -171.7 -69c-131 0 -176.88 72 -153.27 240l37.9502 270h80l-37.9502 -270c-17.29 -123 12.6797 -173 101.68 -173c97 0 146.31 52 163.319 173l37.9502 270h80l-70.2695 -500h-65zM332.38 700l89.9199 -150h-69l-104.92 150h84z
" />
    <glyph glyph-name="uacute" unicode="&#xfa;" horiz-adv-x="575" 
d="M417.29 59c-38.6104 -47 -94.7002 -69 -171.7 -69c-131 0 -176.88 72 -153.27 240l37.9502 270h80l-37.9502 -270c-17.29 -123 12.6797 -173 101.68 -173c97 0 146.31 52 163.319 173l37.9502 270h80l-70.2695 -500h-65zM417.38 700h84l-148.08 -150h-69z" />
    <glyph glyph-name="ucircumflex" unicode="&#xfb;" horiz-adv-x="575" 
d="M417.29 59c-38.6104 -47 -94.7002 -69 -171.7 -69c-131 0 -176.88 72 -153.27 240l37.9502 270h80l-37.9502 -270c-17.29 -123 12.6797 -173 101.68 -173c97 0 146.31 52 163.319 173l37.9502 270h80l-70.2695 -500h-65zM415.38 700l70.9199 -150h-57l-61.3799 104
l-90.6201 -104h-56l113.08 150h81z" />
    <glyph glyph-name="udieresis" unicode="&#xfc;" horiz-adv-x="575" 
d="M417.29 59c-38.6104 -47 -94.7002 -69 -171.7 -69c-131 0 -176.88 72 -153.27 240l37.9502 270h80l-37.9502 -270c-17.29 -123 12.6797 -173 101.68 -173c97 0 146.31 52 163.319 173l37.9502 270h80l-70.2695 -500h-65zM286.55 687c39 0 53.4707 -18 47.8506 -58
s-25.1504 -58 -64.1504 -58s-54.4697 18 -48.8496 58c5.75977 41 25.1494 58 65.1494 58zM464.551 687c39 0 53.4707 -18 47.8506 -58s-25.1504 -58 -65.1504 -58c-39 0 -53.4697 18 -47.8496 58c5.75977 41 25.1494 58 65.1494 58z" />
    <glyph glyph-name="yacute" unicode="&#xfd;" horiz-adv-x="525" 
d="M246.84 6h0.0107422l2.83984 6l-149.42 488h78l119.19 -390l190.81 390h77l-259.08 -520c-55.7402 -112 -112.49 -160 -189.49 -160h-55l8.29004 59h52c46 0 83.3398 38 124.85 127zM298.301 550l132.08 150h84l-147.08 -150h-69z" />
    <glyph glyph-name="ydieresis" unicode="&#xff;" horiz-adv-x="525" 
d="M246.84 6h0.0107422l2.83984 6l-149.42 488h78l119.19 -390l190.81 390h77l-259.08 -520c-55.7402 -112 -112.49 -160 -189.49 -160h-55l8.29004 59h52c46 0 83.3398 38 124.85 127zM273.561 687c39 0 54.4707 -18 48.8506 -58s-26.1504 -58 -65.1504 -58
s-53.4697 18 -47.8496 58c5.75977 41 25.1494 58 64.1494 58zM451.562 687c39 0 53.4707 -18 47.8506 -58s-25.1504 -58 -64.1504 -58s-53.4697 18 -47.8496 58c5.75977 41 24.1494 58 64.1494 58z" />
    <glyph glyph-name="Amacron" unicode="&#x100;" horiz-adv-x="693" 
d="M561 0l-35.1104 170h-313l-83.8896 -170h-89l348.38 700h121l143.62 -700h-92zM432.85 618l-187.55 -381h266zM289.38 821h340l-7.58984 -54h-340z" />
    <glyph glyph-name="amacron" unicode="&#x101;" horiz-adv-x="545" 
d="M410.02 0l-1.70898 59c-37.6104 -47 -94.7002 -69 -175.7 -69c-129 0 -177.54 46 -162.36 154c16.7197 119 90.8896 170 248.89 170h120l3.65039 26c11.5195 82 -20.7002 116 -107.7 116c-89 0 -128.36 -31 -138.9 -106h-77c15.7402 112 83.4902 160 225.49 160
c140 0 194.41 -54 176.84 -179l-46.5195 -331h-64.9805zM431.561 260h-118.001c-103 0 -151.64 -33 -162.6 -111c-9.83984 -70 21.5098 -96 109.51 -96c95 0 147.9 42 161.811 141zM183.38 586l7.58984 54h340l-7.58984 -54h-340z" />
    <glyph glyph-name="Abreve" unicode="&#x102;" horiz-adv-x="693" 
d="M561 0l-35.1104 170h-313l-83.8896 -170h-89l348.38 700h121l143.62 -700h-92zM432.85 618l-187.55 -381h266zM624.27 870c-11.8096 -84 -63.8691 -120 -174.869 -120c-110 0 -151.94 36 -140.131 120h61c-7.30957 -52 18.6006 -74 85.6006 -74s99.0898 22 106.399 74h62
z" />
    <glyph glyph-name="abreve" unicode="&#x103;" horiz-adv-x="545" 
d="M410.02 0l-1.70898 59c-37.6104 -47 -94.7002 -69 -175.7 -69c-129 0 -177.54 46 -162.36 154c16.7197 119 90.8896 170 248.89 170h120l3.65039 26c11.5195 82 -20.7002 116 -107.7 116c-89 0 -128.36 -31 -138.9 -106h-77c15.7402 112 83.4902 160 225.49 160
c140 0 194.41 -54 176.84 -179l-46.5195 -331h-64.9805zM431.561 260h-118.001c-103 0 -151.64 -33 -162.6 -111c-9.83984 -70 21.5098 -96 109.51 -96c95 0 147.9 42 161.811 141zM469.399 700h57.999c-14.7598 -105 -68.0801 -150 -178.08 -150
c-111 0 -151.68 45 -136.92 150h58c-9.83984 -70 15.9404 -100 85.9404 -100c71 0 103.08 29 113.061 100z" />
    <glyph glyph-name="Aogonek" unicode="&#x104;" horiz-adv-x="700" 
d="M578 0h-16.9902l-35.1104 170h-313l-83.8896 -170h-89l348.38 700h121l143.62 -700h-29c-101.14 -65 -131.46 -174 -47.46 -174c33 0 61.5303 18 61.5303 18l-10.4004 -74s-32.8096 -20 -72.8096 -20c-125 0 -107.53 167 23.1299 250zM432.86 618l-187.55 -381h266z" />
    <glyph glyph-name="aogonek" unicode="&#x105;" horiz-adv-x="559" 
d="M410.28 2h0.0302734l0.860352 -1l-1.99023 57c-37.6104 -47 -94.7002 -69 -175.7 -69c-129 0 -177.54 46 -162.36 154c16.7197 119 90.8896 170 248.89 170h120l3.65039 26c11.5195 82 -20.7002 116 -107.7 116c-89 0 -128.36 -31 -138.9 -106h-77
c15.7402 112 83.4902 160 225.49 160c140 0 194.41 -54 176.84 -179l-46.5195 -331h-22c-101.14 -65 -131.46 -174 -47.46 -174c33 0 61.5303 18 61.5303 18l-10.4004 -74s-32.8096 -20 -72.8096 -20c-127 0 -108.97 171 25.5498 253zM431.57 260h-118.001
c-103 0 -151.64 -33 -162.6 -111c-9.83984 -70 21.5098 -96 109.51 -96c95 0 147.9 42 161.811 141z" />
    <glyph glyph-name="Cacute" unicode="&#x106;" horiz-adv-x="755" 
d="M639.18 229h87.9805c-73.4502 -174 -174.99 -249 -343.99 -249c-226 0 -310.4 111 -274 370s152 370 378 370c186 0 265.46 -75 274.01 -249h-88c-12.4297 125 -66.6797 173 -196.68 173c-163 0 -246.09 -86 -275.32 -294s28.6797 -294 192.68 -294
c118 0 186.75 48 245.32 173zM449.38 750l120.86 120h81l-131.86 -120h-70z" />
    <glyph glyph-name="cacute" unicode="&#x107;" 
d="M459.32 173h80.002c-34.9902 -128 -109.721 -183 -247.721 -183c-170 0 -232.04 78 -206.46 260s109.54 260 279.54 260c138 0 197.27 -55 196.279 -183h-80c-4.62012 81 -42.7002 116 -125.7 116c-114 0 -171.15 -58 -190.12 -193s21.8799 -193 135.88 -193
c83 0 129.92 35 158.3 116zM321.303 550l132.08 150h84l-147.08 -150h-69z" />
    <glyph glyph-name="Ccircumflex" unicode="&#x108;" horiz-adv-x="755" 
d="M639.18 229h87.9805c-73.4502 -174 -174.99 -249 -343.99 -249c-226 0 -310.4 111 -274 370s152 370 378 370c186 0 265.46 -75 274.01 -249h-88c-12.4297 125 -66.6797 173 -196.68 173c-163 0 -246.09 -86 -275.32 -294s28.6797 -294 192.68 -294
c118 0 186.75 48 245.32 173zM637.38 750h-62l-65.9004 79l-89.0996 -79h-61l115.86 120h80z" />
    <glyph glyph-name="ccircumflex" unicode="&#x109;" 
d="M459.32 173h80.002c-34.9902 -128 -109.721 -183 -247.721 -183c-170 0 -232.04 78 -206.46 260s109.54 260 279.54 260c138 0 197.27 -55 196.279 -183h-80c-4.62012 81 -42.7002 116 -125.7 116c-114 0 -171.15 -58 -190.12 -193s21.8799 -193 135.88 -193
c83 0 129.92 35 158.3 116zM502.303 550h-56l-61.3799 104l-91.6201 -104h-56l113.08 150h81z" />
    <glyph glyph-name="Cdotaccent" unicode="&#x10a;" horiz-adv-x="755" 
d="M639.18 229h87.9805c-73.4502 -174 -174.99 -249 -343.99 -249c-226 0 -310.4 111 -274 370s152 370 378 370c186 0 265.46 -75 274.01 -249h-88c-12.4297 125 -66.6797 173 -196.68 173c-163 0 -246.09 -86 -275.32 -294s28.6797 -294 192.68 -294
c118 0 186.75 48 245.32 173zM513 854c39 0 53.8896 -15 48.8301 -51s-24.3096 -52 -63.3096 -52s-54.75 16 -49.6904 52s24.1699 51 64.1699 51z" />
    <glyph glyph-name="cdotaccent" unicode="&#x10b;" 
d="M459.32 173h80.002c-34.9902 -128 -109.721 -183 -247.721 -183c-170 0 -232.04 78 -206.46 260s109.54 260 279.54 260c138 0 197.27 -55 196.279 -183h-80c-4.62012 81 -42.7002 116 -125.7 116c-114 0 -171.15 -58 -190.12 -193s21.8799 -193 135.88 -193
c83 0 129.92 35 158.3 116zM387.712 681c40 0 54.6094 -17 49.2695 -55c-5.48047 -39 -24.8701 -56 -64.8701 -56c-39 0 -53.6104 17 -48.1299 56s24.7305 55 63.7305 55z" />
    <glyph glyph-name="Ccaron" unicode="&#x10c;" horiz-adv-x="755" 
d="M639.18 229h87.9805c-73.4502 -174 -174.99 -249 -343.99 -249c-226 0 -310.4 111 -274 370s152 370 378 370c186 0 265.46 -75 274.01 -249h-88c-12.4297 125 -66.6797 173 -196.68 173c-163 0 -246.09 -86 -275.32 -294s28.6797 -294 192.68 -294
c118 0 186.75 48 245.32 173zM650.25 870l-115.86 -120h-80l-82.1396 120h62l65.9004 -79l88.0996 79h62z" />
    <glyph glyph-name="ccaron" unicode="&#x10d;" 
d="M459.32 173h80.002c-34.9902 -128 -109.721 -183 -247.721 -183c-170 0 -232.04 78 -206.46 260s109.54 260 279.54 260c138 0 197.27 -55 196.279 -183h-80c-4.62012 81 -42.7002 116 -125.7 116c-114 0 -171.15 -58 -190.12 -193s21.8799 -193 135.88 -193
c83 0 129.92 35 158.3 116zM523.393 700l-113.08 -150h-81l-70.9199 150h56l61.3799 -104l90.6201 104h57z" />
    <glyph glyph-name="Dcaron" unicode="&#x10e;" horiz-adv-x="723" 
d="M712.19 350c-34.4297 -245 -146.19 -350 -372.19 -350h-240l98.3799 700h240c226 0 308.24 -105 273.811 -350zM424.399 629h-148l-78.4199 -558h148c166 0 246.52 82 274.21 279c27.5498 196 -29.79 279 -195.79 279zM587.27 870l-114.86 -120h-81l-82.1396 120h62
l65.9004 -79l89.0996 79h61z" />
    <glyph glyph-name="dcaron" unicode="&#x10f;" horiz-adv-x="681" 
d="M261.6 -10c-150 0 -201.899 79 -176.319 261s100.54 260 250.54 260c81 0 133.77 -23 160.739 -73l36.96 263h80l-98.3799 -700h-65l-2.44043 68c-41.5898 -54 -102.1 -79 -186.1 -79zM291.16 58c106 0 160.15 58 179.12 193s-18.8799 193 -124.88 193
c-107 0 -161.15 -58 -180.12 -193s18.8799 -193 125.88 -193zM706.09 705c31 0 40.9102 -22 33.6006 -74c-9.28027 -66 -38.5 -96 -92.5 -96l5.05957 36c25 0 38.25 16 43.4502 53c-32 0 -44.4502 11 -41.0801 35c4.5 32 20.4697 46 51.4697 46z" />
    <glyph glyph-name="Dcroat" unicode="&#x110;" horiz-adv-x="753" 
d="M742.19 350c-34.4297 -245 -146.19 -350 -372.19 -350h-240l51.4404 366h-90l8.84961 63h90l38.0898 271h240c226 0 308.24 -105 273.811 -350zM454.399 629h-148l-28.1104 -200h187l-8.84961 -63h-187l-41.46 -295h148c166 0 246.52 82 274.21 279
c27.5498 196 -29.79 279 -195.79 279z" />
    <glyph glyph-name="dcroat" unicode="&#x111;" horiz-adv-x="635" 
d="M693.54 630l-6.31934 -45h-89l-82.0801 -584h-65l-2.44043 68c-41.5898 -54 -102.1 -79 -186.1 -79c-150 0 -203.04 78 -177.46 260s100.54 260 250.54 260c81 0 133.77 -23 160.739 -73l20.6602 147h-204l6.45996 46h204l9.83984 70h80l-9.83984 -70h90zM291.011 57
c106 0 160.15 58 179.12 193s-18.8799 193 -124.88 193c-107 0 -161.15 -58 -180.12 -193s18.8799 -193 125.88 -193z" />
    <glyph glyph-name="Emacron" unicode="&#x112;" horiz-adv-x="620" 
d="M658.4 629h-381.998l-32.04 -228h342l-9.98047 -71h-342l-36.4004 -259h382l-9.98047 -71h-470l98.3799 700h470zM280.383 821h340l-7.58984 -54h-340z" />
    <glyph glyph-name="emacron" unicode="&#x113;" 
d="M159.96 206c-6.17969 -108 30.9297 -157 129.93 -157c77 0 118.79 27 150.05 100h76c-39.5996 -111 -110.35 -159 -236.35 -159c-161 0 -220.04 78 -194.46 260s105.54 260 266.54 260c165 0 223.62 -81 196.92 -271l-4.63965 -33h-383.99zM346.389 451
c-106 0 -161.87 -56 -180.84 -191h306c19.25 137 -18.1602 191 -125.16 191zM200.948 640h340l-7.58984 -54h-340z" />
    <glyph glyph-name="Ebreve" unicode="&#x114;" horiz-adv-x="620" 
d="M658.4 629h-381.998l-32.04 -228h342l-9.98047 -71h-342l-36.4004 -259h382l-9.98047 -71h-470l98.3799 700h470zM615.272 870c-11.8096 -84 -64.8691 -120 -174.869 -120s-152.94 36 -141.131 120h62c-7.30957 -52 18.6006 -74 85.6006 -74s99.0898 22 106.399 74h62z
" />
    <glyph glyph-name="ebreve" unicode="&#x115;" 
d="M159.96 206c-6.17969 -108 30.9297 -157 129.93 -157c77 0 118.79 27 150.05 100h76c-39.5996 -111 -110.35 -159 -236.35 -159c-161 0 -220.04 78 -194.46 260s105.54 260 266.54 260c165 0 223.62 -81 196.92 -271l-4.63965 -33h-383.99zM346.389 451
c-106 0 -161.87 -56 -180.84 -191h306c19.25 137 -18.1602 191 -125.16 191zM537.379 700c-14.7598 -105 -68.0811 -150 -178.081 -150c-111 0 -151.68 45 -136.92 150h58c-9.83984 -70 15.9404 -100 85.9404 -100c71 0 103.08 29 113.061 100h58z" />
    <glyph glyph-name="Edotaccent" unicode="&#x116;" horiz-adv-x="620" 
d="M658.4 629h-381.998l-32.04 -228h342l-9.98047 -71h-342l-36.4004 -259h382l-9.98047 -71h-470l98.3799 700h470zM455.022 854c39 0 53.8896 -15 48.8301 -51s-24.3096 -52 -63.3096 -52s-53.75 16 -48.6904 52s23.1699 51 63.1699 51z" />
    <glyph glyph-name="edotaccent" unicode="&#x117;" 
d="M159.96 206c-6.17969 -108 30.9297 -157 129.93 -157c77 0 118.79 27 150.05 100h76c-39.5996 -111 -110.35 -159 -236.35 -159c-161 0 -220.04 78 -194.46 260s105.54 260 266.54 260c165 0 223.62 -81 196.92 -271l-4.63965 -33h-383.99zM346.389 451h-1
c-106 0 -160.87 -56 -179.84 -191h306c19.25 137 -18.1602 191 -125.16 191zM376.709 681c40 0 54.6094 -17 49.2695 -55c-5.48047 -39 -24.8701 -56 -64.8701 -56c-39 0 -53.6104 17 -48.1299 56s24.7305 55 63.7305 55z" />
    <glyph glyph-name="Eogonek" unicode="&#x118;" horiz-adv-x="623" 
d="M570 0h-33.9883c-100.14 -65 -131.46 -174 -46.46 -174c33 0 61.5303 18 61.5303 18l-10.4004 -74s-32.8096 -20 -72.8096 -20c-125 0 -108.53 167 23.1299 250h-391l98.3799 700h470l-9.98047 -71h-382l-32.04 -228h342l-9.98047 -71h-342l-36.4004 -259h382z" />
    <glyph glyph-name="eogonek" unicode="&#x119;" 
d="M349.44 -4l0.0185547 -0.00976562l0.139648 1c-96.1396 -65 -123.899 -170 -41.8994 -170c32 0 57.1104 15 61.3906 17l-10.4004 -74c-3.28027 -2 -32.8105 -20 -73.8105 -20c-119 0 -108.22 155 8.87012 241h-12c-163 0 -222.04 78 -196.46 260s105.54 260 266.54 260
c165 0 223.62 -81 196.92 -271l-4.63965 -33h-384c-6.17969 -108 30.9307 -157 129.931 -157c77 0 118.79 27 150.05 100h76c-31.5098 -88.9902 -83.3896 -137.99 -166.63 -153.99v0h-0.0195312zM348.55 451.99c-106 0 -161.87 -56 -180.84 -191h306
c19.25 137 -18.1602 191 -125.16 191z" />
    <glyph glyph-name="Ecaron" unicode="&#x11a;" horiz-adv-x="620" 
d="M658.4 629h-381.998l-32.04 -228h342l-9.98047 -71h-342l-36.4004 -259h382l-9.98047 -71h-470l98.3799 700h470zM592.272 870l-114.86 -120h-81l-82.1396 120h62l65.9004 -79l89.0996 79h61z" />
    <glyph glyph-name="ecaron" unicode="&#x11b;" 
d="M159.96 206c-6.17969 -108 30.9297 -157 129.93 -157c77 0 118.79 27 150.05 100h76c-39.5996 -111 -110.35 -159 -236.35 -159c-161 0 -220.04 78 -194.46 260s105.54 260 266.54 260c165 0 223.62 -81 196.92 -271l-4.63965 -33h-383.99zM471.549 260
c19.25 137 -19.1602 191 -126.16 191c-106 0 -160.87 -56 -179.84 -191h306zM512.389 700l-113.08 -150h-81l-70.9199 150h56l62.3799 -104l90.6201 104h56z" />
    <glyph glyph-name="Gbreve" unicode="&#x11e;" horiz-adv-x="765" 
d="M437.97 320l9.4209 67h312l-5.2002 -37c-36.4004 -259 -145 -370 -364 -370c-233 0 -317.4 111 -281 370s152 370 385 370c178 0 258.88 -72 268.27 -240h-84c-10.7002 116 -67.9502 164 -194.95 164c-171 0 -253.09 -86 -282.32 -294s29.6797 -294 199.68 -294
c161 0 238.82 77 265.101 264h-228zM672.271 870c-11.8096 -84 -63.8691 -120 -173.869 -120c-111 0 -152.94 36 -141.131 120h62c-7.30957 -52 18.6006 -74 85.6006 -74s99.0898 22 106.399 74h61z" />
    <glyph glyph-name="gbreve" unicode="&#x11f;" horiz-adv-x="595" 
d="M262.6 -10h-0.00976562c-150 0 -203.18 77 -177.6 259s100.68 261 250.68 261c85 0 138.35 -26 164.619 -81l19.9805 71h65l-63.2402 -450c-25.7197 -183 -106.54 -260 -268.54 -260c-130 0 -186.25 48 -190.65 159h77c5.74023 -73 39.9502 -100 117.95 -100
c110 0 163.73 55 182.421 188l3.65039 26c-41.0303 -50 -100.261 -73 -181.261 -73zM290.869 56c108 0 159.87 56 179.12 193s-16.8799 193 -124.88 193c-109 0 -160.87 -56 -180.12 -193c-19.1104 -136 16.8799 -193 125.88 -193zM557.379 700
c-14.7598 -105 -68.0811 -150 -179.081 -150c-110 0 -150.68 45 -135.92 150h57c-9.83984 -70 15.9404 -100 85.9404 -100c72 0 104.08 29 114.061 100h58z" />
    <glyph glyph-name="Gdotaccent" unicode="&#x120;" horiz-adv-x="765" 
d="M437.97 320l9.4209 67h312l-5.2002 -37c-36.4004 -259 -145 -370 -364 -370c-233 0 -317.4 111 -281 370s152 370 385 370c178 0 258.88 -72 268.27 -240h-84c-10.7002 116 -67.9502 164 -194.95 164c-171 0 -253.09 -86 -282.32 -294s29.6797 -294 199.68 -294
c161 0 238.82 77 265.101 264h-228zM513.021 854c39 0 53.8896 -15 48.8301 -51s-24.3096 -52 -63.3096 -52s-54.75 16 -49.6904 52s24.1699 51 64.1699 51z" />
    <glyph glyph-name="gdotaccent" unicode="&#x121;" horiz-adv-x="590" 
d="M262.6 -10h-0.00976562c-150 0 -203.18 77 -177.6 259s100.68 261 250.68 261c85 0 138.35 -26 164.619 -81l19.9805 71h65l-63.2402 -450c-25.7197 -183 -106.54 -260 -268.54 -260c-130 0 -186.25 48 -190.65 159h77c5.74023 -73 39.9502 -100 117.95 -100
c110 0 163.73 55 182.421 188l3.65039 26c-41.0303 -50 -100.261 -73 -181.261 -73zM290.869 56c108 0 159.87 56 179.12 193s-16.8799 193 -124.88 193c-109 0 -160.87 -56 -180.12 -193c-19.1104 -136 16.8799 -193 125.88 -193zM401.02 669c40 0 54.6104 -17 49.1299 -56
c-5.33984 -38 -24.7295 -55 -64.7295 -55c-39 0 -53.6104 17 -48.2705 55c5.48047 39 24.8701 56 63.8701 56z" />
    <glyph glyph-name="Gcedilla" unicode="&#x122;" horiz-adv-x="765" 
d="M437.97 320l9.4209 67h312l-5.2002 -37c-36.4004 -259 -146 -370 -364 -370c-233 0 -317.4 111 -281 370s152 370 385 370c178 0 258.88 -72 268.27 -240h-84c-10.7002 116 -68.9502 164 -194.95 164c-171 0 -253.09 -86 -282.32 -294s28.6797 -294 199.68 -294
c161 0 238.82 77 265.101 264h-228zM385.53 -46c31 0 41.9102 -22 34.6006 -74c-9.41992 -67 -37.5 -96 -93.5 -96l5.05957 36c26 0 39.25 16 44.4502 53c-32 0 -44.1699 13 -39.9502 43c3.79004 27 18.3398 38 49.3398 38z" />
    <glyph glyph-name="gcedilla" unicode="&#x123;" horiz-adv-x="595" 
d="M262.6 -10h-0.00976562c-150 0 -203.18 77 -177.6 259s100.68 261 250.68 261c85 0 138.35 -26 164.619 -81l19.9805 71h65l-63.2402 -450c-25.7197 -183 -106.54 -260 -268.54 -260c-130 0 -186.25 48 -190.65 159h77c5.74023 -73 39.9502 -100 117.95 -100
c110 0 163.73 55 182.421 188l3.65039 26c-41.0303 -50 -100.261 -73 -181.261 -73zM290.869 56c108 0 159.87 56 179.12 193s-16.8799 193 -124.88 193c-109 0 -160.87 -56 -180.12 -193c-19.1104 -136 16.8799 -193 125.88 -193zM368.139 556
c-31 0 -41.9092 22 -34.5996 74c9.41992 67 40.5 96 93.5 96l-5.05957 -36c-25 0 -38.25 -16 -43.4502 -53c30 0 44.5898 -10 40.2295 -41c-3.79004 -27 -16.6201 -40 -50.6201 -40z" />
    <glyph glyph-name="Itilde" unicode="&#x128;" horiz-adv-x="295" 
d="M202.38 700h88l-98.3799 -700h-88zM96.8096 760c9.83984 70 52.6201 104 99.6201 104c78 0 90.4404 -68 143.44 -68c22 0 41.3896 17 46.5898 54h38c-9.83984 -70 -51.6201 -104 -99.6201 -104c-77 0 -90.4404 68 -142.44 68c-23 0 -41.3896 -17 -46.5898 -54h-39z" />
    <glyph glyph-name="itilde" unicode="&#x129;" horiz-adv-x="235" 
d="M157 0h-80l70.2695 500h80zM40.8096 575c9.83984 70 53.5898 118 101.59 118c77 0 87.9297 -93 134.93 -93c23 0 42.3701 24 48.1299 65h43c-9.83984 -70 -54.7295 -119 -101.729 -119c-78 0 -88.9297 93 -135.93 93c-23 0 -42.3701 -24 -47.9902 -64h-42z" />
    <glyph glyph-name="Imacron" unicode="&#x12a;" horiz-adv-x="300" 
d="M204.38 700h88l-98.3799 -700h-88zM94.6797 816h340l-7.73047 -55h-340z" />
    <glyph glyph-name="imacron" unicode="&#x12b;" horiz-adv-x="240" 
d="M160 0h-80l70.2695 500h80zM39.9502 640h340l-7.58984 -54h-340z" />
    <glyph glyph-name="Iogonek" unicode="&#x12e;" horiz-adv-x="288" 
d="M190 0h-18.9902c-100.14 -65 -131.46 -174 -47.46 -174c33 0 62.5303 18 62.5303 18l-10.4004 -74s-32.8096 -20 -72.8096 -20c-125 0 -108.53 167 23.1299 250h-24l98.3799 700h88z" />
    <glyph glyph-name="iogonek" unicode="&#x12f;" horiz-adv-x="238" 
d="M160 0h-18.9902c-100.14 -65 -131.46 -174 -47.46 -174c33 0 62.5303 18 62.5303 18l-10.4004 -74s-32.8096 -20 -72.8096 -20c-125 0 -108.53 167 23.1299 250h-16l70.2695 500h80zM219.37 707c39 0 53.6104 -17 48.1299 -56c-5.33984 -38 -24.7295 -55 -63.7295 -55
s-53.6104 17 -48.2705 55c5.48047 39 23.8701 56 63.8701 56z" />
    <glyph glyph-name="Idotaccent" unicode="&#x130;" horiz-adv-x="293" 
d="M200.38 700h88l-98.3799 -700h-88zM266.02 854c39 0 54.8896 -15 49.8301 -51s-25.3096 -52 -64.3096 -52s-53.75 16 -48.6904 52s23.1699 51 63.1699 51z" />
    <glyph glyph-name="dotlessi" unicode="&#x131;" horiz-adv-x="240" 
d="M160 0h-80l70.2695 500h80z" />
    <glyph glyph-name="IJ" unicode="&#x132;" horiz-adv-x="834" 
d="M198.38 700h88l-98.3799 -700h-88zM344.51 210l3.23047 23h84l-3.23047 -23c-15.46 -110 15.3604 -154 107.36 -154c91 0 134.18 44 149.64 154l68.8701 490h88l-68.8701 -490c-22.21 -158 -96.7695 -226 -247.77 -226c-149 0 -203.44 68 -181.23 226z" />
    <glyph glyph-name="ij" unicode="&#x133;" horiz-adv-x="476" 
d="M167 0h-81l70.2695 500h81zM206.12 -113c60.9902 0.00976562 91.4795 32.0098 98.0898 79l75.0498 534h81l-76.3096 -543c-11.6602 -83 -67.25 -137 -161.25 -137h-79l9.41992 67h52.9805h0.0195312zM225.339 707c40 0 54.6104 -17 49.1299 -56
c-5.33984 -38 -24.7295 -55 -64.7295 -55c-39 0 -53.6104 17 -48.2705 55c5.48047 39 24.8701 56 63.8701 56zM448.339 707c40 0 54.6104 -17 49.1299 -56c-5.33984 -38 -24.7295 -55 -64.7295 -55c-39 0 -53.6104 17 -48.2705 55c5.48047 39 24.8701 56 63.8701 56z" />
    <glyph glyph-name="Kcedilla" unicode="&#x136;" horiz-adv-x="654" 
d="M286.37 700l-43.0098 -306l340.01 306h109l-377.78 -340l299.41 -360h-109l-271.18 326l-45.8203 -326h-88l98.3799 700h87.9902zM308.53 -46c31 0 41.9102 -22 34.6006 -74c-9.41992 -67 -39.5 -96 -93.5 -96l5.05957 36c25 0 38.25 16 43.4502 53
c-32 0 -44.4502 11 -41.0801 35c4.5 32 20.4697 46 51.4697 46z" />
    <glyph glyph-name="kcedilla" unicode="&#x137;" horiz-adv-x="533" 
d="M258.37 700l-58.3193 -415l255.22 215h98l-283.73 -240l233.46 -260h-98l-211.97 235l-33.0303 -235h-80l98.3799 700h79.9902zM254.531 -46c31 0 41.9102 -22 34.6006 -74c-9.41992 -67 -39.5 -96 -93.5 -96l5.05957 36c25 0 38.25 16 43.4502 53
c-32 0 -44.4502 11 -40.6602 38c4.08008 29 20.0498 43 51.0498 43z" />
    <glyph glyph-name="Lacute" unicode="&#x139;" horiz-adv-x="581" 
d="M541.68 76l-10.6797 -76h-430l98.3799 700h88l-87.7002 -624h342zM205.399 750l120.86 120h81l-132.86 -120h-69z" />
    <glyph glyph-name="lacute" unicode="&#x13a;" horiz-adv-x="246" 
d="M81 0l98.3799 700h81l-98.3799 -700h-81zM175.41 750l121.86 120h81l-132.86 -120h-70z" />
    <glyph glyph-name="Lcedilla" unicode="&#x13b;" horiz-adv-x="580" 
d="M540.68 76l-10.6797 -76h-430l98.3799 700h88l-87.7002 -624h342zM301.529 -46h0.989258c33 0 43.9102 -22 36.7402 -73c-9.55957 -68 -39.6396 -97 -93.6396 -97l5.05957 36c25 0 38.25 16 43.4502 53c-33 0 -44.4502 11 -40.5098 39c4.08008 29 18.9102 42 47.9004 42
h0.00976562z" />
    <glyph glyph-name="lcedilla" unicode="&#x13c;" horiz-adv-x="230" 
d="M74 0l98.3799 700h80l-98.3799 -700h-80zM105.54 -46h0.989258c33 0 43.9102 -22 36.7402 -73c-9.55957 -68 -39.6396 -97 -93.6396 -97l5.05957 36c25 0 38.25 16 43.4502 53c-33 0 -44.4502 11 -40.5098 39c4.08008 29 18.9102 42 47.9004 42h0.00976562z" />
    <glyph glyph-name="Lcaron" unicode="&#x13d;" horiz-adv-x="580" 
d="M540.68 76l-10.6797 -76h-430l98.3799 700h88l-87.7002 -624h342zM376.779 710h0.989258c33 0 43.9102 -22 36.7402 -73c-9.55957 -68 -39.6396 -97 -93.6396 -97l5.05957 36c25 0 38.25 16 43.4502 53c-33 0 -44.4502 11 -40.5098 39c4.08008 29 18.9102 42 47.9004 42
h0.00976562z" />
    <glyph glyph-name="lcaron" unicode="&#x13e;" horiz-adv-x="325" 
d="M80 0l98.3799 700h80l-98.3799 -700h-80zM346.78 710h0.989258c33 0 43.9102 -22 36.7402 -73c-9.55957 -68 -39.6396 -97 -93.6396 -97l5.05957 36c25 0 38.25 16 43.4502 53c-33 0 -44.4502 11 -40.5098 39c4.08008 29 18.9102 42 47.9004 42h0.00976562z" />
    <glyph glyph-name="Lslash" unicode="&#x141;" horiz-adv-x="596" 
d="M556.69 76l-10.6807 -76h-430l43.4297 309l-104.29 -59l9.7002 69l104.29 59l45.25 322h88l-37.5195 -267l266.22 151l-9.83984 -70l-266.22 -151l-40.3398 -287h342z" />
    <glyph glyph-name="lslash" unicode="&#x142;" horiz-adv-x="353" 
d="M83.5703 310l9.84082 70l104.43 60l36.54 260h80l-29.5098 -210l104.43 60l-8.7002 -69l-105.57 -61l-59.0303 -420h-80l52 370z" />
    <glyph glyph-name="Nacute" unicode="&#x143;" horiz-adv-x="753" 
d="M667.38 700h84l-98.3799 -700h-106l-281.35 581l-81.6504 -581h-84l98.3799 700h105l282.35 -581zM433.41 750l120.86 120h81l-132.86 -120h-69z" />
    <glyph glyph-name="nacute" unicode="&#x144;" horiz-adv-x="575" 
d="M217.98 441c38.6104 47 94.7002 69 171.7 69c131 0 176.88 -72 153.27 -240l-37.9502 -270h-80l37.9502 270c17.29 123 -12.6797 173 -101.68 173c-97 0 -146.31 -52 -163.319 -173l-37.9502 -270h-80l70.2695 500h65zM453.381 700h84l-147.08 -150h-69z" />
    <glyph glyph-name="Ncedilla" unicode="&#x145;" horiz-adv-x="753" 
d="M666.38 700h85l-98.3799 -700h-106l-281.35 581l-81.6504 -581h-84l98.3799 700h105l281.35 -581zM371.54 -46h0.989258c33 0 43.9102 -22 36.7402 -73c-9.55957 -68 -39.6396 -97 -93.6396 -97l5.05957 36c25 0 38.25 16 43.4502 53c-33 0 -44.4502 11 -40.5098 39
c4.08008 29 18.9102 42 47.9004 42h0.00976562z" />
    <glyph glyph-name="ncedilla" unicode="&#x146;" horiz-adv-x="575" 
d="M217.98 441c38.6104 47 94.7002 69 171.7 69c131 0 176.88 -72 153.27 -240l-37.9502 -270h-80l37.9502 270c17.29 123 -12.6797 173 -101.68 173c-97 0 -146.31 -52 -163.319 -173l-37.9502 -270h-80l70.2695 500h65zM285.54 -46h0.989258c33 0 43.9102 -22 36.7402 -73
c-9.55957 -68 -39.6396 -97 -93.6396 -97l5.05957 36c25 0 38.25 16 43.4502 53c-33 0 -44.4502 11 -40.5098 39c4.08008 29 18.9102 42 47.9004 42h0.00976562z" />
    <glyph glyph-name="Ncaron" unicode="&#x147;" horiz-adv-x="753" 
d="M667.38 700h84l-98.3799 -700h-106l-281.35 581l-81.6504 -581h-84l98.3799 700h105l282.35 -581zM633.27 870l-114.86 -120h-81l-81.1396 120h61l66.9004 -79l88.0996 79h61z" />
    <glyph glyph-name="ncaron" unicode="&#x148;" horiz-adv-x="575" 
d="M217.98 441c38.6104 47 94.7002 69 171.7 69c131 0 176.88 -72 153.27 -240l-37.9502 -270h-80l37.9502 270c17.29 123 -12.6797 173 -101.68 173c-97 0 -146.31 -52 -163.319 -173l-37.9502 -270h-80l70.2695 500h65zM410.301 550h-81l-70.9199 150h56l62.3799 -104
l90.6201 104h56z" />
    <glyph glyph-name="Omacron" unicode="&#x14c;" horiz-adv-x="785" 
d="M494.19 720c233 0 316.4 -111 280 -370s-151 -370 -384 -370s-317.4 111 -281 370s152 370 385 370zM483.511 644c-170 0 -253.09 -86 -282.32 -294s29.6797 -294 199.68 -294s253.09 86 282.32 294s-29.6797 294 -199.68 294zM339.23 827h340l-7.58984 -54h-340z" />
    <glyph glyph-name="omacron" unicode="&#x14d;" horiz-adv-x="585" 
d="M364.68 510c169 0 231.04 -78 205.46 -260s-109.54 -260 -278.54 -260c-170 0 -232.04 78 -206.46 260s109.54 260 279.54 260zM165.14 250c-19.1104 -136 20.8799 -193 135.88 -193c114 0 170.01 57 189.12 193c19.25 137 -19.8799 193 -134.88 193
c-116 0 -170.87 -56 -190.12 -193zM210.12 627h340l-7.58984 -54h-340z" />
    <glyph glyph-name="Obreve" unicode="&#x14e;" horiz-adv-x="785" 
d="M494.19 720c233 0 316.4 -111 280 -370s-151 -370 -384 -370s-317.4 111 -281 370s152 370 385 370zM483.511 644c-170 0 -253.09 -86 -282.32 -294s29.6797 -294 199.68 -294s253.09 86 282.32 294s-29.6797 294 -199.68 294zM672.271 870
c-11.8096 -84 -63.8691 -120 -173.869 -120c-111 0 -152.94 36 -141.131 120h62c-7.30957 -52 18.6006 -74 85.6006 -74s99.0898 22 106.399 74h61z" />
    <glyph glyph-name="obreve" unicode="&#x14f;" horiz-adv-x="585" 
d="M364.68 510c169 0 231.04 -78 205.46 -260s-109.54 -260 -278.54 -260c-170 0 -232.04 78 -206.46 260s109.54 260 279.54 260zM165.14 250c-19.1104 -136 20.8799 -193 135.88 -193c114 0 170.01 57 189.12 193c19.25 137 -19.8799 193 -134.88 193
c-116 0 -170.87 -56 -190.12 -193zM548.38 700c-14.7598 -105 -68.0801 -150 -178.08 -150c-111 0 -151.68 45 -136.92 150h58c-9.98047 -71 14.9395 -100 85.9395 -100s103.08 29 113.061 100h58z" />
    <glyph glyph-name="Ohungarumlaut" unicode="&#x150;" horiz-adv-x="785" 
d="M494.19 720c233 0 316.4 -111 280 -370s-151 -370 -384 -370s-317.4 111 -281 370s152 370 385 370zM483.511 644c-170 0 -253.09 -86 -282.32 -294s29.6797 -294 199.68 -294s253.09 86 282.32 294s-29.6797 294 -199.68 294zM380.411 750l123.08 150h80l-138.08 -150
h-65zM542.411 750l122.08 150h80l-138.08 -150h-64z" />
    <glyph glyph-name="ohungarumlaut" unicode="&#x151;" horiz-adv-x="585" 
d="M364.68 510c169 0 231.04 -78 205.46 -260s-109.54 -260 -278.54 -260c-170 0 -232.04 78 -206.46 260s109.54 260 279.54 260zM165.14 250c-19.1104 -136 20.8799 -193 135.88 -193c114 0 170.01 57 189.12 193c19.25 137 -19.8799 193 -134.88 193
c-116 0 -170.87 -56 -190.12 -193zM252.3 550l123.08 150h79l-138.08 -150h-64zM413.3 550l123.08 150h80l-138.08 -150h-65z" />
    <glyph glyph-name="OE" unicode="&#x152;" horiz-adv-x="1147" 
d="M1184.4 629h0.0117188l0.860352 -1h-374l-32.04 -228h334l-9.98047 -71h-334l-36.4004 -259h374l-9.98047 -71h-455l16.5801 118c-52.0898 -86 -129.13 -129 -238.11 -136c-21.1396 -1 -42.2793 -2 -64.1396 -1c-207.74 9 -282 121 -247.15 369
c36.4004 259 150 370 377 370c129 0 205.96 -43 236.61 -138l16.7197 119h455zM483.522 644c-170 0 -253.09 -86 -282.32 -294s29.6797 -294 199.68 -294s253.09 86 282.32 294s-29.6797 294 -199.68 294z" />
    <glyph glyph-name="oe" unicode="&#x153;" horiz-adv-x="964" 
d="M557.96 206l-1.2793 -2c-5.62988 -97 24.9404 -157 130.08 -156c75 0 120.22 30 150.06 100h77c-38.6201 -104 -119.351 -159 -235.351 -159c-90 0 -147.64 31 -175.21 91c-42.8496 -63 -109.79 -91 -211.79 -91c-170 0 -232.04 78 -206.46 260s109.54 260 279.54 260
c102 0 161.06 -28 186.35 -90c44.4297 60 110.79 91 201.79 91c153 0 220.07 -92 194.91 -271l-4.63965 -33h-385zM166.141 250c-19.1104 -136 20.8799 -193 135.88 -193c114 0 170.01 57 189.12 193c19.25 137 -19.8799 193 -134.88 193c-116 0 -170.87 -56 -190.12 -193z
M743.11 449c-114 0 -161.979 -71 -180.84 -191h306c18.5498 132 -21.1602 191 -125.16 191z" />
    <glyph glyph-name="Racute" unicode="&#x154;" horiz-adv-x="703" 
d="M549 0h-0.00976562l-107.62 266h-216l-37.5195 -267h-88l98.3799 700h299c171 0 230.34 -83 211.229 -219c-15.5996 -111 -71.4395 -181 -180.67 -204l115.21 -276h-94zM234.93 334h207.001c111 0 164.89 49 178.659 147c14.0498 100 -25.2002 148 -137.2 148h-207z
M389.251 749l120.86 120h81l-132.86 -120h-69z" />
    <glyph glyph-name="racute" unicode="&#x155;" horiz-adv-x="384" 
d="M346.99 434c-96.9902 0 -132.74 -48 -151.851 -184l-35.1396 -250h-80l70.2695 500h65l3.57031 -60c32.46 46 77.8301 70 138.83 70h55l-10.6797 -76h-54.9902h-0.00976562zM226.3 550l132.08 150h84l-147.08 -150h-69z" />
    <glyph glyph-name="Rcedilla" unicode="&#x156;" horiz-adv-x="703" 
d="M549 0h-0.00976562l-107.62 266h-216l-37.5195 -267h-88l98.3799 700h299c171 0 230.34 -83 211.229 -219c-15.5996 -111 -71.4395 -181 -180.67 -204l115.21 -276h-94zM234.93 334h207.001c111 0 164.89 49 178.659 147c14.0498 100 -25.2002 148 -137.2 148h-207z
M341.521 -46h0.989258c33 0 43.9102 -22 36.7402 -73c-9.55957 -68 -39.6396 -97 -93.6396 -97l5.05957 36c25 0 38.25 16 43.4502 53c-33 0 -44.4502 11 -40.5098 39c4.08008 29 18.9102 42 47.9004 42h0.00976562z" />
    <glyph glyph-name="rcedilla" unicode="&#x157;" horiz-adv-x="384" 
d="M349.99 434c-96.9902 0 -132.74 -48 -151.851 -184l-35.1396 -250h-80l70.2695 500h65l3.57031 -60c32.46 46 77.8301 70 138.83 70h55l-10.6797 -76h-54.9902h-0.00976562zM115.54 -46h0.989258c33 0 43.9102 -22 36.7402 -73c-9.55957 -68 -39.6396 -97 -93.6396 -97
l5.05957 36c25 0 38.25 16 43.4502 53c-33 0 -44.4502 11 -40.5098 39c4.08008 29 18.9102 42 47.9004 42h0.00976562z" />
    <glyph glyph-name="Rcaron" unicode="&#x158;" horiz-adv-x="703" 
d="M550.01 0l-111.04 263h-214l-37.0996 -264h-88l98.3799 700h299c175 0 227.38 -104 211.22 -219c-12.79 -91 -68.8799 -177 -183.96 -206l118.49 -274h-92.9902zM234.95 334h211c116 0 164.54 75 174.66 147c11.0996 79 -17.2002 148 -133.2 148h-211zM590.141 869
l-115.86 -120h-80l-82.1396 120h61l66.9004 -79l88.0996 79h62z" />
    <glyph glyph-name="rcaron" unicode="&#x159;" horiz-adv-x="396" 
d="M361.99 434c-96.9902 0 -132.74 -48 -151.851 -184l-35.1396 -250h-80l70.2695 500h65l3.57031 -60c32.46 46 77.8301 70 138.83 70h55l-10.6797 -76h-54.9902h-0.00976562zM443.38 700l-113.08 -150h-80l-71.9199 150h57l61.3799 -104l90.6201 104h56z" />
    <glyph glyph-name="Sacute" unicode="&#x15a;" horiz-adv-x="645" 
d="M227.08 520h-0.0107422c-25.1602 -179 422.14 -63 385.04 -327c-20.9404 -149 -107.931 -213 -291.931 -213s-253.72 66 -232.08 220h81c-15.3203 -109 30.5 -153 160.5 -153c128 0 183.48 39 196.69 133c27.6904 197 -420.17 77 -385.03 327
c20.9404 149 105.931 213 282.931 213s242.72 -66 221.08 -220h-80c15.1797 108 -28.5 153 -150.5 153c-121 0 -174.34 -38 -187.689 -133zM379.389 750l120.86 120h81l-131.86 -120h-70z" />
    <glyph glyph-name="sacute" unicode="&#x15b;" horiz-adv-x="501" 
d="M185.7 375h0.0117188c-18.4102 -131 313.5 -32 285.39 -232c-15.04 -107 -82.5 -153 -225.5 -153c-138 0 -190.25 48 -174.51 160h77c-10.54 -75 20.0996 -106 107.1 -106s125.65 26 134.641 90c19.96 142 -309.521 39 -282.261 233c14.0498 100 78.0898 143 213.09 143
c132 0 182.68 -45 167.92 -150h-73c9.55957 68 -20.5 96 -102.5 96c-83 0 -119.23 -23 -127.381 -81zM277.302 550l132.08 150h84l-147.08 -150h-69z" />
    <glyph glyph-name="Scircumflex" unicode="&#x15c;" horiz-adv-x="645" 
d="M227.08 520h-0.0107422c-25.1602 -179 422.14 -63 385.04 -327c-20.9404 -149 -107.931 -213 -291.931 -213s-253.72 66 -232.08 220h81c-15.3203 -109 30.5 -153 160.5 -153c128 0 183.48 39 196.69 133c27.6904 197 -420.17 77 -385.03 327
c20.9404 149 105.931 213 282.931 213s242.72 -66 221.08 -220h-80c15.1797 108 -28.5 153 -150.5 153c-121 0 -174.34 -38 -187.689 -133zM567.389 750h-62l-65.9004 79l-89.0996 -79h-61l115.86 120h80z" />
    <glyph glyph-name="scircumflex" unicode="&#x15d;" horiz-adv-x="501" 
d="M185.7 375h0.0117188c-18.4102 -131 313.5 -32 285.39 -232c-15.04 -107 -82.5 -153 -225.5 -153c-138 0 -190.25 48 -174.51 160h77c-10.54 -75 20.0996 -106 107.1 -106s125.65 26 134.641 90c19.96 142 -309.521 39 -282.261 233c14.0498 100 78.0898 143 213.09 143
c132 0 182.68 -45 167.92 -150h-73c9.55957 68 -20.5 96 -102.5 96c-83 0 -119.23 -23 -127.381 -81zM458.302 550h-56l-61.3799 104l-90.6201 -104h-57l114.08 150h80z" />
    <glyph glyph-name="Scedilla" unicode="&#x15e;" horiz-adv-x="645" 
d="M255.77 -87l30.418 67c-158.88 8 -218.46 75 -198.22 219h81c-15.3203 -109 30.5 -153 160.5 -153c128 0 183.48 39 196.69 133c27.6904 197 -420.17 77 -385.03 327c20.9404 149 105.931 213 282.931 213s242.72 -66 221.08 -220h-80c15.1797 108 -28.5 153 -150.5 153
c-121 0 -174.34 -38 -187.689 -133c-25.1602 -179 422.14 -63 385.04 -327c-20.3799 -145 -103.8 -212 -277.8 -212l-14.3604 -31s101.17 -13 90.4902 -89c-9.83984 -70 -83.46 -110 -212.46 -110l5.75977 41c90 0 139.09 22 145.7 69c6.04004 43 -60.5498 53 -93.5498 53z
" />
    <glyph glyph-name="scedilla" unicode="&#x15f;" horiz-adv-x="501" 
d="M215.59 -10h0.0205078c-115.02 7 -159.13 56 -144.51 160h77c-10.54 -75 20.0996 -106 107.1 -106s125.65 26 134.641 90c19.96 142 -309.521 39 -282.261 233c14.0498 100 78.0898 143 213.09 143c132 0 182.68 -45 167.92 -150h-73c9.55957 68 -20.5 96 -102.5 96
c-83 0 -119.23 -23 -127.381 -81c-18.4102 -131 313.5 -32 285.39 -232c-14.3398 -102 -76.9502 -149 -207.51 -153l-18.7598 -41s101.17 -13 90.4902 -89c-9.83984 -70 -83.46 -110 -212.46 -110l5.75977 41c90 0 139.09 22 145.7 69c6.04004 43 -60.5498 53 -93.5498 53z
" />
    <glyph glyph-name="Scaron" unicode="&#x160;" horiz-adv-x="645" 
d="M227.08 520h-0.0107422c-25.1602 -179 422.14 -63 385.04 -327c-20.9404 -149 -107.931 -213 -291.931 -213s-253.72 66 -232.08 220h81c-15.3203 -109 30.5 -153 160.5 -153c128 0 183.48 39 196.69 133c27.6904 197 -420.17 77 -385.03 327
c20.9404 149 105.931 213 282.931 213s242.72 -66 221.08 -220h-80c15.1797 108 -28.5 153 -150.5 153c-121 0 -174.34 -38 -187.689 -133zM580.259 870l-115.86 -120h-80l-82.1396 120h62l65.9004 -79l88.0996 79h62z" />
    <glyph glyph-name="scaron" unicode="&#x161;" horiz-adv-x="501" 
d="M185.7 375h0.0117188c-18.4102 -131 313.5 -32 285.39 -232c-15.04 -107 -82.5 -153 -225.5 -153c-138 0 -190.25 48 -174.51 160h77c-10.54 -75 20.0996 -106 107.1 -106s125.65 26 134.641 90c19.96 142 -309.521 39 -282.261 233c14.0498 100 78.0898 143 213.09 143
c132 0 182.68 -45 167.92 -150h-73c9.55957 68 -20.5 96 -102.5 96c-83 0 -119.23 -23 -127.381 -81zM479.393 700l-113.08 -150h-80l-71.9199 150h56l62.3799 -104l90.6201 104h56z" />
    <glyph glyph-name="Tcedilla" unicode="&#x162;" horiz-adv-x="625" 
d="M286 0h-17.001l87.7002 624h-219l10.6797 76h525l-10.6797 -76h-218l-87.7002 -624h-24l-23.1699 -51s101.17 -13 90.4902 -89c-9.83984 -70 -82.46 -110 -212.46 -110l5.75977 41c90 0 139.09 22 145.7 69c6.04004 43 -59.5498 53 -93.5498 53z" />
    <glyph glyph-name="tcedilla" unicode="&#x163;" horiz-adv-x="403" 
d="M223.84 6h-0.990234c-58.75 16 -83 64 -73.5801 131l42.7197 304h-80l8.29004 59h80l16.7197 119h81l-16.7197 -119h152l-8.29004 -59h-152l-41.46 -295c-6.61035 -47 14.8896 -79 75.8896 -79h65l-9.41992 -67h-91h-3l-24.1699 -51s101.17 -13 90.4902 -89
c-9.83984 -70 -83.46 -110 -212.46 -110l5.75977 41c90 0 139.09 22 145.7 69c6.04004 43 -59.5498 53 -93.5498 53z" />
    <glyph glyph-name="Tcaron" unicode="&#x164;" horiz-adv-x="625" 
d="M673.38 700l-10.6797 -76h-218l-87.7002 -624h-88l87.7002 624h-219l10.6797 76h525zM570.27 870l-115.86 -120h-80l-82.1396 120h62l65.9004 -79l88.0996 79h62z" />
    <glyph glyph-name="tcaron" unicode="&#x165;" horiz-adv-x="403" 
d="M231.52 146h0.0205078c-6.61035 -47 14.8896 -79 75.8896 -79h65l-9.41992 -67h-91c-94 0 -134.41 54 -122.75 137l42.7197 304h-80l8.29004 59h80l16.7197 119h81l-16.7197 -119h152l-8.29004 -59h-152zM389.95 711h0.989258c33 0 43.9102 -22 36.7402 -73
c-9.55957 -68 -39.6396 -97 -93.6396 -97l5.05957 36c25 0 38.25 16 43.4502 53c-33 0 -44.4502 11 -40.5098 39c4.08008 29 18.9102 42 47.9004 42h0.00976562z" />
    <glyph glyph-name="Utilde" unicode="&#x168;" horiz-adv-x="725" 
d="M125.69 254l62.6797 446h88l-62.6797 -446c-19.6797 -140 26.1699 -198 157.17 -198c130 0 192.15 58 211.83 198l62.6797 446h88l-62.6797 -446c-26.9805 -192 -120.5 -274 -310.5 -274c-191 0 -261.48 82 -234.5 274zM311.801 760c9.83984 70 52.6201 104 99.6201 104
c78 0 90.4404 -68 143.44 -68c22 0 40.3896 17 45.5898 54h39c-9.83984 -70 -51.6201 -104 -99.6201 -104c-78 0 -90.4404 68 -142.44 68c-23 0 -41.3896 -17 -46.5898 -54h-39z" />
    <glyph glyph-name="utilde" unicode="&#x169;" horiz-adv-x="575" 
d="M417.29 59c-38.6104 -47 -94.7002 -69 -171.7 -69c-131 0 -176.88 72 -153.27 240l37.9502 270h80l-37.9502 -270c-17.29 -123 12.6797 -173 101.68 -173c97 0 146.31 52 163.319 173l37.9502 270h80l-70.2695 -500h-65zM209.32 600c9.83984 70 54.7295 119 101.729 119
c78 0 87.9297 -93 135.93 -93c22 0 41.2305 23 46.9902 64h43c-9.83984 -70 -53.7295 -119 -101.729 -119c-78 0 -87.9297 93 -135.93 93c-22 0 -41.2305 -23 -46.9902 -64h-43z" />
    <glyph glyph-name="Umacron" unicode="&#x16a;" horiz-adv-x="725" 
d="M125.69 254l62.6797 446h88l-62.6797 -446c-19.6797 -140 26.1699 -198 157.17 -198c130 0 192.15 58 211.83 198l62.6797 446h88l-62.6797 -446c-26.9805 -192 -120.5 -274 -310.5 -274c-191 0 -261.48 82 -234.5 274zM307.381 821h340l-7.58984 -54h-340z" />
    <glyph glyph-name="umacron" unicode="&#x16b;" horiz-adv-x="575" 
d="M417.29 59c-38.6104 -47 -94.7002 -69 -171.7 -69c-131 0 -176.88 72 -153.27 240l37.9502 270h80l-37.9502 -270c-17.29 -123 12.6797 -173 101.68 -173c97 0 146.31 52 163.319 173l37.9502 270h80l-70.2695 -500h-65zM194.36 586l7.58984 54h340l-7.58984 -54h-340z
" />
    <glyph glyph-name="Ubreve" unicode="&#x16c;" horiz-adv-x="725" 
d="M125.69 254l62.6797 446h88l-62.6797 -446c-19.6797 -140 26.1699 -198 157.17 -198c130 0 192.15 58 211.83 198l62.6797 446h88l-62.6797 -446c-26.9805 -192 -120.5 -274 -310.5 -274c-191 0 -261.48 82 -234.5 274zM642.261 870
c-11.8096 -84 -63.8691 -120 -173.869 -120c-111 0 -152.94 36 -141.131 120h62c-7.30957 -52 18.6006 -74 85.6006 -74s99.0898 22 106.399 74h61z" />
    <glyph glyph-name="ubreve" unicode="&#x16d;" horiz-adv-x="575" 
d="M417.29 59c-38.6104 -47 -94.7002 -69 -171.7 -69c-131 0 -176.88 72 -153.27 240l37.9502 270h80l-37.9502 -270c-17.29 -123 12.6797 -173 101.68 -173c97 0 146.31 52 163.319 173l37.9502 270h80l-70.2695 -500h-65zM470.38 700h58
c-14.7598 -105 -68.0801 -150 -178.08 -150c-111 0 -151.68 45 -136.92 150h58c-9.98047 -71 14.9395 -100 85.9395 -100s103.08 29 113.061 100z" />
    <glyph glyph-name="Uring" unicode="&#x16e;" horiz-adv-x="725" 
d="M125.69 254l62.6797 446h88l-62.6797 -446c-19.6797 -140 26.1699 -198 157.17 -198c130 0 192.15 58 211.83 198l62.6797 446h88l-62.6797 -446c-26.9805 -192 -120.5 -274 -310.5 -274c-191 0 -261.48 82 -234.5 274zM487.65 887c77 0 106.92 -29 97.2197 -98
s-47.9199 -99 -125.92 -99c-77 0 -106.78 30 -97.0801 99s47.7803 98 125.78 98zM465.73 731c47 0 66.25 16 72.1504 58c5.75977 41 -8.99023 57 -55.9902 57c-48 0 -67.25 -16 -73.0098 -57c-5.90039 -42 8.84961 -58 56.8496 -58z" />
    <glyph glyph-name="uring" unicode="&#x16f;" horiz-adv-x="575" 
d="M417.29 59c-38.6104 -47 -94.7002 -69 -171.7 -69c-131 0 -176.88 72 -153.27 240l37.9502 270h80l-37.9502 -270c-17.29 -123 12.6797 -173 101.68 -173c97 0 146.31 52 163.319 173l37.9502 270h80l-70.2695 -500h-65zM372.86 739c78 0 106.78 -30 97.0801 -99
s-46.9199 -99 -124.92 -99s-107.78 30 -98.0801 99s47.9199 99 125.92 99zM350.94 583c47 0 67.25 16 73.0098 57s-9.99023 57 -56.9902 57s-67.25 -16 -73.0098 -57s9.99023 -57 56.9902 -57z" />
    <glyph glyph-name="Uhungarumlaut" unicode="&#x170;" horiz-adv-x="725" 
d="M125.69 254l62.6797 446h88l-62.6797 -446c-19.6797 -140 26.1699 -198 157.17 -198c130 0 192.15 58 211.83 198l62.6797 446h88l-62.6797 -446c-26.9805 -192 -120.5 -274 -310.5 -274c-191 0 -261.48 82 -234.5 274zM350.4 750l123.08 150h79l-138.08 -150h-64z
M511.4 750l123.08 150h80l-138.08 -150h-65z" />
    <glyph glyph-name="uhungarumlaut" unicode="&#x171;" horiz-adv-x="575" 
d="M417.29 59c-38.6104 -47 -94.7002 -69 -171.7 -69c-131 0 -176.88 72 -153.27 240l37.9502 270h80l-37.9502 -270c-17.29 -123 12.6797 -173 101.68 -173c97 0 146.31 52 163.319 173l37.9502 270h80l-70.2695 -500h-65zM351.38 700h80l-138.08 -150h-65zM512.38 700h80
l-138.08 -150h-64z" />
    <glyph glyph-name="Uogonek" unicode="&#x172;" horiz-adv-x="725" 
d="M670.69 254c-21.2197 -151 -84.8818 -234 -202.962 -263c-90.1396 -65 -115.189 -165 -35.1895 -165c33 0 62.5303 18 62.5303 18l-10.4004 -74s-33.8096 -20 -73.8096 -20c-117 0 -109.62 145 -1.38965 232c-16.1396 -1 -32.2793 -2 -49.2793 -2
c-191 0 -261.48 82 -234.5 274l62.6797 446h88l-62.6797 -446c-19.6797 -140 26.1699 -198 157.17 -198c130 0 192.15 58 211.83 198l62.6797 446h88z" />
    <glyph glyph-name="uogonek" unicode="&#x173;" horiz-adv-x="589" 
d="M424.42 -1h-4.55957l-2.70996 59c-38.6104 -47 -94.7002 -69 -171.7 -69c-131 0 -176.88 72 -153.27 240l37.9502 270h80l-37.9502 -270c-17.29 -123 12.6797 -173 101.68 -173c97 0 146.31 52 163.319 173l37.9502 270h80l-69.0098 -491h-1l-1.12012 -8h-12
c-101.14 -65 -131.46 -174 -47.46 -174c33 0 61.5303 18 61.5303 18l-10.4004 -74s-32.8096 -20 -72.8096 -20c-124.5 0 -108.66 165.67 21.5596 249z" />
    <glyph glyph-name="Wcircumflex" unicode="&#x174;" horiz-adv-x="1012" 
d="M551.38 700h106l62.1504 -618l252.85 618h88l-293.38 -700h-113l-65.1504 618l-230.85 -618h-113l-96.6201 700h88l79.1504 -618zM748.41 750h-61l-66.9004 79l-88.0996 -79h-62l115.86 120h80z" />
    <glyph glyph-name="wcircumflex" unicode="&#x175;" horiz-adv-x="849" 
d="M645 0h-97l-61.2998 439l-184.7 -439h-97l-94.7305 500h81l74.0098 -434l182.99 434h97l57.0098 -434l195.99 434h81zM637.3 550h-57l-61.3799 104l-90.6201 -104h-56l113.08 150h80z" />
    <glyph glyph-name="Ycircumflex" unicode="&#x176;" horiz-adv-x="649" 
d="M408.77 283h-1l-39.7695 -283h-84l39.7695 283l-185.39 417h98l141.78 -336l236.22 336h93zM566.399 750h-62l-65.9004 79l-89.0996 -79h-61l115.86 120h80z" />
    <glyph glyph-name="ycircumflex" unicode="&#x177;" horiz-adv-x="525" 
d="M246.84 6h0.0107422l2.83984 6l-149.42 488h78l119.19 -390l190.81 390h77l-259.08 -520c-55.7402 -112 -112.49 -160 -189.49 -160h-55l8.29004 59h52c46 0 83.3398 38 124.85 127zM476.301 550h-57l-61.3799 104l-90.6201 -104h-57l114.08 150h80z" />
    <glyph glyph-name="Ydieresis" unicode="&#x178;" horiz-adv-x="649" 
d="M408.77 283h-1l-39.7695 -283h-84l39.7695 283l-185.39 417h98l141.78 -336l236.22 336h93zM347.609 844c39 0 54.8896 -15 49.8301 -51s-25.3096 -52 -64.3096 -52s-53.75 16 -48.6904 52s24.1699 51 63.1699 51zM532.609 844c40 0 54.8896 -15 49.8301 -51
s-24.3096 -52 -64.3096 -52c-39 0 -53.75 16 -48.6904 52s24.1699 51 63.1699 51z" />
    <glyph glyph-name="Zacute" unicode="&#x179;" horiz-adv-x="630" 
d="M164.98 71h425l-9.98047 -71h-530l8.15039 58l494.25 571h-404l9.98047 71h510l-8.15039 -58zM367.41 750l120.86 120h81l-131.86 -120h-70z" />
    <glyph glyph-name="zacute" unicode="&#x17a;" horiz-adv-x="491" 
d="M146.85 63h313l-8.84961 -63h-411l7.03027 50l357.39 387h-293l8.84961 63h391l-7.03027 -50zM274.29 550l132.08 150h84l-147.08 -150h-69z" />
    <glyph glyph-name="Zdotaccent" unicode="&#x17b;" horiz-adv-x="630" 
d="M164.98 71h425l-9.98047 -71h-530l8.15039 58l494.25 571h-404l9.98047 71h510l-8.15039 -58zM435.021 854c39 0 53.8896 -15 48.8301 -51s-24.3096 -52 -63.3096 -52c-40 0 -54.75 16 -49.6904 52s24.1699 51 64.1699 51z" />
    <glyph glyph-name="zdotaccent" unicode="&#x17c;" horiz-adv-x="491" 
d="M146.85 63h313l-8.84961 -63h-411l7.03027 50l357.39 387h-293l8.84961 63h391l-7.03027 -50zM340.699 681c40 0 54.6094 -17 49.2695 -55c-5.48047 -39 -24.8701 -56 -64.8701 -56c-39 0 -53.6104 17 -48.1299 56s24.7305 55 63.7305 55z" />
    <glyph glyph-name="Zcaron" unicode="&#x17d;" horiz-adv-x="630" 
d="M164.98 71h425l-9.98047 -71h-530l8.15039 58l494.25 571h-404l9.98047 71h510l-8.15039 -58zM572.271 870l-115.86 -120h-80l-82.1396 120h62l65.9004 -79l88.0996 79h62z" />
    <glyph glyph-name="zcaron" unicode="&#x17e;" horiz-adv-x="491" 
d="M146.85 63h313l-8.84961 -63h-411l7.03027 50l357.39 387h-293l8.84961 63h391l-7.03027 -50zM476.369 700l-113.08 -150h-81l-70.9199 150h56l62.3799 -104l90.6201 104h56z" />
    <glyph glyph-name="Aacutering" unicode="&#x1fa;" horiz-adv-x="693" 
d="M40 0l349.38 700h119l144.62 -700h-92l-33.1104 170h-317l-81.8896 -170h-89zM243.31 237h271l-78.7803 400zM598.909 960l-78.2598 -73c37.4502 -11 57.6602 -38 52.04 -78c-7.73047 -55 -55.9502 -85 -122.95 -85c-68 0 -107.78 30 -100.05 85
c7.58984 54 55.8096 84 123.81 84h3l64.4199 67h57.9902zM453.939 761c42 0 70.25 16 74.75 48c4.36035 31 -19.3896 47 -61.3896 47c-43 0 -71.25 -16 -75.6104 -47c-4.5 -32 19.25 -48 62.25 -48z" />
    <glyph glyph-name="aacutering" unicode="&#x1fb;" horiz-adv-x="545" 
d="M410.02 0l-1.70898 59c-37.6104 -47 -94.7002 -69 -175.7 -69c-129 0 -177.54 46 -162.36 154c16.7197 119 90.8896 170 248.89 170h120l3.65039 26c11.5195 82 -20.7002 116 -107.7 116c-89 0 -128.36 -31 -138.9 -106h-77c15.7402 112 83.4902 160 225.49 160
c140 0 194.41 -54 176.84 -179l-46.5195 -331h-64.9805zM431.561 260h-118.001c-103 0 -151.64 -33 -162.6 -111c-9.83984 -70 21.5098 -96 109.51 -96c95 0 147.9 42 161.811 141zM455.189 791h65l-86.96 -78c31.0303 -14 44.0898 -42 38.3301 -83
c-8.70996 -62 -51.3496 -95 -125.21 -94c-73 0 -106.5 32 -97.79 94s51.21 94 125.21 94h14zM353.109 577c48 0 66.1104 15 71.4502 53s-9.5498 53 -56.5498 53c-48 0 -67.1104 -15 -72.4502 -53s9.5498 -53 57.5498 -53z" />
    <glyph glyph-name="AEacute" unicode="&#x1fc;" horiz-adv-x="933" 
d="M971.4 629h-339.998l-32.04 -228h300l-9.98047 -71h-300l-36.4004 -259h340l-9.98047 -71h-420l23.8896 170h-244l-112.89 -170h-90l470.38 700h471zM552.522 637l-265.22 -400h209zM597.402 750l120.86 120h81l-132.86 -120h-69z" />
    <glyph glyph-name="aeacute" unicode="&#x1fd;" horiz-adv-x="930" 
d="M504.97 206c-6.17969 -108 29.791 -158 128.791 -158c78 0 118.79 27 150.05 100h77c-39.5996 -111 -110.35 -159 -235.35 -159c-103 0 -159.66 38 -176.851 122c-32.8096 -84 -101.01 -121 -216.01 -121c-129 0 -177.54 46 -162.36 154
c16.2998 116 87.8896 170 236.89 170h132l3.65039 26c10.96 78 -22.4004 111 -110.4 111s-125.94 -28 -136.2 -101h-77c15.7402 112 83.4902 160 225.49 160c94 0 145.06 -28 160.35 -90c41.71 62 104.65 90 193.65 90c163 0 221.62 -81 194.92 -271l-4.63965 -33h-383.98z
M431.561 260h-111.99c-109 0 -157.5 -32 -168.6 -111c-9.41992 -67 23.5 -96 109.5 -96c99 0 147.76 41 160.97 135zM816.431 259c19.25 137 -19.1602 191 -127.16 191c-105 0 -159.87 -56 -178.84 -191h306zM470.19 549l132.08 150h84l-147.08 -150h-69z" />
    <glyph glyph-name="Oslashacute" unicode="&#x1fe;" horiz-adv-x="785" 
d="M606.64 709h0.00878906l34.2598 73h58l-42.3701 -88c108.39 -47 143.93 -157 117.79 -343c-36.4004 -259 -151 -370 -384 -370c-28 0 -53.7197 2 -78.2998 5l-32.1396 -65h-58l36.6797 76c-132.52 39 -177.779 151 -149.249 354c36.4004 259 152 370 385 370
c42 0 79.4404 -4 112.32 -12zM570.108 634h0.00878906c-25.0195 7 -53.5996 10 -86.5996 10c-170 0 -253.09 -86 -282.32 -294c-22.0596 -157 6.57031 -245 94.9307 -278zM347.308 59c16.7197 -2 34.5811 -3 53.5811 -3c170 0 253.09 86 282.32 294
c19.3896 138 0.199219 222 -65.041 263zM437.698 752l120.86 120h81l-132.86 -120h-69z" />
    <glyph glyph-name="oslashacute" unicode="&#x1ff;" horiz-adv-x="584" 
d="M363.14 510l0.0214844 0.000976562c23.8096 -0.0302734 45.3691 -2.02051 64.8193 -5.00098l31.1396 65h43l-35.4004 -74c89.7803 -30 120.82 -108 101.431 -246c-25.5801 -182 -109.54 -260 -278.54 -260c-24 0 -45.7197 2 -65.2998 5l-31.1396 -65h-43l35.4004 74
c-89.7803 30 -120.82 108 -101.431 246c25.5498 181.81 109.359 259.84 278.999 260zM353.271 443.001h-0.00976562l0.139648 1c-116 0 -170.87 -56 -190.12 -193c-13.6299 -97 2.36035 -154 53.8506 -179l178.72 368c-12.7197 2 -26.5801 3 -42.5801 3zM433.432 430.001
l-177.85 -369c12.7197 -2 27.5801 -3 43.5801 -3c114 0 170.01 57 189.12 193c13.7695 98 -2.2207 155 -54.8506 179zM305.452 551.001l132.08 150h84l-147.08 -150h-69z" />
    <glyph glyph-name="Scommaaccent" unicode="&#x218;" horiz-adv-x="645" 
d="M227.08 520h-0.0107422c-25.1602 -179 422.14 -63 385.04 -327c-20.9404 -149 -107.931 -213 -291.931 -213s-253.72 66 -232.08 220h81c-15.3203 -109 30.5 -153 160.5 -153c128 0 183.48 39 196.69 133c27.6904 197 -420.17 77 -385.03 327
c20.9404 149 105.931 213 282.931 213s242.72 -66 221.08 -220h-80c15.1797 108 -28.5 153 -150.5 153c-121 0 -174.34 -38 -187.689 -133zM314.52 -46h0.989258c33 0 43.9102 -22 36.7402 -73c-9.55957 -68 -39.6396 -97 -93.6396 -97l5.05957 36c25 0 38.25 16 43.4502 53
c-33 0 -44.4502 11 -40.5098 39c4.08008 29 18.9102 42 47.9004 42h0.00976562z" />
    <glyph glyph-name="scommaaccent" unicode="&#x219;" horiz-adv-x="501" 
d="M185.7 375h0.0117188c-18.4102 -131 313.5 -32 285.39 -232c-15.04 -107 -82.5 -153 -226.5 -153c-137 0 -189.25 48 -173.51 160h76c-10.54 -75 20.0996 -106 108.1 -106c87 0 125.65 26 134.641 90c19.96 142 -309.521 39 -282.261 233
c14.0498 100 78.0898 143 213.09 143c132 0 181.68 -45 166.92 -150h-72c9.55957 68 -20.5 96 -102.5 96c-83 0 -119.23 -23 -127.381 -81zM241.542 -46h0.989258c33 0 43.9102 -22 36.7402 -73c-9.55957 -68 -39.6396 -97 -93.6396 -97l5.05957 36
c25 0 38.25 16 43.4502 53c-33 0 -44.4502 11 -40.5098 39c4.08008 29 18.9102 42 47.9004 42h0.00976562z" />
    <glyph glyph-name="uni021A" unicode="&#x21a;" horiz-adv-x="625" 
d="M673.38 700l-10.6797 -76h-218l-87.7002 -624h-88l87.7002 624h-219l10.6797 76h525zM305.54 -46h0.989258c33 0 43.9102 -22 36.7402 -73c-9.55957 -68 -39.6396 -97 -93.6396 -97l5.05957 36c25 0 38.25 16 43.4502 53c-33 0 -44.4502 11 -40.5098 39
c4.08008 29 18.9102 42 47.9004 42h0.00976562z" />
    <glyph glyph-name="uni021B" unicode="&#x21b;" horiz-adv-x="403" 
d="M231.52 146h0.0205078c-6.61035 -47 14.8896 -79 75.8896 -79h65l-9.41992 -67h-91c-94 0 -134.41 54 -122.75 137l42.7197 304h-80l8.29004 59h80l16.7197 119h81l-16.7197 -119h152l-8.29004 -59h-152zM218.561 -46h0.989258c33 0 43.9102 -22 36.7402 -73
c-9.55957 -68 -39.6396 -97 -93.6396 -97l5.05957 36c25 0 38.25 16 43.4502 53c-33 0 -44.4502 11 -40.5098 39c4.08008 29 18.9102 42 47.9004 42h0.00976562z" />
    <glyph glyph-name="circumflex" unicode="&#x2c6;" horiz-adv-x="365" 
d="M321.38 700l70.9199 -150h-56l-61.3799 104l-91.6201 -104h-56l113.08 150h81z" />
    <glyph glyph-name="caron" unicode="&#x2c7;" horiz-adv-x="365" 
d="M413.38 700l-113.08 -150h-81l-70.9199 150h56l62.3799 -104l90.6201 104h56z" />
    <glyph glyph-name="breve" unicode="&#x2d8;" horiz-adv-x="415" 
d="M405.38 700h0.0107422l-0.139648 -1h57c-14.7598 -105 -68.0801 -150 -179.08 -150c-110 0 -150.68 45 -135.92 150h58c-9.98047 -71 14.9395 -100 84.9395 -100c71.6699 0 104.77 28.7305 115.05 100h-1z" />
    <glyph glyph-name="dotaccent" unicode="&#x2d9;" horiz-adv-x="213" 
d="M207.33 721c39 0 54.6094 -17 49.2695 -55c-5.48047 -39 -25.8701 -56 -64.8701 -56s-53.6104 17 -48.1299 56s24.7305 55 63.7305 55z" />
    <glyph glyph-name="ring" unicode="&#x2da;" horiz-adv-x="323" 
d="M262.05 719c78 0 107.78 -30 98.0801 -99s-47.9199 -99 -125.92 -99s-106.78 30 -97.0801 99s46.9199 99 124.92 99zM240.13 563c48 0 67.25 16 73.0098 57s-9.99023 57 -56.9902 57s-67.25 -16 -73.0098 -57s9.99023 -57 56.9902 -57z" />
    <glyph glyph-name="ogonek" unicode="&#x2db;" horiz-adv-x="268" 
d="M150.26 9h46.9902c-112.85 -63 -150.71 -183 -62.71 -183c33 0 61.5303 18 61.5303 18l-10.4004 -74s-32.8096 -20 -72.8096 -20c-130 0 -107.7 180 37.3994 259z" />
    <glyph glyph-name="tilde" unicode="&#x2dc;" horiz-adv-x="415" 
d="M134.32 600c9.83984 70 53.7295 119 101.729 119c78 0 87.9297 -93 135.93 -93c22 0 41.2305 23 46.9902 64h43c-9.83984 -70 -54.7295 -119 -101.729 -119c-78 0 -87.9297 93 -135.93 93c-22 0 -41.2305 -23 -46.9902 -64h-43z" />
    <glyph glyph-name="hungarumlaut" unicode="&#x2dd;" horiz-adv-x="443" 
d="M127.3 550l123.08 150h79l-137.08 -150h-65zM288.3 550l123.08 150h80l-138.08 -150h-65z" />
    <glyph glyph-name="Wgrave" unicode="&#x1e80;" horiz-adv-x="1012" 
d="M551.38 700h106l62.1504 -618l252.85 618h88l-293.38 -700h-113l-65.1504 618l-230.85 -618h-113l-96.6201 700h88l79.1504 -618zM658.41 750h-66l-102.14 120h77z" />
    <glyph glyph-name="wgrave" unicode="&#x1e81;" horiz-adv-x="849" 
d="M645 0h-97l-61.2998 439l-184.7 -439h-97l-94.7305 500h81l74.0098 -434l182.99 434h97l57.0098 -434l195.99 434h81zM553.3 550h-69l-104.92 150h84z" />
    <glyph glyph-name="Wacute" unicode="&#x1e82;" horiz-adv-x="1012" 
d="M551.38 700h106l62.1504 -618l252.85 618h88l-293.38 -700h-113l-65.1504 618l-230.85 -618h-113l-96.6201 700h88l79.1504 -618zM560.41 750l121.86 120h81l-132.86 -120h-70z" />
    <glyph glyph-name="wacute" unicode="&#x1e83;" horiz-adv-x="849" 
d="M645 0h-97l-61.2998 439l-184.7 -439h-97l-94.7305 500h81l74.0098 -434l182.99 434h97l57.0098 -434l195.99 434h81zM452.3 550l132.08 150h84l-147.08 -150h-69z" />
    <glyph glyph-name="Wdieresis" unicode="&#x1e84;" horiz-adv-x="1013" 
d="M552.38 700h106l61.4297 -616l253.57 616h88l-293.38 -700h-113l-65.1504 618l-230.85 -618h-113l-97.6201 700h89l79.1504 -618zM530.62 844c39 0 54.8896 -15 49.8301 -51s-25.3096 -52 -64.3096 -52s-53.75 16 -48.6904 52s24.1699 51 63.1699 51zM715.62 844
c40 0 54.8896 -15 49.8301 -51s-24.3096 -52 -64.3096 -52c-39 0 -53.75 16 -48.6904 52s24.1699 51 63.1699 51z" />
    <glyph glyph-name="wdieresis" unicode="&#x1e85;" horiz-adv-x="850" 
d="M645 0h-97l-61.2998 439l-184.7 -439h-97l-94.7305 500h81l74.1504 -433l182.85 433h97l57.8604 -435l196.14 435h81zM428.55 687c40 0 54.4707 -18 48.8506 -58s-26.1504 -58 -65.1504 -58s-53.4697 18 -47.8496 58c5.75977 41 25.1494 58 64.1494 58zM606.551 687
c39 0 53.4707 -18 47.8506 -58s-25.1504 -58 -64.1504 -58s-53.4697 18 -47.8496 58c5.75977 41 25.1494 58 64.1494 58z" />
    <glyph glyph-name="uni1E9E" unicode="&#x1e9e;" horiz-adv-x="608" 
d="M400.71 720l0.0195312 -0.000976562c151.61 -0.129883 208.45 -57.1494 189.78 -189.999c-11.0996 -79 -69.5801 -118 -169.41 -131c124.89 -15 171.739 -73 154.589 -195c-20.0996 -143 -85.6699 -204 -217.67 -204c-37 0 -67.1602 6 -100.19 20l8.84961 63
s46.75 -16 82.75 -16c89 0 133.04 43 146.95 142c14.9004 106 -36.7793 151 -170.779 151l9.7002 69c120 0 170.22 30 181.46 110c10.54 75 -22.9795 114 -120.979 114c-108 0 -160.89 -49 -176.77 -162l-69.0098 -491h-80l70.2695 500
c20.7803 147.85 104.75 219.85 260.44 220z" />
    <glyph glyph-name="Ygrave" unicode="&#x1ef2;" horiz-adv-x="649" 
d="M408.77 283h-1l-39.7695 -283h-84l39.7695 283l-185.39 417h98l141.78 -336l236.22 336h93zM476.399 750h-66l-103.14 120h78z" />
    <glyph glyph-name="ygrave" unicode="&#x1ef3;" horiz-adv-x="525" 
d="M246.84 6h0.0107422l2.83984 6l-149.42 488h78l119.19 -390l190.81 390h77l-259.08 -520c-55.7402 -112 -112.49 -160 -189.49 -160h-55l8.29004 59h52c46 0 83.3398 38 124.85 127zM392.301 550h-69l-104.92 150h84z" />
    <glyph glyph-name="endash" unicode="&#x2013;" horiz-adv-x="620" 
d="M612.31 301l-9.41992 -67h-520l9.41992 67h520z" />
    <glyph glyph-name="emdash" unicode="&#x2014;" horiz-adv-x="840" 
d="M832.31 301l-9.41992 -67h-740l9.41992 67h740z" />
    <glyph glyph-name="quoteleft" unicode="&#x2018;" horiz-adv-x="212" 
d="M163.94 455h-0.00976562c-42 0 -55.7803 30 -45.9404 100c14.0498 100 51.3701 145 122.37 145l-6.32031 -45c-33 0 -50.5098 -25 -58.7998 -84c38 0 52.75 -16 49.4102 -54c-4.04004 -43 -22.71 -62 -60.71 -62z" />
    <glyph glyph-name="quoteright" unicode="&#x2019;" horiz-adv-x="212" 
d="M201.78 710h0.00976562c42 0 55.7803 -30 45.9404 -100c-14.0498 -100 -51.3701 -145 -122.37 -145l6.32031 45c33 0 50.5098 25 58.7998 84c-38 0 -52.75 16 -49.4102 54c4.04004 43 22.71 62 60.71 62z" />
    <glyph glyph-name="quotesinglbase" unicode="&#x201a;" horiz-adv-x="212" 
d="M116.89 106h0.00976562c42 0 55.7803 -30 45.9404 -100c-14.0498 -100 -51.3701 -145 -122.37 -145l6.32031 45c33 0 50.5098 25 58.7998 84c-38 0 -52.75 16 -49.4102 54c4.04004 43 22.71 62 60.71 62z" />
    <glyph glyph-name="quotedblleft" unicode="&#x201c;" horiz-adv-x="379" 
d="M163.94 455h-0.00976562c-42 0 -55.7803 30 -45.9404 100c14.0498 100 51.3701 145 122.37 145l-6.32031 -45c-33 0 -50.5098 -25 -58.7998 -84c38 0 52.75 -16 49.4102 -54c-4.04004 -43 -22.71 -62 -60.71 -62zM330.931 455h-0.00976562
c-42 0 -55.7803 30 -45.9404 100c14.0498 100 51.3701 145 122.37 145l-6.32031 -45c-33 0 -50.5098 -25 -58.7998 -84c38 0 52.75 -16 49.4102 -54c-4.04004 -43 -22.71 -62 -60.71 -62z" />
    <glyph glyph-name="quotedblright" unicode="&#x201d;" horiz-adv-x="382" 
d="M201.78 710h0.00976562c42 0 55.7803 -30 45.9404 -100c-14.0498 -100 -51.3701 -145 -122.37 -145l6.32031 45c33 0 50.5098 25 58.7998 84c-38 0 -52.75 16 -49.4102 54c4.04004 43 22.71 62 60.71 62zM371.79 710h0.00976562c42 0 55.7803 -30 45.9404 -100
c-14.0498 -100 -51.3701 -145 -122.37 -145l6.32031 45c33 0 50.5098 25 58.7998 84c-38 0 -52.75 16 -49.4102 54c4.04004 43 22.71 62 60.71 62z" />
    <glyph glyph-name="quotedblbase" unicode="&#x201e;" horiz-adv-x="379" 
d="M116.89 106h0.00976562c42 0 55.7803 -30 45.9404 -100c-14.0498 -100 -51.3701 -145 -122.37 -145l6.32031 45c33 0 50.5098 25 58.7998 84c-38 0 -52.75 16 -49.4102 54c4.04004 43 22.71 62 60.71 62zM283.899 106h0.00976562c42 0 55.7803 -30 45.9404 -100
c-14.0498 -100 -51.3701 -145 -122.37 -145l6.32031 45c33 0 50.5098 25 58.7998 84c-38 0 -52.75 16 -49.4102 54c4.04004 43 22.71 62 60.71 62z" />
    <glyph glyph-name="ellipsis" unicode="&#x2026;" horiz-adv-x="584" 
d="M121.6 111c40 0 54.6104 -17 48.8506 -58c-5.62012 -40 -26.0098 -57 -65.0098 -57s-53.6104 17 -47.9902 57c5.75977 41 25.1494 58 64.1494 58zM307.6 111c39 0 53.6104 -17 47.8506 -58c-5.62012 -40 -25.0098 -57 -64.0098 -57c-40 0 -54.6104 17 -48.9902 57
c5.75977 41 25.1494 58 65.1494 58zM492.6 111c39 0 54.6104 -17 48.8506 -58c-5.62012 -40 -26.0098 -57 -65.0098 -57s-53.6104 17 -47.9902 57c5.75977 41 25.1494 58 64.1494 58z" />
    <glyph glyph-name="perthousand" unicode="&#x2030;" horiz-adv-x="1246" 
d="M703.82 390c113 0 153.85 -58 134.739 -194s-76.4004 -195 -189.4 -195s-152.71 59 -133.6 195s75.2607 194 188.261 194zM656.88 56c71 0 105.62 40 119.67 140c13.9102 99 -9.33008 140 -80.3301 140s-105.76 -41 -119.67 -140
c-14.0498 -100 9.33008 -140 80.3301 -140zM1088.82 390c113 0 153.85 -58 134.739 -194s-76.4004 -195 -189.4 -195s-152.71 59 -133.6 195s75.2607 194 188.261 194zM1041.88 56c71 0 105.62 40 119.67 140c13.9102 99 -9.33008 140 -79.3301 140
c-72 0 -106.76 -41 -120.67 -140c-14.0498 -100 9.33008 -140 80.3301 -140zM310.79 710c113 0 153.85 -58 134.739 -194s-76.4004 -195 -189.4 -195c-112 0 -152.71 59 -133.6 195s76.2607 194 188.261 194zM263.85 376c72 0 105.62 40 119.67 140
c13.9102 99 -9.33008 140 -79.3301 140c-72 0 -105.76 -41 -119.67 -140c-14.0498 -100 8.33008 -140 79.3301 -140zM242.79 -30h-74l546.81 760h74z" />
    <glyph glyph-name="guilsinglleft" unicode="&#x2039;" horiz-adv-x="300" 
d="M235.24 450h78l-144.7 -190l89.8896 -200h-78l-93.8896 200z" />
    <glyph glyph-name="guilsinglright" unicode="&#x203a;" horiz-adv-x="300" 
d="M113.24 450h78l95.2998 -190l-150.11 -200h-78l146.11 200z" />
    <glyph glyph-name="lira" unicode="&#x20a4;" horiz-adv-x="667" 
d="M624.98 71l1.13965 1l-0.139648 -1l-9.83984 -70h-556l12.0898 86c90.5 32 120.82 77 132.63 161h-111l7.03027 50h111l10.6797 76h-111l7.03027 50h111l10.8203 77c21.5 153 93.7803 219 239.78 219c144 0 196.72 -66 175.22 -219h-76
c15.46 110 -15.9297 157 -103.93 157c-93 0 -139.61 -47 -155.07 -157l-10.8203 -77h276l-7.03027 -50h-276l-10.6797 -76h276l-7.03027 -50h-276c-12.5098 -89 -44.96 -142 -139.88 -177h480z" />
    <glyph glyph-name="Euro" unicode="&#x20ac;" horiz-adv-x="889" 
d="M774.73 240h87.9912c-63.5801 -182 -172.54 -260 -370.54 -260c-215 0 -311.91 86 -307.22 283h-98l7.03027 50h94c0.69043 12 2.38086 24 4.21094 37c2.11035 15 4.08008 29 7.0498 43h-94l7.03027 50h98c52.1201 193 172.93 277 385.93 277
c211 0 299.04 -78 297.46 -260h-88c-1.73047 130 -64.1406 184 -220.141 184c-152 0 -239.43 -60 -281.25 -201h319l-7.03027 -50h-325c-2.96973 -14 -5.08008 -29 -7.19043 -44c-1.69043 -12 -3.38086 -24 -4.07129 -36h285l-7.03027 -50h-281
c0.620117 -145 71.9102 -207 225.91 -207c148 0 224.45 53 271.86 184z" />
    <glyph glyph-name="trademark" unicode="&#x2122;" horiz-adv-x="1234" 
d="M592.38 700l-9.98047 -71h-184l-60.29 -429h-76l60.29 429h-184l9.98047 71h444zM619.11 200l70.2695 500h106l110.94 -406l225.06 406h101l-70.2695 -500h-76l55.3701 394l-221.37 -394h-58l-110.63 394l-55.3701 -394h-77z" />
    <glyph glyph-name="minus" unicode="&#x2212;" horiz-adv-x="430" 
d="M412.89 234h-330l9.41992 67h330z" />
    <glyph glyph-name="approxequal" unicode="&#x2248;" horiz-adv-x="700" 
d="M71.0801 150l9.41992 67c232.84 191 385.45 -196 599.86 -1l-9.28027 -66c-234.41 -195 -387.16 191 -600 0zM97.6396 339l9.2793 66c232.98 192 385.591 -195 600.001 0l-9.28027 -66c-234.55 -196 -387.16 191 -600 0z" />
    <glyph glyph-name="notequal" unicode="&#x2260;" horiz-adv-x="650" 
d="M204 0l69.6797 140h-204l9.41992 67h228l58.2998 116h-270l9.41992 67h294l54.46 110h51l-54.46 -110h205l-9.41992 -67h-229l-58.2998 -116h271l-9.41992 -67h-295l-69.6797 -140h-51z" />
    <glyph glyph-name="lessequal" unicode="&#x2264;" horiz-adv-x="500" 
d="M50 0l9.98047 71h400l-9.98047 -71h-400zM119.71 496h-0.00976562l428.67 204l-11.5195 -82l-352.61 -168l305.39 -168l-11.5195 -82l-371.33 204z" />
    <glyph glyph-name="greaterequal" unicode="&#x2265;" horiz-adv-x="500" 
d="M50 0l9.98047 71h400l-9.98047 -71h-400zM148.38 700h0.00976562l371.33 -204l-12.9297 -92l-428.67 -204l11.5195 82l352.61 168l-305.39 168z" />
    <glyph glyph-name="uniE132" unicode="&#xe132;" horiz-adv-x="470" 
d="M163 0h-81l70.2695 500h81zM204.12 -113c61.9902 0.00976562 92.4795 32.0098 99.0898 79l75.0498 534h80l-76.3096 -543c-11.6602 -83 -66.25 -137 -160.25 -137h-79l9.41992 67h51.9805h0.0195312zM147.279 550l132.08 150h84l-147.08 -150h-69zM372.279 550
l132.08 150h84l-147.08 -150h-69z" />
    <glyph glyph-name="uniE133" unicode="&#xe133;" horiz-adv-x="851" 
d="M202.38 700h88l-98.3799 -700h-88zM349.51 210l3.23047 23h84l-3.23047 -23c-15.46 -110 15.3604 -154 106.36 -154c92 0 135.18 44 150.64 154l68.8701 490h88l-68.8701 -490c-22.21 -158 -96.7695 -226 -248.77 -226c-149 0 -202.44 68 -180.23 226zM205.399 750
l120.86 120h81l-132.86 -120h-69zM761.399 750l120.86 120h81l-132.86 -120h-69z" />
    <glyph glyph-name="a.alt1" horiz-adv-x="594" 
d="M262.6 -10h-0.0117188c-150 0 -203.04 78 -177.46 260s100.54 260 250.54 260c82 0 134.63 -24 161.32 -76l22.2803 66h65l-70.2695 -500h-65l-3.71973 66c-41.3096 -52 -100.68 -76 -182.68 -76zM291.008 57c106 0 160.15 58 179.12 193s-18.8799 193 -124.88 193
c-107 0 -161.15 -58 -180.12 -193s18.8799 -193 125.88 -193z" />
    <glyph glyph-name="aacute.alt1" horiz-adv-x="594" 
d="M262.6 -10h-0.0117188c-150 0 -203.04 78 -177.46 260s100.54 260 250.54 260c82 0 134.63 -24 161.32 -76l22.2803 66h65l-70.2695 -500h-65l-3.71973 66c-41.3096 -52 -100.68 -76 -182.68 -76zM291.008 57c106 0 160.15 58 179.12 193s-18.8799 193 -124.88 193
c-107 0 -161.15 -58 -180.12 -193s18.8799 -193 125.88 -193zM455.378 700h84l-147.08 -150h-69z" />
    <glyph glyph-name="aacutering.alt1" horiz-adv-x="594" 
d="M262.6 -10h-0.0117188c-150 0 -203.04 78 -177.46 260s100.54 260 250.54 260c82 0 134.63 -24 161.32 -76l22.2803 66h65l-70.2695 -500h-65l-3.71973 66c-41.3096 -52 -100.68 -76 -182.68 -76zM291.008 57c106 0 160.15 58 179.12 193s-18.8799 193 -124.88 193
c-107 0 -161.15 -58 -180.12 -193s18.8799 -193 125.88 -193zM484.618 780h64l-86.96 -78c31.0303 -14 44.0898 -42 38.3301 -83c-8.70996 -62 -51.3496 -95 -125.35 -95c-73 0 -106.36 33 -97.6504 95c8.57031 61 51.21 94 125.21 94h15zM382.538 566
c48 0 65.9688 14 71.4492 53c5.2002 37 -9.68945 52 -56.6895 52c-48 0 -66.9697 -14 -72.3096 -52s9.5498 -53 57.5498 -53z" />
    <glyph glyph-name="abreve.alt1" horiz-adv-x="594" 
d="M262.6 -10h-0.0117188c-150 0 -203.04 78 -177.46 260s100.54 260 250.54 260c82 0 134.63 -24 161.32 -76l22.2803 66h65l-70.2695 -500h-65l-3.71973 66c-41.3096 -52 -100.68 -76 -182.68 -76zM291.008 57c106 0 160.15 58 179.12 193s-18.8799 193 -124.88 193
c-107 0 -161.15 -58 -180.12 -193s18.8799 -193 125.88 -193zM500.378 700h58c-14.7598 -105 -68.0801 -150 -178.08 -150c-111 0 -151.68 45 -136.92 150h58c-9.83984 -70 15.9404 -100 85.9404 -100c69 0 103.22 30 113.06 100z" />
    <glyph glyph-name="acircumflex.alt1" horiz-adv-x="594" 
d="M262.6 -10h-0.0117188c-150 0 -203.04 78 -177.46 260s100.54 260 250.54 260c82 0 134.63 -24 161.32 -76l22.2803 66h65l-70.2695 -500h-65l-3.71973 66c-41.3096 -52 -100.68 -76 -182.68 -76zM291.008 57c106 0 160.15 58 179.12 193s-18.8799 193 -124.88 193
c-107 0 -161.15 -58 -180.12 -193s18.8799 -193 125.88 -193zM441.378 700l70.9199 -150h-56l-61.3799 104l-91.6201 -104h-56l113.08 150h81z" />
    <glyph glyph-name="acute.case" horiz-adv-x="285" 
d="M127.3 550l120.86 120h81l-131.86 -120h-70z" />
    <glyph glyph-name="adieresis.alt1" horiz-adv-x="594" 
d="M262.6 -10h-0.0117188c-150 0 -203.04 78 -177.46 260s100.54 260 250.54 260c82 0 134.63 -24 161.32 -76l22.2803 66h65l-70.2695 -500h-65l-3.71973 66c-41.3096 -52 -100.68 -76 -182.68 -76zM291.008 57c106 0 160.15 58 179.12 193s-18.8799 193 -124.88 193
c-107 0 -161.15 -58 -180.12 -193s18.8799 -193 125.88 -193zM310.548 687c39 0 53.4707 -18 47.8506 -58s-25.1504 -58 -64.1504 -58c-40 0 -54.4697 18 -48.8496 58c5.75977 41 25.1494 58 65.1494 58zM487.549 687c40 0 54.4707 -18 48.8506 -58
s-25.1504 -58 -65.1504 -58c-39 0 -53.4697 18 -47.8496 58c5.75977 41 25.1494 58 64.1494 58z" />
    <glyph glyph-name="agrave.alt1" horiz-adv-x="594" 
d="M262.6 -10h-0.0117188c-150 0 -203.04 78 -177.46 260s100.54 260 250.54 260c82 0 134.63 -24 161.32 -76l22.2803 66h65l-70.2695 -500h-65l-3.71973 66c-41.3096 -52 -100.68 -76 -182.68 -76zM291.008 57c106 0 160.15 58 179.12 193s-18.8799 193 -124.88 193
c-107 0 -161.15 -58 -180.12 -193s18.8799 -193 125.88 -193zM327.378 700l89.9199 -150h-69l-104.92 150h84z" />
    <glyph glyph-name="amacron.alt1" horiz-adv-x="594" 
d="M262.6 -10h-0.0117188c-150 0 -203.04 78 -177.46 260s100.54 260 250.54 260c82 0 134.63 -24 161.32 -76l22.2803 66h65l-70.2695 -500h-65l-3.71973 66c-41.3096 -52 -100.68 -76 -182.68 -76zM291.008 57c106 0 160.15 58 179.12 193s-18.8799 193 -124.88 193
c-107 0 -161.15 -58 -180.12 -193s18.8799 -193 125.88 -193zM216.748 603l7.58984 54h340l-7.58984 -54h-340z" />
    <glyph glyph-name="aogonek.alt1" horiz-adv-x="603" 
d="M417.87 -250c-127.99 0.00976562 -108.401 175 30.9785 256l-3.57031 60c-41.3096 -52 -100.68 -76 -182.68 -76c-150 0 -203.04 78 -177.46 260s100.54 260 250.54 260c82 0 134.63 -24 161.32 -76l22.2803 66h65l-70.2695 -500h-27
c-101.14 -65 -131.46 -174 -47.46 -174c33 0 61.5303 18 61.5303 18l-10.4004 -74s-32.7998 -20 -72.7998 -20h-0.00976562zM290.169 58c106 0 160.15 58 179.12 193s-18.8799 193 -124.88 193c-107 0 -161.15 -58 -180.12 -193s18.8799 -193 125.88 -193z" />
    <glyph glyph-name="aring.alt1" horiz-adv-x="594" 
d="M262.6 -10h-0.0117188c-150 0 -203.04 78 -177.46 260s100.54 260 250.54 260c82 0 134.63 -24 161.32 -76l22.2803 66h65l-70.2695 -500h-65l-3.71973 66c-41.3096 -52 -100.68 -76 -182.68 -76zM291.008 57c106 0 160.15 58 179.12 193s-18.8799 193 -124.88 193
c-107 0 -161.15 -58 -180.12 -193s18.8799 -193 125.88 -193zM406.857 739c77 0 106.78 -30 97.0801 -99s-47.9199 -99 -125.92 -99c-77 0 -106.78 30 -97.0801 99s47.9199 99 125.92 99zM384.938 583c47 0 66.25 16 72.0098 57s-8.99023 57 -55.9902 57
c-48 0 -67.25 -16 -73.0098 -57s8.99023 -57 56.9902 -57z" />
    <glyph glyph-name="atilde.alt1" horiz-adv-x="594" 
d="M262.6 -10h-0.0117188c-150 0 -203.04 78 -177.46 260s100.54 260 250.54 260c82 0 134.63 -24 161.32 -76l22.2803 66h65l-70.2695 -500h-65l-3.71973 66c-41.3096 -52 -100.68 -76 -182.68 -76zM291.008 57c106 0 160.15 58 179.12 193s-18.8799 193 -124.88 193
c-107 0 -161.15 -58 -180.12 -193s18.8799 -193 125.88 -193zM225.808 575c9.83984 70 54.5898 118 101.59 118c78 0 87.9297 -93 135.93 -93c22 0 41.3701 24 47.1299 65h43c-9.83984 -70 -53.7295 -119 -101.729 -119c-78 0 -87.9297 93 -135.93 93
c-22 0 -41.3701 -24 -46.9902 -64h-43z" />
    <glyph glyph-name="breve.case" horiz-adv-x="415" 
d="M397.17 670h62c-11.8096 -84 -63.8691 -120 -174.869 -120c-110 0 -151.94 36 -140.131 120h61c-7.30957 -52 18.6006 -74 85.6006 -74s99.0898 22 106.399 74z" />
    <glyph glyph-name="caron.case" horiz-adv-x="378" 
d="M422.16 670l-115.86 -120h-80l-82.1396 120h61l66.9004 -79l88.0996 79h62z" />
    <glyph glyph-name="circumflex.case" horiz-adv-x="378" 
d="M323.16 670l82.1396 -120h-62l-65.9004 79l-89.0996 -79h-61l115.86 120h80z" />
    <glyph glyph-name="commaaccent" horiz-adv-x="190" 
d="M85.5303 -46h0.989258c33 0 43.9102 -22 36.7402 -73c-9.55957 -68 -39.6396 -97 -93.6396 -97l5.05957 36c25 0 38.25 16 43.4502 53c-33 0 -44.4502 11 -40.5098 39c4.08008 29 18.9102 42 47.9004 42h0.00976562z" />
    <glyph glyph-name="dieresis.case" horiz-adv-x="398" 
d="M205.65 709c39 0 54.75 -16 49.6904 -52s-25.1699 -51 -64.1699 -51s-53.8896 15 -48.8301 51s24.3096 52 63.3096 52zM390.65 709c40 0 54.75 -16 49.6904 -52s-24.1699 -51 -64.1699 -51c-39 0 -53.8896 15 -48.8301 51s24.3096 52 63.3096 52z" />
    <glyph glyph-name="dotaccent.case" horiz-adv-x="213" 
d="M198.62 659c39 0 54.75 -16 49.6904 -52s-25.1699 -51 -64.1699 -51s-53.8896 15 -48.8301 51s24.3096 52 63.3096 52z" />
    <glyph glyph-name="grave.case" horiz-adv-x="285" 
d="M221.16 670l91.1396 -120h-66l-102.14 120h77z" />
    <glyph glyph-name="hungarumlaut.case" horiz-adv-x="436" 
d="M127.3 550l116.86 120h78l-128.86 -120h-66zM285.3 550l117.86 120h77l-128.86 -120h-66z" />
    <glyph glyph-name="tilde.case" horiz-adv-x="415" 
d="M131.51 580c9.83984 70 51.6201 104 99.6201 104c78 0 90.4404 -68 142.44 -68c23 0 41.3896 17 46.5898 54h39c-9.83984 -70 -52.6201 -104 -99.6201 -104c-78 0 -90.4404 68 -143.44 68c-22 0 -40.3896 -17 -45.5898 -54h-39z" />
    </font>
</defs>
</svg>
