<?xml version="1.0" standalone="no"?>
<!DOCTYPE svg PUBLIC "-//W3C//DTD SVG 1.1//EN" "http://www.w3.org/Graphics/SVG/1.1/DTD/svg11.dtd" >
<svg xmlns="http://www.w3.org/2000/svg" xmlns:xlink="http://www.w3.org/1999/xlink" version="1.1">
<metadata>
Created by FontForge 20170924 at Fri Jun 30 20:03:06 2017
 By www-data
Copyright \(c\) 2017 by Alexander Slobzheninov. All rights reserved.
</metadata>
<defs>
<font id="FivoSans-Medium" horiz-adv-x="570" >
  <font-face 
    font-family="Fivo Sans"
    font-weight="450"
    font-stretch="normal"
    units-per-em="1000"
    panose-1="0 0 0 0 0 0 0 0 0 0"
    ascent="800"
    descent="-200"
    x-height="500"
    cap-height="700"
    bbox="-60 -251 1227 960"
    underline-thickness="50"
    underline-position="975"
    stemh="70"
    stemv="114"
    unicode-range="U+000D-E133"
  />
<missing-glyph horiz-adv-x="200" 
 />
    <glyph glyph-name=".notdef" horiz-adv-x="200" 
 />
    <glyph glyph-name="NULL" horiz-adv-x="783" 
d="M90 700h603v-700h-603v700zM197 599v-498h388v498h-388z" />
    <glyph glyph-name="NULL" horiz-adv-x="783" 
d="M90 700h603v-700h-603v700zM197 599v-498h388v498h-388z" />
    <glyph glyph-name="CR" unicode="&#xd;" horiz-adv-x="250" 
 />
    <glyph glyph-name="space" unicode=" " horiz-adv-x="300" 
 />
    <glyph glyph-name="exclam" unicode="!" horiz-adv-x="282" 
d="M140 131c50 0 72 -21 72 -71c0 -48 -22 -70 -72 -70c-49 0 -70 21 -70 70c0 50 21 71 70 71zM81 700h119v-190l-23 -258h-73l-23 258v190z" />
    <glyph glyph-name="quotedbl" unicode="&#x22;" horiz-adv-x="352" 
d="M142 700v-140l-12 -195h-78l-12 195v140h102zM312 700v-140l-11 -195h-79l-12 195v140h102z" />
    <glyph glyph-name="numbersign" unicode="#" horiz-adv-x="749" 
d="M390 0l28 193h-131l-28 -193h-84l28 193h-153v82h164l18 128h-153v82h164l31 215h84l-31 -215h131l31 215h85l-31 -215h156v-82h-167l-18 -128h156v-82h-167l-28 -193h-85zM448 403h-131l-18 -128h131z" />
    <glyph glyph-name="dollar" unicode="$" horiz-adv-x="650" 
d="M280 -100v81c-161 10 -230 77 -230 218h113c0 -94 47 -132 162 -132c111 0 155 33 155 112c0 178 -420 71 -420 321c0 140 66 207 220 217v83h90v-83c153 -10 220 -77 220 -218h-114c0 93 -44 132 -151 132c-104 0 -146 -32 -146 -112c0 -155 421 -55 421 -321
c0 -140 -70 -207 -230 -217v-81h-90z" />
    <glyph glyph-name="percent" unicode="%" horiz-adv-x="873" 
d="M207 710c118 0 168 -59 168 -196c0 -138 -50 -196 -168 -196c-117 0 -167 58 -167 196c0 137 50 196 167 196zM207 387c59 0 83 37 83 127c0 89 -24 126 -82 126c-60 0 -84 -37 -84 -126c0 -90 24 -127 83 -127zM268 -30h-103l440 760h103zM666 390
c117 0 167 -59 167 -196c0 -138 -50 -196 -167 -196s-168 58 -168 196c0 137 51 196 168 196zM666 67c59 0 83 37 83 127c0 89 -24 126 -83 126s-83 -37 -83 -126c0 -90 24 -127 83 -127z" />
    <glyph glyph-name="ampersand" unicode="&#x26;" horiz-adv-x="784" 
d="M764 0h-145l-74 69c-60 -56 -143 -89 -250 -89c-165 0 -245 71 -245 196c0 105 80 167 168 216c-40 45 -78 99 -78 153c0 130 83 175 205 175c136 0 195 -53 195 -152c0 -87 -81 -138 -167 -185l168 -165c19 39 31 84 37 131h90c-7 -74 -26 -142 -59 -199zM302 69
c62 0 128 24 174 66l-201 197c-62 -38 -110 -80 -110 -142c0 -81 61 -121 137 -121zM240 557c0 -40 36 -83 71 -118c72 37 131 71 131 121c0 58 -30 83 -99 83c-72 0 -103 -26 -103 -86z" />
    <glyph glyph-name="quotesingle" unicode="'" horiz-adv-x="182" 
d="M142 700v-140l-12 -195h-78l-12 195v140h102z" />
    <glyph glyph-name="parenleft" unicode="(" horiz-adv-x="290" 
d="M179 -200c-30 50 -129 210 -129 460s99 390 129 440h91c-30 -50 -124 -190 -124 -440s94 -410 124 -460h-91z" />
    <glyph glyph-name="parenright" unicode=")" horiz-adv-x="290" 
d="M111 -200h-91c30 50 124 210 124 460s-94 390 -124 440h91c30 -50 129 -190 129 -440s-99 -410 -129 -460z" />
    <glyph glyph-name="asterisk" unicode="*" horiz-adv-x="367" 
d="M156 400v60l6 40v11l-11 -6l-31 -25l-53 -30l-27 49l52 31l38 14l9 5l-10 6l-38 15l-51 30l27 49l52 -30l32 -25l11 -6v12l-6 40v60h55v-60l-6 -40v-12l11 6l32 26l52 29l27 -49l-52 -30l-37 -15l-10 -6l9 -5l38 -15l52 -30l-28 -49l-52 30l-31 25l-11 6v-11l6 -40v-60
h-55z" />
    <glyph glyph-name="plus" unicode="+" horiz-adv-x="600" 
d="M560 301v-88h-214v-213h-91v213h-215v88h215v199h91v-199h214z" />
    <glyph glyph-name="comma" unicode="," horiz-adv-x="221" 
d="M103.48 130c71.54 -0.269531 76.5195 -61.1201 76.5195 -116c0 -119 -40 -170 -131 -170v57c42 0 59 26 59 89c-47 0 -68 20 -68 68c0 45.8398 12.9102 71.8203 63.4805 72z" />
    <glyph glyph-name="hyphen" unicode="-" horiz-adv-x="410" 
d="M370 223h-330v88h330v-88z" />
    <glyph glyph-name="period" unicode="." horiz-adv-x="222" 
d="M110 131c50 0 72 -22 72 -71s-22 -70 -72 -70c-49 0 -70 21 -70 70c0 50 21 71 70 71z" />
    <glyph glyph-name="slash" unicode="/" horiz-adv-x="382" 
d="M260 700h102l-240 -700h-102z" />
    <glyph glyph-name="zero" unicode="0" horiz-adv-x="702" 
d="M351 720c210 0 301 -111 301 -370s-91 -370 -301 -370c-211 0 -301 111 -301 370c0 260 90 370 301 370zM351 68c127 0 181 84 181 282s-54 282 -181 282c-128 0 -182 -84 -182 -282s54 -282 182 -282z" />
    <glyph glyph-name="one" unicode="1" horiz-adv-x="364" 
d="M40 612v88h234v-700h-114v612h-120z" />
    <glyph glyph-name="two" unicode="2" horiz-adv-x="585" 
d="M204 88h331v-88h-495v72c210 186 391 279 391 426c0 95 -38 134 -133 134s-134 -48 -134 -162h-114c0 175 74 250 248 250c173 0 247 -67 247 -222c0 -157 -162 -253 -341 -410z" />
    <glyph glyph-name="three" unicode="3" horiz-adv-x="637" 
d="M303 323h-37v82h37c106 0 152 33 152 110c0 83 -41 117 -142 117c-100 0 -141 -44 -141 -152h-102c0 168 73 240 243 240c171 0 244 -60 244 -199c0 -150 -129 -151 -129 -151s159 -6 159 -171c0 -153 -82 -219 -274 -219c-191 0 -273 75 -273 250h108
c0 -114 48 -162 165 -162c114 0 160 39 160 131c0 86 -51 124 -170 124z" />
    <glyph glyph-name="four" unicode="4" horiz-adv-x="659" 
d="M389 700h130v-429h70v-88h-70v-183h-114v183h-365v104zM141 271h264v315z" />
    <glyph glyph-name="five" unicode="5" horiz-adv-x="626" 
d="M224 612v1l-28 -165c34 22 80 32 139 32c169 0 241 -75 241 -250s-82 -250 -275 -250c-165 0 -240 66 -251 220h102c10 -93 56 -132 155 -132c110 0 156 48 156 162s-45 162 -152 162c-86 0 -126 -27 -141 -94h-96l67 402h385v-88h-302z" />
    <glyph glyph-name="six" unicode="6" horiz-adv-x="637" 
d="M50 340c0 266 82 380 273 380c143 0 216 -60 244 -200h-108c-20 84 -59 118 -136 118c-115 0 -160 -77 -160 -264c0 0 10 106 194 106c154 0 230 -75 230 -248c0 -177 -79 -252 -264 -252c-205 0 -273 110 -273 360zM323 392c-105 0 -150 -49 -150 -162s45 -162 150 -162
c106 0 150 48 150 162s-44 162 -150 162z" />
    <glyph glyph-name="seven" unicode="7" horiz-adv-x="553" 
d="M513 628l-300 -628h-121l299 612h-351v88h473v-72z" />
    <glyph glyph-name="eight" unicode="8" horiz-adv-x="667" 
d="M79 521c0 139 77 199 254 199c178 0 254 -60 254 -199c0 -75 -27 -124 -86 -152c80 -29 116 -86 116 -177c0 -148 -85 -212 -284 -212c-198 0 -283 64 -283 212c0 91 36 148 115 177c-59 28 -86 77 -86 152zM332 68c120 0 170 39 170 128c0 91 -49 127 -170 127
c-120 0 -170 -37 -170 -127s50 -128 170 -128zM333 632c-103 0 -145 -34 -145 -114c0 -81 42 -113 145 -113s146 32 146 113c0 80 -42 114 -146 114z" />
    <glyph glyph-name="nine" unicode="9" horiz-adv-x="637" 
d="M587 360c0 -266 -82 -380 -274 -380c-142 0 -215 60 -243 200h108c20 -84 58 -118 135 -118c115 0 160 77 161 264c0 0 -10 -106 -194 -106c-155 0 -230 75 -230 248c0 177 79 252 263 252c205 0 274 -110 274 -360zM313 308c105 0 150 49 150 162s-45 162 -150 162
c-106 0 -150 -48 -150 -162s45 -162 150 -162z" />
    <glyph glyph-name="colon" unicode=":" horiz-adv-x="222" 
d="M111 131c50 0 71 -21 71 -71c0 -48 -21 -70 -71 -70s-71 21 -71 70c0 50 21 71 71 71zM111 504c50 0 71 -21 71 -71c0 -48 -21 -70 -71 -70s-71 21 -71 70c0 50 21 71 71 71z" />
    <glyph glyph-name="semicolon" unicode=";" horiz-adv-x="222" 
d="M111 504c50 0 71 -21 71 -71c0 -48 -21 -70 -71 -70s-71 21 -71 70c0 50 21 71 71 71zM104.52 131c71.5 -0.30957 76.4795 -62.1299 76.4795 -117c0 -119 -41 -170 -132 -170v57c41 0 59 26 59 89c-47 0 -68 20 -68 68c0 44.8398 19.8604 72.7998 64.5107 73h0.00976562z
" />
    <glyph glyph-name="less" unicode="&#x3c;" horiz-adv-x="480" 
d="M40 311l400 189v-108l-301 -142l301 -142v-108l-400 189v122z" />
    <glyph glyph-name="equal" unicode="=" horiz-adv-x="647" 
d="M607 215v-88h-567v88h567zM607 403v-88h-567v88h567z" />
    <glyph glyph-name="greater" unicode="&#x3e;" horiz-adv-x="480" 
d="M40 500l400 -189v-122l-400 -189v108l301 142l-301 142v108z" />
    <glyph glyph-name="question" unicode="?" horiz-adv-x="542" 
d="M262 131c49 0 71 -21 71 -71c0 -48 -22 -70 -71 -70c-50 0 -71 21 -71 70c0 50 21 71 71 71zM210 241c0 202 172 160 172 289c0 71 -35 102 -117 102s-118 -43 -118 -142h-107c0 161 69 230 231 230c161 0 231 -57 231 -190c0 -180 -196 -134 -196 -289h-96z" />
    <glyph glyph-name="at" unicode="@" horiz-adv-x="867" 
d="M626 460v-270c0 -70 14 -100 48 -100c41 0 58 48 58 160c0 227 -86 323 -289 323c-218 0 -309 -96 -309 -323c0 -219 80 -313 266 -313c85 0 134 30 161 49v-84c-23 -15 -78 -41 -160 -41c-246 -1 -351 117 -351 389c0 279 118 399 393 399c262 0 374 -120 374 -399
c0 -161 -47 -230 -143 -230c-64 0 -104 23 -124 74c-29 -37 -76 -54 -142 -54c-129 0 -185 63 -185 210c0 154 56 220 186 220c57 0 104 -21 136 -61l15 51h66zM428 110c76 0 109 41 109 140c0 102 -32 144 -109 144c-81 0 -114 -42 -114 -144c0 -100 33 -140 114 -140z" />
    <glyph glyph-name="A" unicode="A" horiz-adv-x="702" 
d="M540 0l-50 157h-282l-52 -157h-126l240 700h174l228 -700h-132zM351 590l-114 -345h225z" />
    <glyph glyph-name="B" unicode="B" horiz-adv-x="690" 
d="M505 370c0 0 135 -21 135 -168c0 -141 -78 -202 -259 -202h-291v700h285c164 0 235 -55 235 -182c0 -129 -105 -148 -105 -148zM363 88c103 0 146 34 146 114c0 85 -44 121 -146 121h-148v-235h148zM215 612v-207h142c85 0 122 32 122 106c0 71 -36 101 -122 101h-142z
" />
    <glyph glyph-name="C" unicode="C" horiz-adv-x="760" 
d="M585 232h125c-46 -176 -141 -252 -319 -252c-238 0 -341 111 -341 370s103 370 341 370c194 0 288 -76 319 -252h-125c-26 108 -81 151 -194 151c-147 0 -210 -79 -210 -269s63 -269 210 -269c106 0 161 43 194 151z" />
    <glyph glyph-name="D" unicode="D" horiz-adv-x="732" 
d="M682 350c0 -245 -101 -350 -336 -350h-256v700h256c235 0 336 -105 336 -350zM341 605h-126v-510h126c147 0 209 75 209 255s-62 255 -209 255z" />
    <glyph glyph-name="E" unicode="E" horiz-adv-x="616" 
d="M576 605h-361v-194h321v-94h-321v-222h361v-95h-486v700h486v-95z" />
    <glyph glyph-name="F" unicode="F" horiz-adv-x="606" 
d="M576 605h-361v-194h321v-94h-321v-317h-125v700h486v-95z" />
    <glyph glyph-name="G" unicode="G" horiz-adv-x="770" 
d="M395 307v88h325v-45c0 -259 -98 -370 -325 -370c-242 0 -345 111 -345 370s103 370 345 370c187 0 281 -72 315 -240h-120c-23 98 -81 139 -195 139c-151 0 -214 -79 -214 -269s63 -269 214 -269c145 0 205 66 205 226h-205z" />
    <glyph glyph-name="H" unicode="H" horiz-adv-x="750" 
d="M534 700h126v-700h-126v323h-319v-323h-125v700h125v-277h319v277z" />
    <glyph glyph-name="I" unicode="I" horiz-adv-x="305" 
d="M90 700h125v-700h-125v700z" />
    <glyph glyph-name="J" unicode="J" horiz-adv-x="576" 
d="M40 210v29h119v-29c0 -91 31 -129 106 -129s106 37 106 129v490h125v-490c0 -157 -69 -224 -231 -224c-158 0 -225 67 -225 224z" />
    <glyph glyph-name="K" unicode="K" horiz-adv-x="686" 
d="M215 700v-291l268 291h153l-313 -340l333 -360h-153l-288 311v-311h-125v700h125z" />
    <glyph glyph-name="L" unicode="L" horiz-adv-x="576" 
d="M536 101v-101h-446v700h125v-599h321z" />
    <glyph glyph-name="M" unicode="M" horiz-adv-x="922" 
d="M90 0v700h170l203 -522l204 522h165v-700h-120v539l-212 -539h-79l-212 539v-539h-119z" />
    <glyph glyph-name="N" unicode="N" horiz-adv-x="762" 
d="M552 700h120v-700h-148l-315 537v-537h-119v700h147l315 -537v537z" />
    <glyph glyph-name="O" unicode="O" horiz-adv-x="790" 
d="M395 720c241 0 345 -111 345 -370s-104 -370 -345 -370c-242 0 -345 111 -345 370s103 370 345 370zM395 619c-151 0 -214 -79 -214 -269s63 -269 214 -269s214 79 214 269s-63 269 -214 269z" />
    <glyph glyph-name="P" unicode="P" horiz-adv-x="680" 
d="M640 478c0 -131 -74 -223 -255 -223h-170v-255h-125v700h295c181 0 255 -92 255 -222zM514 478c0 82 -40 127 -135 127h-164v-255h164c95 0 135 45 135 128z" />
    <glyph glyph-name="Q" unicode="Q" horiz-adv-x="790" 
d="M394 720c240 0 345 -111 345 -370c0 -142 -31 -240 -99 -299l100 -121h-116l-62 75c-46 -17 -101 -25 -167 -25c-242 0 -345 111 -345 370s103 370 344 370zM608 350c0 190 -63 270 -214 270s-214 -79 -214 -269s63 -269 214 -269c36 0 67 4 93 13l-144 175h116l101 -123
c33 44 48 110 48 203z" />
    <glyph glyph-name="R" unicode="R" horiz-adv-x="712" 
d="M386 261h-171v-261h-125v700h309c181 0 255 -92 255 -222c0 -106 -44 -178 -147 -205l155 -273h-133zM215 350h178c94 0 136 45 136 128c0 82 -41 127 -136 127h-178v-255z" />
    <glyph glyph-name="S" unicode="S" horiz-adv-x="650" 
d="M179 520c0 -155 421 -55 421 -321c0 -153 -83 -219 -275 -219c-193 0 -275 66 -275 220h113c0 -94 47 -132 162 -132c111 0 155 33 155 112c0 178 -420 71 -420 321c0 153 79 219 265 219c185 0 265 -66 265 -220h-114c0 93 -44 132 -151 132c-104 0 -146 -32 -146 -112z
" />
    <glyph glyph-name="T" unicode="T" horiz-adv-x="631" 
d="M591 700v-101h-213v-599h-125v599h-213v101h551z" />
    <glyph glyph-name="U" unicode="U" horiz-adv-x="730" 
d="M80 256v444h125v-444c0 -123 47 -175 160 -175c112 0 159 52 159 175v444h126v-444c0 -193 -86 -276 -285 -276c-200 0 -285 83 -285 276z" />
    <glyph glyph-name="V" unicode="V" horiz-adv-x="696" 
d="M156 700l192 -615l192 615h126l-228 -700h-180l-228 700h126z" />
    <glyph glyph-name="W" unicode="W" horiz-adv-x="1022" 
d="M436 700h150l127 -583l143 583h126l-184 -700h-162l-130 584l-120 -584h-162l-184 700h126l143 -583z" />
    <glyph glyph-name="X" unicode="X" horiz-adv-x="685" 
d="M179 700l166 -268l168 268h132l-218 -340l228 -360h-138l-173 288l-181 -288h-133l227 360l-217 340h139z" />
    <glyph glyph-name="Y" unicode="Y" horiz-adv-x="665" 
d="M395 275v-275h-119v275l-246 425h138l168 -309l167 309h132z" />
    <glyph glyph-name="Z" unicode="Z" horiz-adv-x="627" 
d="M187 95h400v-95h-547v79l390 526h-380v95h527v-79z" />
    <glyph glyph-name="bracketleft" unicode="[" horiz-adv-x="316" 
d="M90 700h205v-88h-110v-724h111v-88h-206v900z" />
    <glyph glyph-name="backslash" unicode="\" horiz-adv-x="382" 
d="M20 700h102l240 -700h-102z" />
    <glyph glyph-name="bracketright" unicode="]" horiz-adv-x="316" 
d="M20 700h206v-900h-206v88h110v724h-110v88z" />
    <glyph glyph-name="asciicircum" unicode="^" horiz-adv-x="490" 
d="M304 670l146 -350h-91l-114 273l-114 -273h-91l146 350h118z" />
    <glyph glyph-name="underscore" unicode="_" horiz-adv-x="520" 
d="M520 0v-88h-520v88h520z" />
    <glyph glyph-name="grave" unicode="`" horiz-adv-x="300" 
d="M156 700l104 -150h-93l-127 150h116z" />
    <glyph glyph-name="a" unicode="a" horiz-adv-x="550" 
d="M386 50c-32 -41 -85 -60 -161 -60c-130 0 -185 47 -185 156c0 119 70 170 233 170h103v24c0 71 -31 100 -104 100c-75 0 -104 -26 -104 -90h-108c0 112 64 160 215 160c149 0 215 -55 215 -182v-328h-90zM376 247h-81c-70 0 -142 -7 -142 -95c0 -58 30 -80 102 -80
c80 0 117 36 121 119v56z" />
    <glyph glyph-name="b" unicode="b" horiz-adv-x="600" 
d="M344 -10v1c-78 0 -133 21 -168 66l-16 -56h-90v700h113v-248c35 39 88 57 161 57c151 0 216 -78 216 -260s-65 -260 -216 -260zM315 79c92 0 131 52 131 172s-39 172 -131 172s-132 -52 -132 -172s40 -172 132 -172z" />
    <glyph glyph-name="c" unicode="c" 
d="M416 179h114c-17 -132 -87 -189 -235 -189c-179 0 -255 78 -255 260s76 260 255 260c148 0 218 -57 235 -189h-114c-13 71 -50 101 -121 101c-99 0 -142 -52 -142 -172s43 -172 142 -172c71 0 107 30 121 101z" />
    <glyph glyph-name="d" unicode="d" horiz-adv-x="600" 
d="M423 56c-35 -45 -89 -66 -168 -66c-151 0 -215 78 -215 260s64 260 215 260c73 0 126 -18 161 -57v247h114v-700h-90zM285 78c92 0 131 52 131 172s-39 172 -131 172s-132 -52 -132 -172s40 -172 132 -172z" />
    <glyph glyph-name="e" unicode="e" 
d="M530 204h-378c9 -96 49 -138 133 -138c67 0 100 24 117 86h108c-23 -113 -91 -162 -225 -162c-172 0 -245 78 -245 260s73 260 245 260c171 0 245 -80 245 -267v-39zM284 434c-88 0 -129 -48 -134 -161h265c0 115 -39 161 -131 161z" />
    <glyph glyph-name="f" unicode="f" horiz-adv-x="420" 
d="M305 612c-45 0 -63 -22 -63 -57v-55h148v-76h-148v-424h-114v424h-88v76h88v55c0 89 52 145 147 145h115v-88h-85z" />
    <glyph glyph-name="g" unicode="g" horiz-adv-x="600" 
d="M255 -10c-151 0 -215 79 -215 261s64 259 215 259c79 0 135 -21 170 -68l15 58h90v-450c0 -182 -74 -260 -245 -260c-139 0 -206 49 -225 162h107c14 -62 46 -86 112 -86c97 0 137 49 137 165v16c-35 -39 -88 -57 -161 -57zM285 79c93 0 131 50 131 172
c0 121 -38 172 -131 172s-132 -51 -132 -172s38 -172 132 -172z" />
    <glyph glyph-name="h" unicode="h" horiz-adv-x="580" 
d="M70 0h-1v700h113v-240c32 34 80 50 145 50c134 0 192 -72 192 -240v-270h-114v270c0 108 -31 152 -107 152c-82 0 -116 -45 -116 -152v-270h-112z" />
    <glyph glyph-name="i" unicode="i" horiz-adv-x="282" 
d="M198 0h-114v500h114v-500zM141 715c49 0 71 -21 71 -67c0 -47 -22 -68 -72 -68c-49 0 -70 21 -70 68s21 67 71 67z" />
    <glyph glyph-name="j" unicode="j" horiz-adv-x="278" 
d="M6 -92c50 0 74 28 74 69v523h114v-535c0 -89 -52 -145 -147 -145h-107v88h66zM137 715c50 0 71 -21 71 -67c0 -47 -21 -68 -71 -68c-49 0 -71 21 -71 68s22 67 71 67z" />
    <glyph glyph-name="k" unicode="k" horiz-adv-x="558" 
d="M183 700v-405l200 205h135l-233 -240l253 -260h-135l-220 225v-225h-113v700h113z" />
    <glyph glyph-name="l" unicode="l" horiz-adv-x="253" 
d="M70 0v700h113v-700h-113z" />
    <glyph glyph-name="m" unicode="m" horiz-adv-x="859" 
d="M182 270v-270h-112v500h90l17 -64c27 50 74 73 143 73c71 0 118 -25 145 -81c28 56 79 82 156 82c125 0 178 -72 178 -240v-270h-114v270c0 66 -8 152 -93 152c-72 0 -101 -45 -101 -152v-270h-114v270c0 107 -27 152 -93 152c-72 0 -102 -45 -102 -152z" />
    <glyph glyph-name="n" unicode="n" horiz-adv-x="580" 
d="M175 452c32 40 82 58 153 58c134 0 192 -72 192 -240v-270h-114v270c0 108 -31 152 -107 152c-81 0 -116 -45 -116 -152v-270h-113v500h90z" />
    <glyph glyph-name="o" unicode="o" horiz-adv-x="590" 
d="M295 510c178 0 255 -78 255 -260s-77 -260 -255 -260c-179 0 -255 78 -255 260s76 260 255 260zM153 250c0 -121 42 -172 142 -172s141 51 141 172s-41 172 -141 172c-101 0 -142 -50 -142 -172z" />
    <glyph glyph-name="p" unicode="p" horiz-adv-x="600" 
d="M344 510v1c151 0 216 -78 216 -260s-65 -261 -216 -261c-73 0 -126 19 -161 58v-248h-113v700h90l16 -56c35 45 90 66 168 66zM315 423c-92 0 -132 -52 -132 -172s40 -172 132 -172s131 52 131 172s-39 172 -131 172z" />
    <glyph glyph-name="q" unicode="q" horiz-adv-x="600" 
d="M40 250h-1c0 182 64 260 215 260c79 0 134 -21 169 -66l17 56h90v-700h-114v247c-35 -39 -88 -57 -161 -57c-151 0 -215 78 -215 260zM283 422c-92 0 -132 -52 -132 -172s40 -172 132 -172s131 52 131 172s-39 172 -131 172z" />
    <glyph glyph-name="r" unicode="r" horiz-adv-x="393" 
d="M183 250v-250h-113v500h90l16 -52c28 41 70 62 124 62h63v-101h-63c-91 0 -117 -39 -117 -159z" />
    <glyph glyph-name="s" unicode="s" horiz-adv-x="504" 
d="M152 373c0 -113 312 -24 312 -224c0 -111 -66 -159 -219 -159c-144 0 -205 48 -205 160h107c0 -64 30 -90 102 -90s101 22 101 76c0 124 -306 29 -306 225c0 104 61 149 205 149c139 0 199 -45 199 -150h-102c0 57 -28 80 -97 80s-97 -19 -97 -67z" />
    <glyph glyph-name="t" unicode="t" horiz-adv-x="402" 
d="M224 157c0 -41 24 -69 75 -69h73v-88h-114c-96 0 -148 56 -148 145v279h-80v76h80v122h114v-122h148v-76h-148v-267z" />
    <glyph glyph-name="u" unicode="u" horiz-adv-x="580" 
d="M399 48c-32 -40 -82 -58 -153 -58c-134 0 -192 72 -192 240v270h114v-270c0 -108 31 -152 107 -152c81 0 116 45 116 152v270h113v-500h-90z" />
    <glyph glyph-name="v" unicode="v" horiz-adv-x="545" 
d="M275 76l129 424h121l-168 -500h-168l-169 500h121z" />
    <glyph glyph-name="w" unicode="w" horiz-adv-x="857" 
d="M670 0l-1 -1h-138l-103 419l-103 -418h-138l-157 500h115l116 -410l101 410h138l96 -411l116 411h115z" />
    <glyph glyph-name="x" unicode="x" horiz-adv-x="521" 
d="M149 500l110 -176l110 176h122l-161 -240l171 -260h-122l-119 195l-119 -195h-121l170 260l-160 240h119z" />
    <glyph glyph-name="y" unicode="y" horiz-adv-x="531" 
d="M235 4l3 9l-218 487h109l154 -354l119 354h109l-190 -533c-37 -103 -89 -147 -174 -147h-64v76h58c39 0 67 32 94 108z" />
    <glyph glyph-name="z" unicode="z" horiz-adv-x="487" 
d="M166 82h291v-82h-427v67l282 351h-272v82h407v-67z" />
    <glyph glyph-name="braceleft" unicode="{" horiz-adv-x="366" 
d="M198 116v-159c0 -48 28 -69 95 -69h53v-88h-59c-130 0 -186 46 -186 155v191c0 50 -18 71 -61 71v76c43 0 61 21 61 70v183c0 108 52 154 173 154h72v-88h-53c-67 0 -95 -21 -95 -69v-151c0 -80 -19 -121 -63 -137c44 -16 63 -58 63 -139z" />
    <glyph glyph-name="bar" unicode="|" horiz-adv-x="276" 
d="M90 700h96v-900h-96v900z" />
    <glyph glyph-name="braceright" unicode="}" horiz-adv-x="366" 
d="M190 116c0 81 19 123 63 139c-44 16 -63 57 -63 137v151c0 48 -28 69 -95 69h-53v88h72c121 0 173 -46 173 -154v-183c0 -49 18 -70 61 -70v-76c-43 0 -61 -21 -61 -71v-191c0 -109 -56 -155 -186 -155h-59v88h53c67 0 95 21 95 69v159z" />
    <glyph glyph-name="asciitilde" unicode="~" horiz-adv-x="680" 
d="M40 219v85c205 194 416 -191 600 -1v-84c-204 -197 -416 187 -600 0z" />
    <glyph glyph-name="space_" unicode="&#xa0;" horiz-adv-x="300" 
 />
    <glyph glyph-name="exclamdown" unicode="&#xa1;" horiz-adv-x="282" 
d="M207 -200h-119v190l23 258h73l23 -258v-190zM140 365c-49 0 -70 21 -70 71c0 49 21 70 70 70c50 0 72 -21 72 -70s-22 -71 -72 -71z" />
    <glyph glyph-name="cent" unicode="&#xa2;" horiz-adv-x="569" 
d="M250 -96v88c-147 13 -210 92 -210 258s63 245 210 258v82h90v-82c117 -11 174 -69 189 -187h-114c-13 71 -50 101 -121 101c-99 0 -142 -52 -142 -172s43 -172 142 -172c71 0 107 30 121 101h114c-15 -118 -72 -176 -189 -187v-88h-90z" />
    <glyph glyph-name="sterling" unicode="&#xa3;" horiz-adv-x="661" 
d="M621 95v-95h-571v111c71 26 101 74 101 162v40h-101v88h101v99c0 147 62 220 208 220c161 0 232 -59 232 -220h-108c0 97 -31 138 -107 138c-91 0 -111 -55 -111 -138v-99h257v-88h-257v-40c0 -96 -33 -149 -111 -178h467z" />
    <glyph glyph-name="currency" unicode="&#xa4;" horiz-adv-x="609" 
d="M557 484l-1 -1l-47 -49c34 -42 50 -103 50 -185s-16 -143 -50 -185l48 -49l-58 -61l-58 59c-36 -16 -81 -23 -136 -23s-100 7 -136 23l-58 -59l-59 61l48 49c-34 42 -50 103 -50 185s15 143 48 185l-48 49l58 62l58 -59c37 16 83 24 139 24c55 0 100 -7 136 -23l58 59z
M162 250c0 -121 42 -172 142 -172s141 51 141 172s-41 172 -141 172c-101 0 -142 -50 -142 -172z" />
    <glyph glyph-name="yen" unicode="&#xa5;" horiz-adv-x="685" 
d="M405 275v-74h209v-82h-209v-119h-119v119h-214v82h214v74l-12 21h-202v82h154l-186 322h138l168 -309l167 309h132l-182 -322h151v-82h-197z" />
    <glyph glyph-name="section" unicode="&#xa7;" horiz-adv-x="647" 
d="M207 539c0 -153 390 -74 390 -313c0 -73 -24 -121 -77 -148c17 -24 27 -54 27 -93c0 -144 -71 -205 -236 -205c-155 0 -221 66 -221 220h96c0 -93 37 -132 125 -132c87 0 122 29 122 98c0 165 -383 67 -383 307c0 73 27 119 88 144c-24 27 -39 62 -39 109
c0 136 66 195 219 195c152 0 218 -66 218 -220h-97c0 94 -34 132 -121 132c-79 0 -111 -28 -111 -94zM488 215c0 92 -157 96 -272 148c-42 -13 -59 -37 -59 -78c0 -97 175 -91 290 -149c29 15 41 40 41 79z" />
    <glyph glyph-name="dieresis" unicode="&#xa8;" horiz-adv-x="420" 
d="M110 735c50 0 72 -22 72 -71s-22 -70 -72 -70c-49 0 -70 21 -70 70c0 50 21 71 70 71zM309 735c50 0 71 -22 71 -71s-22 -70 -71 -70c-50 0 -71 21 -71 70c0 50 21 71 71 71z" />
    <glyph glyph-name="copyright" unicode="&#xa9;" horiz-adv-x="863" 
d="M431 720c268 0 382 -111 382 -370s-114 -370 -382 -370c-267 0 -381 111 -381 370s114 370 381 370zM431 56c213 0 304 88 304 294s-91 294 -304 294c-212 0 -303 -88 -303 -294s91 -294 303 -294zM432 550c127 0 187 -48 201 -160h-90c-12 65 -44 90 -112 90
c-81 0 -115 -38 -115 -130c0 -85 25 -130 115 -130c68 0 100 25 112 90h90c-14 -112 -74 -160 -202 -160c-144 0 -205 60 -205 200s62 200 206 200z" />
    <glyph glyph-name="guillemotleft" unicode="&#xab;" horiz-adv-x="485" 
d="M164 450h109l-119 -190l119 -200h-109l-124 200zM336 450h109l-119 -190l119 -200h-109l-124 200z" />
    <glyph glyph-name="logicalnot" unicode="&#xac;" horiz-adv-x="610" 
d="M560 311v-218h-90v130h-430v88h520z" />
    <glyph glyph-name="registered" unicode="&#xae;" horiz-adv-x="863" 
d="M431 720c268 0 382 -111 382 -370s-114 -370 -382 -370c-267 0 -381 111 -381 370s114 370 381 370zM431 56c214 0 304 87 304 294s-90 294 -304 294c-213 0 -303 -87 -303 -294s90 -294 303 -294zM603 415h1c0 -61 -25 -96 -80 -110l89 -134h-80l-80 128h-101v-128h-71
l-1 360h176c103 0 147 -35 147 -116zM353 473v-118h104c53 0 74 16 74 59c0 42 -21 59 -74 59h-104z" />
    <glyph glyph-name="macron" unicode="&#xaf;" horiz-adv-x="420" 
d="M40 608v69h340v-69h-340z" />
    <glyph glyph-name="degree" unicode="&#xb0;" horiz-adv-x="460" 
d="M40 520c0 133 56 190 190 190c133 0 190 -57 190 -190s-57 -190 -190 -190s-190 57 -190 190zM112 520c0 -86 34 -120 118 -120c83 0 117 34 117 120s-34 120 -117 120c-84 0 -118 -34 -118 -120z" />
    <glyph glyph-name="plusminus" unicode="&#xb1;" horiz-adv-x="600" 
d="M40 0v88h520v-88h-520zM560 368v-88h-214v-145h-91v145h-215v88h215v132h91v-132h214z" />
    <glyph glyph-name="acute" unicode="&#xb4;" horiz-adv-x="300" 
d="M40 550l104 150h116l-128 -150h-92z" />
    <glyph glyph-name="paragraph" unicode="&#xb6;" horiz-adv-x="840" 
d="M671 612v-812h-96v812h-211v-812h-96v500c-153 0 -218 60 -218 200s75 200 250 200h470v-88h-99z" />
    <glyph glyph-name="periodcentered" unicode="&#xb7;" horiz-adv-x="222" 
d="M110 327c50 0 72 -21 72 -70s-22 -70 -72 -70c-49 0 -70 21 -70 70s21 70 70 70z" />
    <glyph glyph-name="cedilla" unicode="&#xb8;" horiz-adv-x="281" 
d="M101 25h63l-21 -76s98 -15 98 -89c0 -70 -72 -110 -201 -110v51c76 0 117 18 117 59c0 35 -55 45 -91 45z" />
    <glyph glyph-name="guillemotright" unicode="&#xbb;" horiz-adv-x="490" 
d="M40 450h110l128 -190l-128 -200h-110l123 200zM212 450h110l128 -190l-128 -200h-110l123 200z" />
    <glyph glyph-name="questiondown" unicode="&#xbf;" horiz-adv-x="542" 
d="M332 259c0 -202 -173 -160 -173 -289c0 -71 35 -102 117 -102c83 0 118 43 118 142h108c0 -161 -70 -230 -231 -230c-162 0 -231 57 -231 190c0 180 195 134 195 289h97zM284 365c-50 0 -71 22 -71 71s21 70 71 70c49 0 70 -21 70 -70c0 -50 -21 -71 -70 -71z" />
    <glyph glyph-name="Agrave" unicode="&#xc0;" horiz-adv-x="702" 
d="M540 0l-50 157h-282l-52 -157h-126l240 700h174l228 -700h-132zM351 590l-114 -345h225zM412 750h-87l-123 120h104z" />
    <glyph glyph-name="Aacute" unicode="&#xc1;" horiz-adv-x="702" 
d="M540 0l-50 157h-282l-52 -157h-126l240 700h174l228 -700h-132zM351 590l-114 -345h225zM293 750l100 120h111l-117 -120h-94z" />
    <glyph glyph-name="Acircumflex" unicode="&#xc2;" horiz-adv-x="702" 
d="M540 0l-50 157h-282l-52 -157h-126l240 700h174l228 -700h-132zM351 590l-114 -345h225zM502 750h-81l-68 69l-69 -69h-81l93 120h113z" />
    <glyph glyph-name="Atilde" unicode="&#xc3;" horiz-adv-x="702" 
d="M540 0l-50 157h-282l-52 -157h-126l240 700h174l228 -700h-132zM351 590l-114 -345h225zM191 760c0 70 42 106 93 106c82 0 100 -59 149 -59c18 0 32 15 32 43h49c0 -70 -41 -106 -93 -106c-82 0 -100 59 -148 59c-19 0 -33 -15 -33 -43h-49z" />
    <glyph glyph-name="Adieresis" unicode="&#xc4;" horiz-adv-x="702" 
d="M540 0l-50 157h-282l-52 -157h-126l240 700h174l228 -700h-132zM351 590l-114 -345h225zM247 863c50 0 71 -18 71 -61c0 -42 -21 -61 -71 -61c-49 0 -71 19 -71 61c0 43 22 61 71 61zM458 863c49 0 71 -18 71 -61c0 -42 -22 -61 -72 -61c-49 0 -70 19 -70 61
c0 43 21 61 71 61z" />
    <glyph glyph-name="Aring" unicode="&#xc5;" horiz-adv-x="702" 
d="M540 0l-50 157h-282l-52 -157h-126l240 700h174l228 -700h-132zM351 590l-114 -345h225zM353 931c82 0 117 -31 117 -102c0 -72 -35 -103 -118 -103c-82 0 -117 31 -117 103c0 71 35 102 118 102zM353 777c41 0 56 15 56 52c0 36 -16 51 -56 51c-41 0 -57 -14 -57 -51
s16 -52 57 -52z" />
    <glyph glyph-name="AE" unicode="&#xc6;" horiz-adv-x="942" 
d="M902 605h-323v-194h283v-94h-283v-222h323v-95h-437v157h-230l-79 -157h-126l361 700h511v-95zM465 614l-186 -369h186v369z" />
    <glyph glyph-name="Ccedilla" unicode="&#xc7;" horiz-adv-x="760" 
d="M330 -95l22 75c-210 12 -302 125 -302 370c0 259 103 370 341 370c194 0 288 -76 319 -252h-125c-26 108 -81 151 -194 151c-147 0 -210 -79 -210 -269s63 -269 210 -269c106 0 161 43 194 151h125c-44 -167 -132 -244 -294 -251l-9 -32s99 -15 99 -89
c0 -70 -73 -110 -202 -110v51c76 0 117 18 117 59c0 35 -55 45 -91 45z" />
    <glyph glyph-name="Egrave" unicode="&#xc8;" horiz-adv-x="616" 
d="M576 605h-361v-194h321v-94h-321v-222h361v-95h-486v700h486v-95zM392 750h-87l-123 120h105z" />
    <glyph glyph-name="Eacute" unicode="&#xc9;" horiz-adv-x="616" 
d="M576 605h-361v-194h321v-94h-321v-222h361v-95h-486v700h486v-95zM274 750l99 120h111l-117 -120h-93z" />
    <glyph glyph-name="Ecircumflex" unicode="&#xca;" horiz-adv-x="616" 
d="M576 605h-361v-194h321v-94h-321v-222h361v-95h-486v700h486v-95zM482 750h-81l-68 69l-68 -69h-81l92 120h114z" />
    <glyph glyph-name="Edieresis" unicode="&#xcb;" horiz-adv-x="617" 
d="M577 605h-361v-194h321v-94h-321v-222h361v-95h-487v700h487v-95zM229 863c49 0 71 -18 71 -61c0 -42 -22 -61 -72 -61c-49 0 -70 19 -70 61c0 43 21 61 71 61zM439 863c49 0 71 -18 71 -61c0 -42 -22 -61 -71 -61c-50 0 -71 19 -71 61c0 43 21 61 71 61z" />
    <glyph glyph-name="Igrave" unicode="&#xcc;" horiz-adv-x="314" 
d="M99 700h125v-700h-125v700zM221 750h-88l-123 120h105z" />
    <glyph glyph-name="Iacute" unicode="&#xcd;" horiz-adv-x="313" 
d="M90 700h125v-700h-125v700zM93 750l100 120h110l-117 -120h-93z" />
    <glyph glyph-name="Icircumflex" unicode="&#xce;" horiz-adv-x="318" 
d="M96 700h126v-700h-126v700zM308 750h-81l-68 69l-68 -69h-81l92 120h114z" />
    <glyph glyph-name="Idieresis" unicode="&#xcf;" horiz-adv-x="304" 
d="M89 700h126v-700h-126v700zM51 860c49 0 71 -19 71 -62c0 -42 -21 -60 -71 -60c-49 0 -71 18 -71 60c0 43 21 62 71 62zM253 860c49 0 71 -19 71 -62c0 -42 -22 -60 -71 -60s-71 18 -71 60c0 43 21 62 71 62z" />
    <glyph glyph-name="Ntilde" unicode="&#xd1;" horiz-adv-x="762" 
d="M552 700h120v-700h-148l-315 537v-537h-119v700h147l315 -537v537zM219 760c0 70 42 106 93 106c82 0 100 -59 149 -59c18 0 32 15 32 43h49c0 -70 -41 -106 -93 -106c-82 0 -100 59 -148 59c-19 0 -33 -15 -33 -43h-49z" />
    <glyph glyph-name="Ograve" unicode="&#xd2;" horiz-adv-x="790" 
d="M395 720c241 0 345 -111 345 -370s-104 -370 -345 -370c-242 0 -345 111 -345 370s103 370 345 370zM395 619c-151 0 -214 -79 -214 -269s63 -269 214 -269s214 79 214 269s-63 269 -214 269zM454 750h-87l-123 120h105z" />
    <glyph glyph-name="Oacute" unicode="&#xd3;" horiz-adv-x="790" 
d="M395 720c241 0 345 -111 345 -370s-104 -370 -345 -370c-242 0 -345 111 -345 370s103 370 345 370zM395 619c-151 0 -214 -79 -214 -269s63 -269 214 -269s214 79 214 269s-63 269 -214 269zM336 750l99 120h111l-117 -120h-93z" />
    <glyph glyph-name="Ocircumflex" unicode="&#xd4;" horiz-adv-x="790" 
d="M395 720c241 0 345 -111 345 -370s-104 -370 -345 -370c-242 0 -345 111 -345 370s103 370 345 370zM395 619c-151 0 -214 -79 -214 -269s63 -269 214 -269s214 79 214 269s-63 269 -214 269zM544 750h-81l-68 69l-68 -69h-81l92 120h114z" />
    <glyph glyph-name="Otilde" unicode="&#xd5;" horiz-adv-x="790" 
d="M395 720c241 0 345 -111 345 -370s-104 -370 -345 -370c-242 0 -345 111 -345 370s103 370 345 370zM395 619c-151 0 -214 -79 -214 -269s63 -269 214 -269s214 79 214 269s-63 269 -214 269zM233 760c0 70 42 106 94 106c81 0 100 -59 148 -59c18 0 32 15 32 43h50
c0 -70 -42 -106 -94 -106c-82 0 -100 59 -148 59c-18 0 -33 -15 -33 -43h-49z" />
    <glyph glyph-name="Odieresis" unicode="&#xd6;" horiz-adv-x="790" 
d="M395 720c241 0 345 -111 345 -370s-104 -370 -345 -370c-242 0 -345 111 -345 370s103 370 345 370zM395 619c-151 0 -214 -79 -214 -269s63 -269 214 -269c150 0 214 79 214 269s-64 269 -214 269zM290 860c49 0 71 -19 71 -62c0 -42 -22 -60 -72 -60
c-49 0 -70 18 -70 60c0 43 21 62 71 62zM500 860c49 0 71 -19 71 -62c0 -42 -22 -60 -71 -60c-50 0 -71 18 -71 60c0 43 21 62 71 62z" />
    <glyph glyph-name="multiply" unicode="&#xd7;" horiz-adv-x="544" 
d="M104 486l168 -168l168 168l64 -68l-166 -166l166 -166l-64 -68l-168 168l-168 -168l-64 68l166 166l-166 166z" />
    <glyph glyph-name="Oslash" unicode="&#xd8;" horiz-adv-x="790" 
d="M518 780h78l-30 -88c120 -47 174 -157 174 -343c0 -259 -104 -370 -345 -370c-27 0 -52 1 -76 4l-22 -63h-79l28 78c-136 42 -196 153 -196 351c0 259 103 370 345 370c36 0 69 -2 99 -7zM460 613c-19 4 -41 6 -65 6c-151 0 -214 -79 -214 -269c0 -133 31 -212 101 -247z
M353 83c13 -1 28 -2 42 -2c151 0 214 79 214 269c0 119 -25 194 -81 234z" />
    <glyph glyph-name="Ugrave" unicode="&#xd9;" horiz-adv-x="730" 
d="M80 256v444h125v-444c0 -123 47 -175 160 -175c112 0 159 52 159 175v444h126v-444c0 -193 -86 -276 -285 -276c-200 0 -285 83 -285 276zM424 750h-87l-123 120h105z" />
    <glyph glyph-name="Uacute" unicode="&#xda;" horiz-adv-x="730" 
d="M80 256v444h125v-444c0 -123 47 -175 160 -175c112 0 159 52 159 175v444h126v-444c0 -193 -86 -276 -285 -276c-200 0 -285 83 -285 276zM306 750l99 120h111l-117 -120h-93z" />
    <glyph glyph-name="Ucircumflex" unicode="&#xdb;" horiz-adv-x="730" 
d="M80 256v444h125v-444c0 -123 47 -175 160 -175c112 0 159 52 159 175v444h126v-444c0 -193 -86 -276 -285 -276c-200 0 -285 83 -285 276zM514 750h-81l-68 69l-69 -69h-81l93 120h114z" />
    <glyph glyph-name="Udieresis" unicode="&#xdc;" horiz-adv-x="731" 
d="M80 256v444h126v-444c0 -123 47 -175 160 -175c112 0 159 52 159 175v444h126v-444c0 -193 -86 -276 -285 -276c-200 0 -286 83 -286 276zM260 860c50 0 71 -19 71 -62c0 -42 -21 -60 -71 -60c-49 0 -71 18 -71 60c0 43 22 62 71 62zM471 860c49 0 71 -19 71 -62
c0 -42 -22 -60 -72 -60c-49 0 -70 18 -70 60c0 43 21 62 71 62z" />
    <glyph glyph-name="Yacute" unicode="&#xdd;" horiz-adv-x="665" 
d="M395 275v-275h-119v275l-246 425h138l168 -309l167 309h132zM275 750l100 120h110l-117 -120h-93z" />
    <glyph glyph-name="germandbls" unicode="&#xdf;" horiz-adv-x="645" 
d="M326 720c124 0 238 -42 238 -190c0 -76 -44 -115 -131 -134c114 -21 162 -78 162 -190c0 -144 -60 -206 -199 -206c-62 0 -106 20 -106 20v82s42 -14 76 -14c81 0 115 38 115 124c0 113 -71 135 -171 135v85c105 0 147 28 147 97s-36 103 -125 103
c-101 0 -139 -52 -139 -145v-487h-113v499c0 146 81 221 246 221z" />
    <glyph glyph-name="agrave" unicode="&#xe0;" horiz-adv-x="550" 
d="M386 50c-32 -41 -85 -60 -161 -60c-130 0 -185 47 -185 156c0 119 70 170 233 170h103v24c0 71 -31 100 -104 100c-75 0 -104 -26 -104 -90h-108c0 112 64 160 215 160c149 0 215 -55 215 -182v-328h-90zM376 247h-81c-70 0 -142 -7 -142 -95c0 -58 30 -80 102 -80
c80 0 117 36 121 119v56zM230 700l104 -150h-93l-127 150h116z" />
    <glyph glyph-name="aacute" unicode="&#xe1;" horiz-adv-x="550" 
d="M386 50c-32 -41 -85 -60 -161 -60c-130 0 -185 47 -185 156c0 119 70 170 233 170h103v24c0 71 -31 100 -104 100c-75 0 -104 -26 -104 -90h-108c0 112 64 160 215 160c149 0 215 -55 215 -182v-328h-90zM376 247h-81c-70 0 -142 -7 -142 -95c0 -58 30 -80 102 -80
c80 0 117 36 121 119v56zM314 700h116l-127 -150h-93z" />
    <glyph glyph-name="acircumflex" unicode="&#xe2;" horiz-adv-x="550" 
d="M386 50c-32 -41 -85 -60 -161 -60c-130 0 -185 47 -185 156c0 119 70 170 233 170h103v24c0 71 -31 100 -104 100c-75 0 -104 -26 -104 -90h-108c0 112 64 160 215 160c149 0 215 -55 215 -182v-328h-90zM376 247h-81c-70 0 -142 -7 -142 -95c0 -58 30 -80 102 -80
c80 0 117 36 121 119v56zM332 700l88 -150h-75l-70 92l-71 -92h-74l88 150h114z" />
    <glyph glyph-name="atilde" unicode="&#xe3;" horiz-adv-x="550" 
d="M386 50c-32 -41 -85 -60 -161 -60c-130 0 -185 47 -185 156c0 119 70 170 233 170h103v24c0 71 -31 100 -104 100c-75 0 -104 -26 -104 -90h-108c0 112 64 160 215 160c149 0 215 -55 215 -182v-328h-90zM376 247h-81c-70 0 -142 -7 -142 -95c0 -58 30 -80 102 -80
c80 0 117 36 121 119v56zM113 576c0 70 42 123 93 123c82 0 101 -85 143 -85c18 0 32 19 32 52h55c0 -70 -41 -122 -93 -122c-82 0 -101 85 -142 85c-19 0 -33 -19 -33 -53h-55z" />
    <glyph glyph-name="adieresis" unicode="&#xe4;" horiz-adv-x="550" 
d="M386 50c-32 -41 -85 -60 -161 -60c-130 0 -185 47 -185 156c0 119 70 170 233 170h103v24c0 71 -31 100 -104 100c-75 0 -104 -26 -104 -90h-108c0 112 64 160 215 160c149 0 215 -55 215 -182v-328h-90zM376 247h-81c-70 0 -142 -7 -142 -95c0 -58 30 -80 102 -80
c80 0 117 36 121 119v56zM175 708c50 0 71 -21 71 -70s-21 -70 -71 -70c-49 0 -71 21 -71 70s22 70 71 70zM374 708c49 0 71 -21 71 -70s-22 -70 -71 -70c-50 0 -71 21 -71 70s21 70 71 70z" />
    <glyph glyph-name="aring" unicode="&#xe5;" horiz-adv-x="550" 
d="M386 50c-32 -41 -85 -60 -161 -60c-130 0 -185 47 -185 156c0 119 70 170 233 170h103v24c0 71 -31 100 -104 100c-75 0 -104 -26 -104 -90h-108c0 112 64 160 215 160c149 0 215 -55 215 -182v-328h-90zM376 247h-81c-70 0 -142 -7 -142 -95c0 -58 30 -80 102 -80
c80 0 117 36 121 119v56zM275 731c82 0 117 -31 117 -102c0 -72 -35 -103 -117 -103c-83 0 -118 31 -118 103c0 71 35 102 118 102zM275 577c41 0 56 15 56 52c0 36 -16 51 -56 51c-41 0 -57 -14 -57 -51s16 -52 57 -52z" />
    <glyph glyph-name="ae" unicode="&#xe6;" horiz-adv-x="905" 
d="M865 204h-374c8 -95 47 -137 131 -137c67 0 100 24 118 86h107c-23 -113 -90 -162 -225 -162c-102 0 -165 36 -195 115c-24 -80 -88 -116 -202 -116c-129 0 -185 47 -185 156c0 115 64 166 214 170h122v24c0 73 -39 94 -107 94c-73 0 -102 -24 -101 -84h-108
c0 112 64 160 215 160c88 0 143 -24 170 -77c34 53 91 77 175 77c172 0 245 -80 245 -267v-39zM375 247h-91c-93 0 -132 -28 -132 -95c0 -65 45 -80 102 -80c86 0 121 33 121 120v55zM622 435c-88 0 -128 -48 -133 -161h265c0 115 -39 161 -132 161z" />
    <glyph glyph-name="ccedilla" unicode="&#xe7;" 
d="M232 -95l24 87c-151 11 -216 90 -216 258c0 182 76 260 255 260c148 0 218 -57 235 -189h-114c-13 71 -50 101 -121 101c-99 0 -142 -52 -142 -172s43 -172 142 -172c71 0 107 30 121 101h114c-16 -124 -79 -182 -210 -188l-11 -42s98 -15 98 -89
c0 -70 -72 -110 -201 -110v51c76 0 117 18 117 59c0 35 -55 45 -91 45z" />
    <glyph glyph-name="egrave" unicode="&#xe8;" 
d="M530 204h-378c9 -96 49 -138 133 -138c67 0 100 24 117 86h108c-23 -113 -91 -162 -225 -162c-172 0 -245 78 -245 260s73 260 245 260c171 0 245 -80 245 -267v-39zM284 434c-88 0 -129 -48 -134 -161h265c0 115 -39 161 -131 161zM343 550h-93l-127 150h116z" />
    <glyph glyph-name="eacute" unicode="&#xe9;" 
d="M530 204h-378c9 -96 49 -138 133 -138c67 0 100 24 117 86h108c-23 -113 -91 -162 -225 -162c-172 0 -245 78 -245 260s73 260 245 260c171 0 245 -80 245 -267v-39zM284 434c-88 0 -129 -48 -134 -161h265c0 115 -39 161 -131 161zM225 550l104 150h116l-128 -150h-92z
" />
    <glyph glyph-name="ecircumflex" unicode="&#xea;" 
d="M530 204h-378c9 -96 49 -138 133 -138c67 0 100 24 117 86h108c-23 -113 -91 -162 -225 -162c-172 0 -245 78 -245 260s73 260 245 260c171 0 245 -80 245 -267v-39zM284 434c-88 0 -129 -48 -134 -161h265c0 115 -39 161 -131 161zM429 550h-75l-70 92l-71 -92h-74
l88 150h114z" />
    <glyph glyph-name="edieresis" unicode="&#xeb;" 
d="M530 204h-378c9 -96 49 -138 133 -138c67 0 100 24 117 86h108c-23 -113 -91 -162 -225 -162c-172 0 -245 78 -245 260s73 260 245 260c171 0 245 -80 245 -267v-39zM284 434c-88 0 -129 -48 -134 -161h265c0 115 -39 161 -131 161zM184 708c50 0 71 -21 71 -70
s-21 -70 -71 -70c-49 0 -71 21 -71 70s22 70 71 70zM383 708c49 0 71 -21 71 -70s-22 -70 -71 -70c-50 0 -71 21 -71 70s21 70 71 70z" />
    <glyph glyph-name="igrave" unicode="&#xec;" horiz-adv-x="147" 
d="M174 0h-113v500h113v-500zM177 550h-93l-127 150h116z" />
    <glyph glyph-name="iacute" unicode="&#xed;" horiz-adv-x="265" 
d="M186 0h-113v500h113v-500zM65 550l104 150h116l-128 -150h-92z" />
    <glyph glyph-name="icircumflex" unicode="&#xee;" horiz-adv-x="271" 
d="M192 0h-113v500h113v-500zM281 550h-75l-70 92l-71 -92h-75l89 150h113z" />
    <glyph glyph-name="idieresis" unicode="&#xef;" horiz-adv-x="264" 
d="M193 0h-113v500h113v-500zM41 697c50 0 71 -21 71 -71c0 -48 -21 -70 -71 -70c-49 0 -71 21 -71 70c0 50 22 71 71 71zM232 697c49 0 71 -21 71 -71c0 -48 -22 -70 -72 -70c-49 0 -70 21 -70 70c0 50 21 71 71 71z" />
    <glyph glyph-name="ntilde" unicode="&#xf1;" horiz-adv-x="580" 
d="M175 452c32 40 82 58 153 58c134 0 192 -72 192 -240v-270h-114v270c0 108 -31 152 -107 152c-81 0 -116 -45 -116 -152v-270h-113v500h90zM133 576c0 70 42 123 93 123c82 0 101 -85 143 -85c18 0 32 19 32 52h55c0 -70 -41 -122 -93 -122c-82 0 -101 85 -142 85
c-19 0 -33 -19 -33 -53h-55z" />
    <glyph glyph-name="ograve" unicode="&#xf2;" horiz-adv-x="590" 
d="M295 510c178 0 255 -78 255 -260s-77 -260 -255 -260c-179 0 -255 78 -255 260s76 260 255 260zM153 250c0 -121 42 -172 142 -172s141 51 141 172s-41 172 -141 172c-101 0 -142 -50 -142 -172zM354 550h-93l-127 150h116z" />
    <glyph glyph-name="oacute" unicode="&#xf3;" horiz-adv-x="590" 
d="M295 510c178 0 255 -78 255 -260s-77 -260 -255 -260c-179 0 -255 78 -255 260s76 260 255 260zM153 250c0 -121 42 -172 142 -172s141 51 141 172s-41 172 -141 172c-101 0 -142 -50 -142 -172zM236 550l104 150h116l-128 -150h-92z" />
    <glyph glyph-name="ocircumflex" unicode="&#xf4;" horiz-adv-x="590" 
d="M295 510c178 0 255 -78 255 -260s-77 -260 -255 -260c-179 0 -255 78 -255 260s76 260 255 260zM153 250c0 -121 42 -172 142 -172s141 51 141 172s-41 172 -141 172c-101 0 -142 -50 -142 -172zM440 550h-75l-70 92l-71 -92h-74l88 150h114z" />
    <glyph glyph-name="otilde" unicode="&#xf5;" horiz-adv-x="590" 
d="M295 510c178 0 255 -78 255 -260s-77 -260 -255 -260c-179 0 -255 78 -255 260s76 260 255 260zM153 250c0 -121 42 -172 142 -172s141 51 141 172s-41 172 -141 172c-101 0 -142 -50 -142 -172zM133 576c0 70 42 123 93 123c82 0 101 -85 143 -85c18 0 32 19 32 52h55
c0 -70 -41 -122 -93 -122c-82 0 -101 85 -142 85c-19 0 -33 -19 -33 -53h-55z" />
    <glyph glyph-name="odieresis" unicode="&#xf6;" horiz-adv-x="590" 
d="M295 510c178 0 255 -78 255 -260s-77 -260 -255 -260c-179 0 -255 78 -255 260s76 260 255 260zM153 250c0 -121 42 -172 142 -172s141 51 141 172s-41 172 -141 172c-101 0 -142 -50 -142 -172zM195 708c50 0 71 -21 71 -70s-21 -70 -71 -70c-49 0 -71 21 -71 70
s22 70 71 70zM394 708c49 0 71 -21 71 -70s-22 -70 -71 -70c-50 0 -71 21 -71 70s21 70 71 70z" />
    <glyph glyph-name="divide" unicode="&#xf7;" horiz-adv-x="600" 
d="M231 62c0 39 28 68 70 68c41 0 69 -29 69 -68c0 -40 -28 -68 -70 -68c-41 0 -69 28 -69 68zM560 219h-520v88h520v-88zM232 464c0 40 27 68 69 68s69 -28 69 -68c0 -39 -27 -67 -69 -67s-69 28 -69 67z" />
    <glyph glyph-name="oslash" unicode="&#xf8;" horiz-adv-x="591" 
d="M295 510c22 0 42 0 61 -2l22 62h55l-25 -73c99 -30 143 -108 143 -246c0 -182 -77 -260 -255 -260c-22 0 -42 1 -61 3l-22 -64h-55l25 74c-99 30 -143 108 -143 246c0 182 76 260 255 260zM294 423c-101 0 -143 -50 -143 -172c0 -81 19 -131 61 -155l112 325
c-9 1 -19 2 -30 2zM375 406l-112 -325c10 -1 20 -2 31 -2c100 0 141 51 141 172c0 81 -18 131 -60 155z" />
    <glyph glyph-name="ugrave" unicode="&#xf9;" horiz-adv-x="580" 
d="M399 48c-32 -40 -82 -58 -153 -58c-134 0 -192 72 -192 240v270h114v-270c0 -108 31 -152 107 -152c81 0 116 45 116 152v270h113v-500h-90zM255 700l104 -150h-93l-127 150h116z" />
    <glyph glyph-name="uacute" unicode="&#xfa;" horiz-adv-x="580" 
d="M399 48c-32 -40 -82 -58 -153 -58c-134 0 -192 72 -192 240v270h114v-270c0 -108 31 -152 107 -152c81 0 116 45 116 152v270h113v-500h-90zM304 700h116l-127 -150h-93z" />
    <glyph glyph-name="ucircumflex" unicode="&#xfb;" horiz-adv-x="580" 
d="M399 48c-32 -40 -82 -58 -153 -58c-134 0 -192 72 -192 240v270h114v-270c0 -108 31 -152 107 -152c81 0 116 45 116 152v270h113v-500h-90zM336 700l89 -150h-75l-70 92l-71 -92h-75l89 150h113z" />
    <glyph glyph-name="udieresis" unicode="&#xfc;" horiz-adv-x="580" 
d="M399 48c-32 -40 -82 -58 -153 -58c-134 0 -192 72 -192 240v270h114v-270c0 -108 31 -152 107 -152c81 0 116 45 116 152v270h113v-500h-90zM179 708c49 0 71 -21 71 -70s-22 -70 -72 -70c-49 0 -70 21 -70 70s21 70 71 70zM377 708c50 0 71 -21 71 -70s-21 -70 -71 -70
s-71 21 -71 70s21 70 71 70z" />
    <glyph glyph-name="yacute" unicode="&#xfd;" horiz-adv-x="531" 
d="M235 4l3 9l-218 487h109l154 -354l119 354h109l-190 -533c-37 -103 -89 -147 -174 -147h-64v76h58c39 0 67 32 94 108zM218 550l104 150h116l-127 -150h-93z" />
    <glyph glyph-name="ydieresis" unicode="&#xff;" horiz-adv-x="531" 
d="M235 4l3 9l-218 487h109l154 -354l119 354h109l-190 -533c-37 -103 -89 -147 -174 -147h-64v76h58c39 0 67 32 94 108zM172 708c50 0 71 -21 71 -70s-21 -70 -71 -70s-71 21 -71 70s21 70 71 70zM371 708c49 0 71 -21 71 -70s-22 -70 -72 -70c-49 0 -70 21 -70 70
s21 70 71 70z" />
    <glyph glyph-name="Amacron" unicode="&#x100;" horiz-adv-x="702" 
d="M540 0l-50 157h-282l-52 -157h-126l240 700h174l228 -700h-132zM351 590l-114 -345h225zM182 831h340v-70h-340v70z" />
    <glyph glyph-name="amacron" unicode="&#x101;" horiz-adv-x="550" 
d="M386 50c-32 -41 -85 -60 -161 -60c-130 0 -185 47 -185 156c0 119 70 170 233 170h103v24c0 71 -31 100 -104 100c-75 0 -104 -26 -104 -90h-108c0 112 64 160 215 160c149 0 215 -55 215 -182v-328h-90zM376 247h-81c-70 0 -142 -7 -142 -95c0 -58 30 -80 102 -80
c80 0 117 36 121 119v56zM104 584v69h340v-69h-340z" />
    <glyph glyph-name="Abreve" unicode="&#x102;" horiz-adv-x="702" 
d="M540 0l-50 157h-282l-52 -157h-126l240 700h174l228 -700h-132zM351 590l-114 -345h225zM514 870c0 -84 -48 -120 -161 -120c-114 0 -162 36 -162 120h84c0 -42 19 -60 67 -62c3 -1 7 -1 11 -1c55 0 77 18 77 63h84z" />
    <glyph glyph-name="abreve" unicode="&#x103;" horiz-adv-x="550" 
d="M386 50c-32 -41 -85 -60 -161 -60c-130 0 -185 47 -185 156c0 119 70 170 233 170h103v24c0 71 -31 100 -104 100c-75 0 -104 -26 -104 -90h-108c0 112 64 160 215 160c149 0 215 -55 215 -182v-328h-90zM376 247h-81c-70 0 -142 -7 -142 -95c0 -58 30 -80 102 -80
c80 0 117 36 121 119v56zM358 700h78c0 -105 -48 -150 -161 -150s-162 45 -162 150h79c0 -61 25 -87 83 -87c59 0 83 26 83 87z" />
    <glyph glyph-name="Aogonek" unicode="&#x104;" horiz-adv-x="704" 
d="M639 0c-75 -57 -92 -149 -18 -149c28 0 53 15 53 15v-96s-30 -20 -70 -20c-124 0 -141 164 -27 250h-37l-50 157h-282l-52 -157h-126l240 700h174l228 -700h-33zM351 590l-114 -345h225z" />
    <glyph glyph-name="aogonek" unicode="&#x105;" horiz-adv-x="554" 
d="M399 2l-13 48c-32 -41 -85 -60 -161 -60c-130 0 -185 47 -185 156c0 119 70 170 233 170h103v24c0 71 -31 100 -104 100c-75 0 -104 -26 -104 -90h-108c0 112 64 160 215 160c149 0 215 -55 215 -182v-328h-32c-74 -57 -91 -149 -17 -149c28 0 53 15 53 15v-96
s-30 -20 -70 -20c-125 0 -141 166 -25 252zM376 247h-81c-70 0 -142 -7 -142 -95c0 -58 30 -80 102 -80c80 0 117 36 121 119v56z" />
    <glyph glyph-name="Cacute" unicode="&#x106;" horiz-adv-x="760" 
d="M585 232h125c-46 -176 -141 -252 -319 -252c-238 0 -341 111 -341 370s103 370 341 370c194 0 288 -76 319 -252h-125c-26 108 -81 151 -194 151c-147 0 -210 -79 -210 -269s63 -269 210 -269c106 0 161 43 194 151zM336 750l99 120h111l-117 -120h-93z" />
    <glyph glyph-name="cacute" unicode="&#x107;" 
d="M416 179h114c-17 -132 -87 -189 -235 -189c-179 0 -255 78 -255 260s76 260 255 260c148 0 218 -57 235 -189h-114c-13 71 -50 101 -121 101c-99 0 -142 -52 -142 -172s43 -172 142 -172c71 0 107 30 121 101zM236 550l104 150h116l-128 -150h-92z" />
    <glyph glyph-name="Ccircumflex" unicode="&#x108;" horiz-adv-x="760" 
d="M585 232h125c-46 -176 -141 -252 -319 -252c-238 0 -341 111 -341 370s103 370 341 370c194 0 288 -76 319 -252h-125c-26 108 -81 151 -194 151c-147 0 -210 -79 -210 -269s63 -269 210 -269c106 0 161 43 194 151zM544 750h-81l-68 69l-68 -69h-81l92 120h114z" />
    <glyph glyph-name="ccircumflex" unicode="&#x109;" 
d="M416 179h114c-17 -132 -87 -189 -235 -189c-179 0 -255 78 -255 260s76 260 255 260c148 0 218 -57 235 -189h-114c-13 71 -50 101 -121 101c-99 0 -142 -52 -142 -172s43 -172 142 -172c71 0 107 30 121 101zM440 550h-75l-70 92l-71 -92h-74l88 150h114z" />
    <glyph glyph-name="Cdotaccent" unicode="&#x10a;" horiz-adv-x="760" 
d="M585 232h125c-46 -176 -141 -252 -319 -252c-238 0 -341 111 -341 370s103 370 341 370c194 0 288 -76 319 -252h-125c-26 108 -81 151 -194 151c-147 0 -210 -79 -210 -269s63 -269 210 -269c106 0 161 43 194 151zM395 870c49 0 71 -19 71 -62c0 -42 -22 -60 -71 -60
c-50 0 -71 18 -71 60c0 43 21 62 71 62z" />
    <glyph glyph-name="cdotaccent" unicode="&#x10b;" 
d="M416 179h114c-17 -132 -87 -189 -235 -189c-179 0 -255 78 -255 260s76 260 255 260c148 0 218 -57 235 -189h-114c-13 71 -50 101 -121 101c-99 0 -142 -52 -142 -172s43 -172 142 -172c71 0 107 30 121 101zM295 705c49 0 71 -21 71 -68s-22 -67 -72 -67
c-49 0 -70 21 -70 67c0 47 21 68 71 68z" />
    <glyph glyph-name="Ccaron" unicode="&#x10c;" horiz-adv-x="760" 
d="M585 232h125c-46 -176 -141 -252 -319 -252c-238 0 -341 111 -341 370s103 370 341 370c194 0 288 -76 319 -252h-125c-26 108 -81 151 -194 151c-147 0 -210 -79 -210 -269s63 -269 210 -269c106 0 161 43 194 151zM538 870l-92 -120h-114l-92 120h81l68 -69l68 69h81z
" />
    <glyph glyph-name="ccaron" unicode="&#x10d;" 
d="M416 179h114c-17 -132 -87 -189 -235 -189c-179 0 -255 78 -255 260s76 260 255 260c148 0 218 -57 235 -189h-114c-13 71 -50 101 -121 101c-99 0 -142 -52 -142 -172s43 -172 142 -172c71 0 107 30 121 101zM440 700l-89 -150h-113l-89 150h75l71 -92l70 92h75z" />
    <glyph glyph-name="Dcaron" unicode="&#x10e;" horiz-adv-x="732" 
d="M682 350c0 -245 -101 -350 -336 -350h-256v700h256c235 0 336 -105 336 -350zM341 605h-126v-510h126c147 0 209 75 209 255s-62 255 -209 255zM480 870l-93 -120h-113l-93 120h81l69 -69l68 69h81z" />
    <glyph glyph-name="dcaron" unicode="&#x10f;" horiz-adv-x="720" 
d="M423.28 55.0801c-35.0303 -44.3701 -89.8203 -65.0801 -168.28 -65.0801c-151 0 -215 78 -215 260s64 260 215 260c73 0 126 -18 161 -57v247h114v-700h-90zM286 78c92 0 131 52 131 172s-39 172 -131 172s-132 -52 -132 -172s40 -172 132 -172zM627 710
c51 0 54 -40 54 -79c0 -73 -31 -104 -97 -104v44c29 0 41 15 41 48c-34 0 -51 12 -51 40c0 37 16 51 53 51z" />
    <glyph glyph-name="Dcroat" unicode="&#x110;" horiz-adv-x="762" 
d="M712 350c0 -245 -101 -350 -336 -350h-256v350h-90v82h90v268h256c235 0 336 -105 336 -350zM371 605h-126v-173h168v-82h-168v-255h126c147 0 209 75 209 255s-62 255 -209 255z" />
    <glyph glyph-name="dcroat" unicode="&#x111;" horiz-adv-x="651" 
d="M530 630h91v-57h-90v-573h-90l-17 56c-35 -45 -90 -66 -169 -66c-151 0 -215 78 -215 260s64 260 215 260c73 0 126 -18 161 -57v120h-189v57h189v70h114v-70zM285 78c92 0 131 52 131 172s-39 172 -131 172s-132 -52 -132 -172s40 -172 132 -172z" />
    <glyph glyph-name="Emacron" unicode="&#x112;" horiz-adv-x="616" 
d="M576 605h-361v-194h321v-94h-321v-222h361v-95h-486v700h486v-95zM163 831h340v-70h-340v70z" />
    <glyph glyph-name="emacron" unicode="&#x113;" 
d="M530 204h-378c9 -96 49 -138 133 -138c67 0 100 24 117 86h108c-23 -113 -91 -162 -225 -162c-172 0 -245 78 -245 260s73 260 245 260c171 0 245 -80 245 -267v-39zM284 434c-88 0 -129 -48 -134 -161h265c0 115 -39 161 -131 161zM113 653h340v-69h-340v69z" />
    <glyph glyph-name="Ebreve" unicode="&#x114;" horiz-adv-x="616" 
d="M576 605h-361v-194h321v-94h-321v-222h361v-95h-486v700h486v-95zM495 870c0 -84 -49 -120 -162 -120s-162 36 -162 120h85c0 -42 19 -60 66 -62c3 -1 7 -1 11 -1c56 0 77 18 77 63h85z" />
    <glyph glyph-name="ebreve" unicode="&#x115;" 
d="M530 204h-378c9 -96 49 -138 133 -138c67 0 100 24 117 86h108c-23 -113 -91 -162 -225 -162c-172 0 -245 78 -245 260s73 260 245 260c171 0 245 -80 245 -267v-39zM284 434c-88 0 -129 -48 -134 -161h265c0 115 -39 161 -131 161zM445 700c0 -105 -48 -150 -161 -150
s-162 45 -162 150h79c0 -60 23 -87 83 -87c59 0 83 26 83 87h78z" />
    <glyph glyph-name="Edotaccent" unicode="&#x116;" horiz-adv-x="616" 
d="M576 605h-361v-194h321v-94h-321v-222h361v-95h-486v700h486v-95zM333 870c49 0 71 -19 71 -62c0 -42 -22 -60 -71 -60c-50 0 -71 18 -71 60c0 43 21 62 71 62z" />
    <glyph glyph-name="edotaccent" unicode="&#x117;" 
d="M530 204h-378c9 -96 49 -138 133 -138c67 0 100 24 117 86h108c-23 -113 -91 -162 -225 -162c-172 0 -245 78 -245 260s73 260 245 260c171 0 245 -80 245 -267v-39zM284 434c-88 0 -129 -48 -134 -161h265c0 115 -39 161 -131 161zM287 705c49 0 71 -21 71 -68
s-22 -67 -72 -67c-49 0 -70 21 -70 67c0 47 21 68 71 68z" />
    <glyph glyph-name="Eogonek" unicode="&#x118;" horiz-adv-x="616" 
d="M536 0h-1c-74 -57 -90 -149 -17 -149c29 0 53 15 53 15v-96s-30 -20 -70 -20c-124 0 -141 164 -27 250h-384v700h486v-95h-361v-194h321v-94h-321v-222h361v-95h-40z" />
    <glyph glyph-name="eogonek" unicode="&#x119;" 
d="M511 151c-18 -88 -65 -138 -147 -155c-71 -57 -86 -146 -14 -146c28 0 53 15 53 15v-96s-30 -20 -70 -20c-119 0 -139 152 -39 240h-9c-172 0 -245 78 -245 260s73 260 245 260c171 0 245 -80 245 -267v-39h-377c9 -96 49 -138 133 -138c67 0 100 24 117 86h108zM287 434
c-88 0 -129 -48 -134 -161h265c0 115 -39 161 -131 161z" />
    <glyph glyph-name="Ecaron" unicode="&#x11a;" horiz-adv-x="616" 
d="M576 605h-361v-194h321v-94h-321v-222h361v-95h-486v700h486v-95zM476 870l-92 -120h-114l-92 120h81l68 -69l68 69h81z" />
    <glyph glyph-name="ecaron" unicode="&#x11b;" 
d="M530 204h-378c9 -96 49 -138 133 -138c67 0 100 24 117 86h108c-23 -113 -91 -162 -225 -162c-172 0 -245 78 -245 260s73 260 245 260c171 0 245 -80 245 -267v-39zM284 434c-88 0 -129 -48 -134 -161h265c0 115 -39 161 -131 161zM429 700l-88 -150h-114l-88 150h74
l71 -92l70 92h75z" />
    <glyph glyph-name="Gbreve" unicode="&#x11e;" horiz-adv-x="770" 
d="M395 307v88h325v-45c0 -259 -98 -370 -325 -370c-242 0 -345 111 -345 370s103 370 345 370c187 0 281 -72 315 -240h-120c-23 98 -81 139 -195 139c-151 0 -214 -79 -214 -269s63 -269 214 -269c145 0 205 66 205 226h-205zM557 870c0 -84 -49 -120 -162 -120
s-162 36 -162 120h85c0 -51 32 -63 77 -63c55 0 77 18 77 63h85z" />
    <glyph glyph-name="gbreve" unicode="&#x11f;" horiz-adv-x="600" 
d="M255 -10c-151 0 -215 79 -215 261s64 259 215 259c79 0 135 -21 170 -68l15 58h90v-450c0 -182 -74 -260 -245 -260c-139 0 -206 49 -225 162h107c14 -62 46 -86 112 -86c97 0 137 49 137 165v16c-35 -39 -88 -57 -161 -57zM285 79c93 0 131 50 131 172
c0 121 -38 172 -131 172s-132 -51 -132 -172s38 -172 132 -172zM459 700c0 -105 -49 -149 -162 -149s-162 44 -162 149h79c0 -59 23 -86 83 -86c59 0 83 25 83 86h79z" />
    <glyph glyph-name="Gdotaccent" unicode="&#x120;" horiz-adv-x="770" 
d="M395 307v88h325v-45c0 -259 -98 -370 -325 -370c-242 0 -345 111 -345 370s103 370 345 370c187 0 281 -72 315 -240h-120c-23 98 -81 139 -195 139c-151 0 -214 -79 -214 -269s63 -269 214 -269c145 0 205 66 205 226h-205zM395 870c49 0 71 -19 71 -62
c0 -42 -22 -60 -71 -60c-50 0 -71 18 -71 60c0 43 21 62 71 62z" />
    <glyph glyph-name="gdotaccent" unicode="&#x121;" horiz-adv-x="600" 
d="M255 -10c-151 0 -215 79 -215 261s64 259 215 259c79 0 135 -21 170 -68l15 58h90v-450c0 -182 -74 -260 -245 -260c-139 0 -206 49 -225 162h107c14 -62 46 -86 112 -86c97 0 137 49 137 165v16c-35 -39 -88 -57 -161 -57zM285 79c93 0 131 50 131 172
c0 121 -38 172 -131 172s-132 -51 -132 -172s38 -172 132 -172zM301 698c50 0 71 -21 71 -67c0 -47 -21 -68 -71 -68c-49 0 -71 21 -71 68s22 67 71 67z" />
    <glyph glyph-name="Gcedilla" unicode="&#x122;" horiz-adv-x="770" 
d="M395 307v88h325v-45c0 -259 -98 -370 -325 -370c-242 0 -345 111 -345 370s103 370 345 370c187 0 281 -72 315 -240h-120c-23 98 -81 139 -195 139c-151 0 -214 -79 -214 -269s63 -269 214 -269c144 0 205 66 205 226h-205zM395 -44c32 0 48 -16 52 -52
c1 -8 1 -17 1 -27c-1 -73 -31 -104 -97 -104v44c29 0 41 14 41 48c-34 0 -50 12 -51 40c0 4 0 7 1 11c2 28 18 40 53 40z" />
    <glyph glyph-name="gcedilla" unicode="&#x123;" horiz-adv-x="600" 
d="M254 -10c-151 0 -215 79 -215 261s64 259 215 259c79 0 135 -21 170 -68l15 58h90v-450c0 -182 -74 -260 -245 -260c-139 0 -206 49 -225 162h107c14 -62 46 -86 112 -86c97 0 137 49 137 165v16c-35 -39 -88 -57 -161 -57zM284 79c93 0 131 50 131 172
c0 121 -38 172 -131 172s-132 -51 -132 -172s38 -172 132 -172zM287 553h-1c-50 0 -53 41 -53 79c0 73 30 104 97 104v-44c-28 0 -40 -14 -40 -48c39 0 50 -14 50 -51c-2 -28 -19 -40 -53 -40z" />
    <glyph glyph-name="Itilde" unicode="&#x128;" horiz-adv-x="303" 
d="M89 700h125v-700h-125v700zM-10 760c0 70 41 106 93 106c82 0 100 -59 148 -59c19 0 33 15 33 43h49c0 -70 -42 -106 -93 -106c-82 0 -100 59 -149 59c-18 0 -32 -15 -32 -43h-49z" />
    <glyph glyph-name="itilde" unicode="&#x129;" horiz-adv-x="263" 
d="M188 0h-113v500h113v-500zM-30 576c0 70 41 123 93 123c82 0 101 -85 143 -85c18 0 32 19 32 52h55c0 -70 -42 -122 -93 -122c-82 0 -101 85 -143 85c-18 0 -32 -19 -32 -53h-55z" />
    <glyph glyph-name="Imacron" unicode="&#x12a;" horiz-adv-x="320" 
d="M98 700h125v-700h-125v700zM-10 827h340v-69h-340v69z" />
    <glyph glyph-name="imacron" unicode="&#x12b;" horiz-adv-x="260" 
d="M187 0h-113v500h113v-500zM-40 653h340v-69h-340v69z" />
    <glyph glyph-name="Iogonek" unicode="&#x12e;" horiz-adv-x="314" 
d="M234 -230c1 0 -30 -20 -70 -20c-124 0 -140 164 -27 250h-41v700h125v-700h-23c-74 -57 -90 -149 -16 -149c27 0 52 15 52 15v-96z" />
    <glyph glyph-name="iogonek" unicode="&#x12f;" horiz-adv-x="284" 
d="M177 0c-74 -57 -90 -149 -16 -149c28 0 53 15 53 15v-96s-31 -20 -71 -20c-124 0 -140 164 -27 250h-29v500h113v-500h-23zM143 715c50 0 71 -21 71 -67c0 -47 -21 -68 -71 -68c-49 0 -71 21 -71 68s22 67 71 67z" />
    <glyph glyph-name="Idotaccent" unicode="&#x130;" horiz-adv-x="322" 
d="M99 700h125v-700h-125v700zM161 870c50 0 71 -19 71 -62c0 -42 -21 -60 -71 -60c-49 0 -71 18 -71 60c0 43 22 62 71 62z" />
    <glyph glyph-name="dotlessi" unicode="&#x131;" horiz-adv-x="253" 
d="M183 0h-113v500h113v-500z" />
    <glyph glyph-name="IJ" unicode="&#x132;" horiz-adv-x="866" 
d="M90 700h125v-700h-125v700zM330 210v29h119v-29c0 -91 31 -129 106 -129s106 37 106 129v490h125v-490c0 -157 -69 -224 -231 -224c-158 0 -225 67 -225 224z" />
    <glyph glyph-name="ij" unicode="&#x133;" horiz-adv-x="534" 
d="M198 0h-114v500h114v-500zM261 -92c51 0 75 28 75 69v523h113v-535c0 -89 -51 -145 -147 -145h-106v88h65zM141 715c49 0 71 -21 71 -67c0 -47 -22 -68 -72 -68c-49 0 -70 21 -70 68s21 67 71 67zM393 715c49 0 71 -21 71 -67c0 -47 -22 -68 -72 -68c-49 0 -70 21 -70 68
s21 67 71 67z" />
    <glyph glyph-name="Kcedilla" unicode="&#x136;" horiz-adv-x="687" 
d="M216 700v-290l268 290h153l-313 -340l333 -360h-153l-288 310v-310h-126v700h126zM331 -44c37 0 53 -24 53 -79c0 -73 -31 -104 -97 -104v44c29 0 41 14 41 48c-36 0 -51 12 -51 40c0 36 16 51 54 51z" />
    <glyph glyph-name="kcedilla" unicode="&#x137;" horiz-adv-x="559" 
d="M184 700v-405l200 205h135l-233 -240l253 -260h-135l-220 225v-225h-114v700h114zM274.44 -44c36.6904 -0.19043 52.5605 -24.2207 52.5605 -79.001c0 -73 -30 -104 -96 -104v44c29 0 41 14 41 48c-35 0 -50 12 -50 40c0 35.8203 15.8398 50.8506 52.4395 51.001z" />
    <glyph glyph-name="Lacute" unicode="&#x139;" horiz-adv-x="576" 
d="M536 101v-101h-446v700h125v-599h321zM99 750l99 120h111l-117 -120h-93z" />
    <glyph glyph-name="lacute" unicode="&#x13a;" horiz-adv-x="260" 
d="M70 0v700h114v-700h-114zM70 750l99 120h111l-117 -120h-93z" />
    <glyph glyph-name="Lcedilla" unicode="&#x13b;" horiz-adv-x="563" 
d="M537 101v-101h-447v700h126v-599h321zM313.44 -44c36.6904 -0.19043 52.5605 -24.2207 52.5605 -79.001c0 -73 -30 -104 -96 -104v44c29 0 41 14 41 48c-35 0 -50 12 -50 40c0 35.8203 15.8398 50.8506 52.4395 51.001z" />
    <glyph glyph-name="lcedilla" unicode="&#x13c;" horiz-adv-x="254" 
d="M70 0v700h114v-700h-114zM127 -44c37 0 53 -24 53 -79c0 -73 -29 -104 -96 -104v44c28 0 41 14 41 48c-36 0 -51 12 -51 40c0 36 16 51 53 51z" />
    <glyph glyph-name="Lcaron" unicode="&#x13d;" horiz-adv-x="576" 
d="M536 101v-101h-446v700h125v-599h321zM313 710c37 0 53 -24 53 -79c0 -73 -31 -104 -97 -104v44c29 0 41 14 41 48c-36 0 -51 12 -51 40c0 36 16 51 54 51z" />
    <glyph glyph-name="lcaron" unicode="&#x13e;" horiz-adv-x="374" 
d="M70 0v700h113v-700h-113zM281 710c38 0 53 -23 53 -79c0 -73 -30 -105 -97 -105v45c29 0 41 14 41 48c-35 0 -50 12 -50 40c0 31 20 51 53 51z" />
    <glyph glyph-name="Lslash" unicode="&#x141;" horiz-adv-x="611" 
d="M571 101v-101h-447v307l-94 -57v90l94 57v303h125v-227l220 133v-90l-220 -133v-282h322z" />
    <glyph glyph-name="lslash" unicode="&#x142;" horiz-adv-x="361" 
d="M30 290v90l94 57v263h113v-194l94 57v-89l-94 -57v-417h-113v347z" />
    <glyph glyph-name="Nacute" unicode="&#x143;" horiz-adv-x="762" 
d="M552 700h120v-700h-148l-315 537v-537h-119v700h147l315 -537v537zM321 750l100 120h111l-117 -120h-94z" />
    <glyph glyph-name="nacute" unicode="&#x144;" horiz-adv-x="580" 
d="M175 452c32 40 82 58 153 58c134 0 192 -72 192 -240v-270h-114v270c0 108 -31 152 -107 152c-81 0 -116 -45 -116 -152v-270h-113v500h90zM340 700h116l-128 -150h-92z" />
    <glyph glyph-name="Ncedilla" unicode="&#x145;" horiz-adv-x="762" 
d="M553 700h119v-700h-147l-315 537v-537h-120v700h148l315 -537v537zM381 -44c38 0 54 -24 54 -79c0 -73 -31 -104 -97 -104v44c29 0 41 14 41 48c-36 0 -51 12 -51 40c0 36 16 51 53 51z" />
    <glyph glyph-name="ncedilla" unicode="&#x146;" horiz-adv-x="580" 
d="M175 452c32 40 82 58 153 58c134 0 192 -72 192 -240v-270h-114v270c0 108 -31 152 -107 152c-81 0 -116 -45 -116 -152v-270h-113v500h90zM295 -44c37 0 53 -24 53 -79c0 -73 -31 -104 -97 -104v44c29 0 41 14 41 48c-34 0 -51 12 -51 40c0 36 16 51 54 51z" />
    <glyph glyph-name="Ncaron" unicode="&#x147;" horiz-adv-x="762" 
d="M552 700h120v-700h-148l-315 537v-537h-119v700h147l315 -537v537zM524 870l-92 -120h-114l-93 120h81l69 -69l68 69h81z" />
    <glyph glyph-name="ncaron" unicode="&#x148;" horiz-adv-x="580" 
d="M175 452c32 40 82 58 153 58c134 0 192 -72 192 -240v-270h-114v270c0 108 -31 152 -107 152c-81 0 -116 -45 -116 -152v-270h-113v500h90zM352 550h-114l-88 150h74l71 -92l70 92h75z" />
    <glyph glyph-name="Omacron" unicode="&#x14c;" horiz-adv-x="790" 
d="M395 720c241 0 345 -111 345 -370s-104 -370 -345 -370c-242 0 -345 111 -345 370s103 370 345 370zM395 619c-151 0 -214 -79 -214 -269s63 -269 214 -269s214 79 214 269s-63 269 -214 269zM225 835h340v-70h-340v70z" />
    <glyph glyph-name="omacron" unicode="&#x14d;" horiz-adv-x="590" 
d="M295 510c178 0 255 -78 255 -260s-77 -260 -255 -260c-179 0 -255 78 -255 260s76 260 255 260zM153 250c0 -121 42 -172 142 -172s141 51 141 172s-41 172 -141 172c-101 0 -142 -50 -142 -172zM124 635h340v-70h-340v70z" />
    <glyph glyph-name="Obreve" unicode="&#x14e;" horiz-adv-x="790" 
d="M395 720c241 0 345 -111 345 -370s-104 -370 -345 -370c-242 0 -345 111 -345 370s103 370 345 370zM395 619c-151 0 -214 -79 -214 -269s63 -269 214 -269s214 79 214 269s-63 269 -214 269zM557 870c0 -84 -49 -120 -162 -120s-162 36 -162 120h85c0 -44 23 -63 77 -63
s77 19 77 63h85z" />
    <glyph glyph-name="obreve" unicode="&#x14f;" horiz-adv-x="590" 
d="M295 510c178 0 255 -78 255 -260s-77 -260 -255 -260c-179 0 -255 78 -255 260s76 260 255 260zM153 250c0 -121 42 -172 142 -172s141 51 141 172s-41 172 -141 172c-101 0 -142 -50 -142 -172zM456 700c0 -105 -48 -150 -161 -150s-162 45 -162 150h79
c0 -61 25 -87 83 -87s83 26 83 87h78z" />
    <glyph glyph-name="Ohungarumlaut" unicode="&#x150;" horiz-adv-x="790" 
d="M395 720c241 0 345 -111 345 -370s-104 -370 -345 -370c-242 0 -345 111 -345 370s103 370 345 370zM395 619c-151 0 -214 -79 -214 -269s63 -269 214 -269s214 79 214 269s-63 269 -214 269zM256 750l95 150h110l-118 -150h-87zM441 750l94 150h110l-118 -150h-86z" />
    <glyph glyph-name="ohungarumlaut" unicode="&#x151;" horiz-adv-x="590" 
d="M295 510c178 0 255 -78 255 -260s-77 -260 -255 -260c-179 0 -255 78 -255 260s76 260 255 260zM153 250c0 -121 42 -172 142 -172s141 51 141 172s-41 172 -141 172c-101 0 -142 -50 -142 -172zM156 550l95 150h110l-118 -150h-87zM341 550l94 150h110l-118 -150h-86z
" />
    <glyph glyph-name="OE" unicode="&#x152;" horiz-adv-x="1124" 
d="M1084 700h1v-96h-350v-194h310v-94h-310v-222h350v-95h-464v95c-61 -107 -161 -114 -222 -114c-243 0 -348 115 -348 379c0 252 96 361 319 361c128 0 205 -36 250 -115v95h464zM396 619c-151 0 -214 -79 -214 -269s63 -269 214 -269s214 79 214 269s-63 269 -214 269z
" />
    <glyph glyph-name="oe" unicode="&#x153;" horiz-adv-x="956" 
d="M539 204c8 -81 40 -138 132 -138c63 0 101 28 117 86h108c-22 -102 -104 -162 -225 -162c-82 0 -142 25 -181 73c-36 -50 -98 -73 -195 -73c-179 0 -255 78 -255 260s76 260 255 260c97 0 159 -23 195 -73c39 48 99 73 181 73c156 0 245 -96 245 -267v-39h-377zM154 250
c0 -121 42 -172 142 -172s141 51 141 172s-41 172 -141 172c-101 0 -142 -50 -142 -172zM671 434c-99 0 -130 -67 -134 -161h265c0 108 -44 161 -131 161z" />
    <glyph glyph-name="Racute" unicode="&#x154;" horiz-adv-x="712" 
d="M386 261h-171v-261h-125v700h309c181 0 255 -92 255 -222c0 -106 -44 -178 -147 -205l155 -273h-133zM215 350h178c94 0 136 45 136 128c0 82 -41 127 -136 127h-178v-255zM276 750l99 120h111l-117 -120h-93z" />
    <glyph glyph-name="racute" unicode="&#x155;" horiz-adv-x="399" 
d="M183 250v-250h-113v500h90l16 -52c28 41 70 62 124 62h63v-101h-63c-91 0 -117 -39 -117 -159zM149 550l104 150h116l-127 -150h-93z" />
    <glyph glyph-name="Rcedilla" unicode="&#x156;" horiz-adv-x="713" 
d="M531 0l-144 261h-171v-261h-126v700h310c181 0 255 -92 255 -222c0 -106 -44 -178 -147 -205l155 -273h-132zM217 350h178c94 0 135 45 135 128c0 82 -40 127 -135 127h-178v-255zM349 -44c37 0 53 -24 53 -79c0 -73 -30 -104 -96 -104v44c28 0 40 14 40 48
c-35 0 -50 12 -50 40c0 36 16 51 53 51z" />
    <glyph glyph-name="rcedilla" unicode="&#x157;" horiz-adv-x="394" 
d="M184 250v-250h-113v500h90l16 -52c28 41 70 62 124 62h63v-101h-63c-91 0 -117 -39 -117 -159zM123 -44c37 0 53 -24 53 -79c0 -73 -30 -104 -96 -104v44c28 0 41 14 41 48c-36 0 -51 12 -51 40c0 36 16 51 53 51z" />
    <glyph glyph-name="Rcaron" unicode="&#x158;" horiz-adv-x="712" 
d="M382 259v1h-167v-259h-125v700h309c183 0 255 -106 255 -222c0 -94 -44 -176 -152 -207l160 -272h-133zM215 350h184c97 0 130 62 130 128c0 69 -33 127 -130 127h-184v-255zM478 871l-92 -120h-114l-92 120h81l68 -69l68 69h81z" />
    <glyph glyph-name="rcaron" unicode="&#x159;" horiz-adv-x="400" 
d="M190 250v-250h-113v500h90l16 -52c28 41 70 62 124 62h63v-101h-63c-91 0 -117 -39 -117 -159zM360 700l-88 -150h-113l-89 150h74l71 -92l71 92h74z" />
    <glyph glyph-name="Sacute" unicode="&#x15a;" horiz-adv-x="650" 
d="M179 520c0 -155 421 -55 421 -321c0 -153 -83 -219 -275 -219c-193 0 -275 66 -275 220h113c0 -94 47 -132 162 -132c111 0 155 33 155 112c0 178 -420 71 -420 321c0 153 79 219 265 219c185 0 265 -66 265 -220h-114c0 93 -44 132 -151 132c-104 0 -146 -32 -146 -112z
M266 750l99 120h111l-117 -120h-93z" />
    <glyph glyph-name="sacute" unicode="&#x15b;" horiz-adv-x="504" 
d="M152 373c0 -113 312 -24 312 -224c0 -111 -66 -159 -219 -159c-144 0 -205 48 -205 160h107c0 -64 30 -90 102 -90s101 22 101 76c0 124 -306 29 -306 225c0 104 61 149 205 149c139 0 199 -45 199 -150h-102c0 57 -28 80 -97 80s-97 -19 -97 -67zM190 550l104 150h116
l-128 -150h-92z" />
    <glyph glyph-name="Scircumflex" unicode="&#x15c;" horiz-adv-x="650" 
d="M179 520c0 -155 421 -55 421 -321c0 -153 -83 -219 -275 -219c-193 0 -275 66 -275 220h113c0 -94 47 -132 162 -132c111 0 155 33 155 112c0 178 -420 71 -420 321c0 153 79 219 265 219c185 0 265 -66 265 -220h-114c0 93 -44 132 -151 132c-104 0 -146 -32 -146 -112z
M474 750h-81l-68 69l-68 -69h-81l92 120h114z" />
    <glyph glyph-name="scircumflex" unicode="&#x15d;" horiz-adv-x="504" 
d="M152 373c0 -113 312 -24 312 -224c0 -111 -66 -159 -219 -159c-144 0 -205 48 -205 160h107c0 -64 30 -90 102 -90s101 22 101 76c0 124 -306 29 -306 225c0 104 61 149 205 149c139 0 199 -45 199 -150h-102c0 57 -28 80 -97 80s-97 -19 -97 -67zM394 550h-74l-71 92
l-71 -92h-74l88 150h114z" />
    <glyph glyph-name="Scedilla" unicode="&#x15e;" horiz-adv-x="650" 
d="M282 -19l1 1c-163 9 -233 76 -233 218h113c0 -94 47 -132 162 -132c111 0 155 33 155 112c0 178 -420 71 -420 321c0 153 79 219 265 219c185 0 265 -66 265 -220h-114c0 93 -44 132 -151 132c-104 0 -146 -32 -146 -112c0 -155 421 -55 421 -321
c0 -147 -77 -214 -254 -219l-9 -31s99 -15 99 -89c0 -70 -73 -110 -202 -110v51c76 0 117 18 117 59c0 35 -55 45 -91 45z" />
    <glyph glyph-name="scedilla" unicode="&#x15f;" horiz-adv-x="504" 
d="M210 -9v1c-119 8 -170 57 -170 159h107c0 -64 30 -90 102 -90s101 22 101 76c0 124 -306 29 -306 225c0 104 61 149 205 149c139 0 199 -45 199 -150h-102c0 57 -28 80 -97 80s-97 -19 -97 -67c0 -113 312 -24 312 -224c0 -104 -58 -153 -191 -159l-11 -42s99 -15 99 -89
c0 -70 -73 -110 -202 -110v51c76 0 117 18 117 59c0 35 -55 45 -91 45z" />
    <glyph glyph-name="Scaron" unicode="&#x160;" horiz-adv-x="650" 
d="M179 520c0 -155 421 -55 421 -321c0 -153 -83 -219 -275 -219c-193 0 -275 66 -275 220h113c0 -94 47 -132 162 -132c111 0 155 33 155 112c0 178 -420 71 -420 321c0 153 79 219 265 219c185 0 265 -66 265 -220h-114c0 93 -44 132 -151 132c-104 0 -146 -32 -146 -112z
M468 870l-92 -120h-114l-92 120h81l68 -69l68 69h81z" />
    <glyph glyph-name="scaron" unicode="&#x161;" horiz-adv-x="504" 
d="M152 373c0 -113 312 -24 312 -224c0 -111 -66 -159 -219 -159c-144 0 -205 48 -205 160h107c0 -64 30 -90 102 -90s101 22 101 76c0 124 -306 29 -306 225c0 104 61 149 205 149c139 0 199 -45 199 -150h-102c0 57 -28 80 -97 80s-97 -19 -97 -67zM394 700l-88 -150h-114
l-88 150h74l71 -93l71 93h74z" />
    <glyph glyph-name="Tcedilla" unicode="&#x162;" horiz-adv-x="630" 
d="M280 0h-28v599h-212v101h550v-101h-212v-599h-36l-14 -51s99 -15 99 -89c0 -70 -72 -110 -202 -110v51c76 0 117 18 117 59c0 35 -55 45 -90 45z" />
    <glyph glyph-name="tcedilla" unicode="&#x163;" horiz-adv-x="402" 
d="M208 6c-64 17 -98 67 -98 139v279h-80v76h80v122h114v-122h148v-76h-148v-267c0 -41 24 -69 75 -69h73v-88h-103l-15 -51s99 -15 99 -89c0 -70 -72 -110 -202 -110v51c77 0 118 18 118 59c0 35 -55 45 -91 45z" />
    <glyph glyph-name="Tcaron" unicode="&#x164;" horiz-adv-x="630" 
d="M590 700v-101h-212v-599h-126v599h-212v101h550zM458 870l-92 -120h-114l-92 120h81l68 -69l68 69h81z" />
    <glyph glyph-name="tcaron" unicode="&#x165;" horiz-adv-x="402" 
d="M224 157c0 -41 24 -69 75 -69h73v-88h-114c-96 0 -148 56 -148 145v279h-80v76h80v122h114v-122h148v-76h-148v-267zM316 715v-0.00976562h-0.549805c36.6797 -0.19043 52.5498 -24.2207 52.5498 -79.9902c0 -75 -30 -108 -96 -108v45c29 0 41 15 41 52
c-35 0 -50 12 -50 44c0 30.8496 15.8398 46.8398 52.4502 47h0.549805z" />
    <glyph glyph-name="Utilde" unicode="&#x168;" horiz-adv-x="730" 
d="M80 256v444h125v-444c0 -123 47 -175 160 -175c112 0 159 52 159 175v444h126v-444c0 -193 -86 -276 -285 -276c-200 0 -285 83 -285 276zM203 760c0 70 42 106 93 106c82 0 100 -59 149 -59c18 0 32 15 32 43h49c0 -70 -41 -106 -93 -106c-82 0 -100 59 -148 59
c-19 0 -33 -15 -33 -43h-49z" />
    <glyph glyph-name="utilde" unicode="&#x169;" horiz-adv-x="580" 
d="M399 48c-32 -40 -82 -58 -153 -58c-134 0 -192 72 -192 240v270h114v-270c0 -108 31 -152 107 -152c81 0 116 45 116 152v270h113v-500h-90zM122 600c0 70 42 122 93 122c82 0 101 -85 143 -85c18 0 32 19 32 53h55c0 -70 -41 -122 -93 -122c-82 0 -101 85 -142 85
c-19 0 -33 -19 -33 -53h-55z" />
    <glyph glyph-name="Umacron" unicode="&#x16a;" horiz-adv-x="730" 
d="M80 256v444h125v-444c0 -123 47 -175 160 -175c112 0 159 52 159 175v444h126v-444c0 -193 -86 -276 -285 -276c-200 0 -285 83 -285 276zM194 831h340v-70h-340v70z" />
    <glyph glyph-name="umacron" unicode="&#x16b;" horiz-adv-x="580" 
d="M399 48c-32 -40 -82 -58 -153 -58c-134 0 -192 72 -192 240v270h114v-270c0 -108 31 -152 107 -152c81 0 116 45 116 152v270h113v-500h-90zM114 584v69h340v-69h-340z" />
    <glyph glyph-name="Ubreve" unicode="&#x16c;" horiz-adv-x="730" 
d="M80 256v444h125v-444c0 -123 47 -175 160 -175c112 0 159 52 159 175v444h126v-444c0 -193 -86 -276 -285 -276c-200 0 -285 83 -285 276zM526 870c0 -84 -48 -120 -161 -120s-162 36 -162 120h84c0 -44 23 -63 78 -63s77 18 77 63h84z" />
    <glyph glyph-name="ubreve" unicode="&#x16d;" horiz-adv-x="580" 
d="M399 48c-32 -40 -82 -58 -153 -58c-134 0 -192 72 -192 240v270h114v-270c0 -108 31 -152 107 -152c81 0 116 45 116 152v270h113v-500h-90zM357 700h78c0 -105 -48 -150 -161 -150s-162 45 -162 150h79c0 -61 25 -87 83 -87c59 0 83 26 83 87z" />
    <glyph glyph-name="Uring" unicode="&#x16e;" horiz-adv-x="730" 
d="M80 256v444h125v-444c0 -123 47 -175 160 -175c112 0 159 52 159 175v444h126v-444c0 -193 -86 -276 -285 -276c-200 0 -285 83 -285 276zM365 895c82 0 117 -31 117 -103c0 -71 -35 -102 -117 -102c-83 0 -118 31 -118 102c0 72 35 103 118 103zM365 741
c41 0 56 15 56 51c0 37 -16 52 -56 52c-41 0 -57 -15 -57 -52c0 -36 16 -51 57 -51z" />
    <glyph glyph-name="uring" unicode="&#x16f;" horiz-adv-x="580" 
d="M399 48c-32 -40 -82 -58 -153 -58c-134 0 -192 72 -192 240v270h114v-270c0 -108 31 -152 107 -152c81 0 116 45 116 152v270h113v-500h-90zM281 742c82 0 117 -30 117 -102s-35 -103 -117 -103s-118 31 -118 103s36 102 118 102zM281 589c41 0 56 14 56 51
s-15 51 -56 51s-57 -14 -57 -51s16 -51 57 -51z" />
    <glyph glyph-name="Uhungarumlaut" unicode="&#x170;" horiz-adv-x="730" 
d="M80 256v444h125v-444c0 -123 47 -175 160 -175c112 0 159 52 159 175v444h126v-444c0 -193 -86 -276 -285 -276c-200 0 -285 83 -285 276zM226 750l95 150h110l-118 -150h-87zM411 750l94 150h110l-118 -150h-86z" />
    <glyph glyph-name="uhungarumlaut" unicode="&#x171;" horiz-adv-x="588" 
d="M399 48c-32 -40 -82 -58 -153 -58c-134 0 -192 72 -192 240v270h114v-270c0 -108 31 -152 107 -152c81 0 116 45 116 152v270h113v-500h-90zM224 700h110l-118 -150h-87zM408 700h110l-118 -150h-86z" />
    <glyph glyph-name="Uogonek" unicode="&#x172;" horiz-adv-x="730" 
d="M650 255c0 -149 -52 -232 -166 -262c-67 -57 -80 -142 -9 -142c29 0 53 15 53 15v-96s-30 -20 -70 -20c-116 0 -138 142 -48 231c-14 -1 -29 -2 -45 -2c-200 0 -285 83 -285 276v444h125v-444c0 -123 47 -175 160 -175c112 0 159 52 159 175v444h126v-444z" />
    <glyph glyph-name="uogonek" unicode="&#x173;" horiz-adv-x="584" 
d="M417 0h-2l-15 48c-32 -40 -82 -58 -153 -58c-134 0 -192 72 -192 240v270h114v-270c0 -108 31 -152 107 -152c81 0 116 45 116 152v270h113v-500h-26c-74 -57 -91 -149 -17 -149c28 0 53 15 53 15v-96s-30 -20 -70 -20c-124 0 -141 164 -28 250z" />
    <glyph glyph-name="Wcircumflex" unicode="&#x174;" horiz-adv-x="1022" 
d="M436 700h150l127 -583l143 583h126l-184 -700h-162l-130 584l-120 -584h-162l-184 700h126l143 -583zM657 750h-81l-68 69l-68 -69h-81l92 120h114z" />
    <glyph glyph-name="wcircumflex" unicode="&#x175;" horiz-adv-x="857" 
d="M670 0l-1 -1h-138l-103 419l-103 -418h-138l-157 500h115l116 -410l101 410h138l96 -411l116 411h115zM572 550h-75l-70 92l-71 -92h-75l89 150h113z" />
    <glyph glyph-name="Ycircumflex" unicode="&#x176;" horiz-adv-x="665" 
d="M395 275v-275h-119v275l-246 425h138l168 -309l167 309h132zM484 750h-81l-69 69l-68 -69h-81l93 120h113z" />
    <glyph glyph-name="ycircumflex" unicode="&#x177;" horiz-adv-x="531" 
d="M235 4l3 9l-218 487h109l154 -354l119 354h109l-190 -533c-37 -103 -89 -147 -174 -147h-64v76h58c39 0 67 32 94 108zM416 550h-74l-71 92l-70 -92h-75l89 150h113z" />
    <glyph glyph-name="Ydieresis" unicode="&#x178;" horiz-adv-x="665" 
d="M395 275v-275h-119v275l-246 425h138l168 -309l167 309h132zM229 860c49 0 71 -19 71 -62c0 -42 -21 -60 -71 -60c-49 0 -71 18 -71 60c0 43 21 62 71 62zM439 860c50 0 71 -19 71 -62c0 -42 -21 -60 -71 -60c-49 0 -71 18 -71 60c0 43 22 62 71 62z" />
    <glyph glyph-name="Zacute" unicode="&#x179;" horiz-adv-x="627" 
d="M187 95h400v-95h-547v79l390 526h-380v95h527v-79zM248 750l100 120h111l-118 -120h-93z" />
    <glyph glyph-name="zacute" unicode="&#x17a;" horiz-adv-x="487" 
d="M166 82h291v-82h-427v67l282 351h-272v82h407v-67zM185 550l104 150h116l-128 -150h-92z" />
    <glyph glyph-name="Zdotaccent" unicode="&#x17b;" horiz-adv-x="627" 
d="M187 95h400v-95h-547v79l390 526h-380v95h527v-79zM313 870c50 0 71 -19 71 -62c0 -42 -21 -60 -71 -60c-49 0 -71 18 -71 60c0 43 22 62 71 62z" />
    <glyph glyph-name="zdotaccent" unicode="&#x17c;" horiz-adv-x="487" 
d="M166 82h291v-82h-427v67l282 351h-272v82h407v-67zM244 705c49 0 71 -21 71 -68s-22 -67 -72 -67c-49 0 -70 21 -70 67c0 47 21 68 71 68z" />
    <glyph glyph-name="Zcaron" unicode="&#x17d;" horiz-adv-x="627" 
d="M187 95h400v-95h-547v79l390 526h-380v95h527v-79zM457 870l-93 -120h-113l-93 120h81l69 -69l68 69h81z" />
    <glyph glyph-name="zcaron" unicode="&#x17e;" horiz-adv-x="487" 
d="M166 82h291v-82h-427v67l282 351h-272v82h407v-67zM389 700l-88 -150h-114l-88 150h74l71 -92l70 92h75z" />
    <glyph glyph-name="Aacutering" unicode="&#x1fa;" horiz-adv-x="702" 
d="M30 0l241 700h172l229 -700h-132l-49 157h-286l-50 -157h-125zM233 245h230l-114 367zM407 891c39 -12 60 -39 60 -79c0 -56 -46 -86 -117 -86c-72 0 -118 30 -118 86c0 57 46 87 118 87l47 61h76zM351 771c38 0 62 14 62 41c0 28 -24 42 -62 42s-63 -14 -63 -42
c0 -27 25 -41 63 -41z" />
    <glyph glyph-name="aacutering" unicode="&#x1fb;" horiz-adv-x="550" 
d="M386 50c-32 -41 -85 -60 -161 -60c-130 0 -185 47 -185 156c0 119 70 170 233 170h103v24c0 71 -31 100 -104 100c-75 0 -104 -26 -104 -90h-108c0 112 64 160 215 160c149 0 215 -55 215 -182v-328h-90zM376 247h-81c-70 0 -142 -7 -142 -95c0 -58 30 -80 102 -80
c80 0 117 36 121 119v56zM343 788h86l-82 -78c29 -16 44 -43 44 -80c0 -61 -41 -96 -117 -96s-118 35 -118 96s42 96 118 96h14zM275 585c42 0 56 13 56 45s-14 45 -56 45s-57 -13 -57 -45s15 -45 57 -45z" />
    <glyph glyph-name="AEacute" unicode="&#x1fc;" horiz-adv-x="942" 
d="M902 605h-323v-194h283v-94h-283v-222h323v-95h-437v157h-230l-79 -157h-126l361 700h511v-95zM465 614l-186 -369h186v369zM488 750l99 120h111l-117 -120h-93z" />
    <glyph glyph-name="aeacute" unicode="&#x1fd;" horiz-adv-x="905" 
d="M865 204h-374c8 -95 47 -137 131 -137c67 0 100 24 118 86h107c-23 -113 -90 -162 -225 -162c-102 0 -165 36 -195 115c-24 -80 -88 -116 -202 -116c-129 0 -185 47 -185 156c0 115 64 170 214 170h122v24c0 73 -39 94 -107 94c-73 0 -101 -24 -101 -84h-108
c0 112 64 160 215 160c88 0 143 -24 170 -77c34 53 91 77 175 77c172 0 245 -80 245 -267v-39zM375 246h-91c-93 0 -132 -27 -132 -94c0 -75 58 -80 117 -80c75 0 106 40 106 120v54zM622 435c-88 0 -128 -48 -133 -161h265c0 115 -39 161 -132 161zM387 550l104 150h116
l-128 -150h-92z" />
    <glyph glyph-name="Oslashacute" unicode="&#x1fe;" horiz-adv-x="790" 
d="M518 780h78l-30 -88c120 -47 174 -157 174 -343c0 -259 -104 -370 -345 -370c-27 0 -52 1 -76 4l-22 -63h-79l28 78c-136 42 -196 153 -196 351c0 259 103 370 345 370c36 0 69 -2 99 -7zM460 613c-19 4 -41 6 -65 6c-151 0 -214 -79 -214 -269c0 -133 31 -212 101 -247z
M353 83c13 -1 28 -2 42 -2c151 0 214 79 214 269c0 119 -25 194 -81 234zM317 749l100 120h110l-117 -120h-93z" />
    <glyph glyph-name="oslashacute" unicode="&#x1ff;" horiz-adv-x="591" 
d="M295 510c22 0 42 0 61 -2l22 62h55l-25 -73c99 -30 143 -108 143 -246c0 -182 -77 -260 -255 -260c-22 0 -42 1 -61 3l-22 -64h-55l25 74c-99 30 -143 108 -143 246c0 182 76 260 255 260zM294 423c-101 0 -143 -50 -143 -172c0 -81 19 -131 61 -155l112 325
c-9 1 -19 2 -30 2zM375 406l-112 -325c10 -1 20 -2 31 -2c100 0 141 51 141 172c0 81 -18 131 -60 155zM210 551l104 150h116l-127 -150h-93z" />
    <glyph glyph-name="Scommaaccent" unicode="&#x218;" horiz-adv-x="650" 
d="M179 520c0 -155 421 -55 421 -321c0 -153 -83 -219 -275 -219c-193 0 -275 66 -275 220h113c0 -94 47 -132 162 -132c111 0 155 33 155 112c0 178 -420 71 -420 321c0 153 79 219 265 219c185 0 265 -66 265 -220h-114c0 93 -44 132 -151 132c-104 0 -146 -32 -146 -112z
M325 -44c37 0 53 -24 53 -79c-1 -73 -30 -104 -97 -104l1 44c28 0 40 14 40 48c-35 0 -50 12 -50 40c0 36 16 51 53 51z" />
    <glyph glyph-name="scommaaccent" unicode="&#x219;" horiz-adv-x="505" 
d="M152 373c0 -113 313 -24 313 -224c0 -111 -66 -159 -219 -159c-144 0 -206 48 -206 160h108c0 -64 30 -90 102 -90s101 22 101 76c0 124 -306 29 -306 225c0 104 61 149 205 149c139 0 199 -45 199 -150h-102c0 57 -28 80 -97 80s-98 -19 -98 -67zM250 -44
c37 0 53 -24 53 -79c-1 -73 -31 -104 -97 -104v44c29 0 41 14 41 48c-36 0 -51 12 -51 40c0 36 16 51 54 51z" />
    <glyph glyph-name="uni021A" unicode="&#x21a;" horiz-adv-x="630" 
d="M590 700v-101h-213v-599h-125v599h-212v101h550zM315 -44c37 0 53 -24 53 -79c-1 -73 -31 -104 -97 -104v44c29 0 41 14 41 48c-34 0 -51 12 -51 40c0 36 16 51 54 51z" />
    <glyph glyph-name="uni021B" unicode="&#x21b;" horiz-adv-x="402" 
d="M224 157c0 -41 24 -69 75 -69h73v-88h-114c-96 0 -148 56 -148 145v279h-80v76h80v122h114v-122h148v-76h-148v-267zM230 -44c37 0 53 -24 53 -79c-2 -73 -31 -104 -97 -104v44c29 0 41 14 41 48c-36 0 -51 12 -51 40c0 36 16 51 54 51z" />
    <glyph glyph-name="circumflex" unicode="&#x2c6;" horiz-adv-x="370" 
d="M242 700l88 -150h-75l-70 92l-71 -92h-74l88 150h114z" />
    <glyph glyph-name="caron" unicode="&#x2c7;" horiz-adv-x="370" 
d="M330 700l-88 -150h-114l-88 150h74l71 -92l70 92h75z" />
    <glyph glyph-name="breve" unicode="&#x2d8;" horiz-adv-x="403" 
d="M284 700h79c0 -105 -49 -150 -162 -150s-161 45 -161 150h78c0 -61 25 -87 83 -87c59 0 83 26 83 87z" />
    <glyph glyph-name="dotaccent" unicode="&#x2d9;" horiz-adv-x="222" 
d="M110 731c50 0 72 -20 72 -67s-22 -67 -72 -67c-49 0 -70 20 -70 67s21 67 70 67z" />
    <glyph glyph-name="ring" unicode="&#x2da;" horiz-adv-x="315" 
d="M157 722c82 0 118 -30 118 -102s-36 -103 -118 -103s-117 31 -117 103s35 102 117 102zM157 569c41 0 57 14 57 51s-16 51 -57 51s-56 -14 -56 -51s15 -51 56 -51z" />
    <glyph glyph-name="ogonek" unicode="&#x2db;" horiz-adv-x="253" 
d="M133 12h61c-88 -55 -113 -161 -34 -161c28 0 53 15 53 15v-96s-30 -20 -70 -20c-130 0 -142 180 -10 262z" />
    <glyph glyph-name="tilde" unicode="&#x2dc;" horiz-adv-x="403" 
d="M40 600c0 70 41 122 93 122c82 0 101 -85 143 -85c18 0 32 19 32 53h55c0 -70 -42 -122 -93 -122c-82 0 -101 85 -143 85c-18 0 -32 -19 -32 -53h-55z" />
    <glyph glyph-name="hungarumlaut" unicode="&#x2dd;" horiz-adv-x="468" 
d="M40 550l94 150h110l-118 -150h-86zM224 550l94 150h110l-118 -150h-86z" />
    <glyph glyph-name="Wgrave" unicode="&#x1e80;" horiz-adv-x="1022" 
d="M436 700h150l127 -583l143 583h126l-184 -700h-162l-130 584l-120 -584h-162l-184 700h126l143 -583zM567 750h-87l-123 120h105z" />
    <glyph glyph-name="wgrave" unicode="&#x1e81;" horiz-adv-x="857" 
d="M670 0l-1 -1h-138l-103 419l-103 -418h-138l-157 500h115l116 -410l101 410h138l96 -411l116 411h115zM486 550h-93l-127 150h116z" />
    <glyph glyph-name="Wacute" unicode="&#x1e82;" horiz-adv-x="1022" 
d="M436 700h150l127 -583l143 583h126l-184 -700h-162l-130 584l-120 -584h-162l-184 700h126l143 -583zM449 750l99 120h111l-117 -120h-93z" />
    <glyph glyph-name="wacute" unicode="&#x1e83;" horiz-adv-x="857" 
d="M670 0l-1 -1h-138l-103 419l-103 -418h-138l-157 500h115l116 -410l101 410h138l96 -411l116 411h115zM391 700l104 -150h-92l-128 150h116z" />
    <glyph glyph-name="Wdieresis" unicode="&#x1e84;" horiz-adv-x="1022" 
d="M436 700h150l126 -584l144 584h126l-184 -700h-162l-130 584l-120 -584h-162l-184 700h126l143 -584zM403 860c49 0 71 -19 71 -62c0 -42 -22 -60 -71 -60c-50 0 -71 18 -71 60c0 43 21 62 71 62zM613 860c49 0 71 -19 71 -62c0 -42 -22 -60 -71 -60c-50 0 -71 18 -71 60
c0 43 21 62 71 62z" />
    <glyph glyph-name="wdieresis" unicode="&#x1e85;" horiz-adv-x="857" 
d="M670 0l-1 -1h-138l-103 419l-103 -418h-138l-157 500h115l116 -410l101 410h138l96 -411l116 411h115zM322 707c50 0 71 -21 71 -70s-21 -70 -71 -70c-49 0 -71 21 -71 70s22 70 71 70zM521 707c49 0 71 -21 71 -70s-22 -70 -71 -70c-50 0 -71 21 -71 70s21 70 71 70z
" />
    <glyph glyph-name="uni1E9E" unicode="&#x1e9e;" horiz-adv-x="645" 
d="M326 720c124 0 238 -42 238 -190c0 -76 -44 -115 -131 -134c114 -21 162 -78 162 -190c0 -144 -60 -206 -199 -206c-62 0 -106 20 -106 20v82s42 -14 76 -14c81 0 115 38 115 124c0 113 -71 135 -171 135v85c105 0 147 28 147 97s-36 103 -125 103
c-101 0 -139 -52 -139 -145v-487h-113v499c0 146 81 221 246 221z" />
    <glyph glyph-name="Ygrave" unicode="&#x1ef2;" horiz-adv-x="665" 
d="M395 275v-275h-119v275l-246 425h138l168 -309l167 309h132zM394 750h-88l-123 120h105z" />
    <glyph glyph-name="ygrave" unicode="&#x1ef3;" horiz-adv-x="531" 
d="M235 4l3 9l-218 487h109l154 -354l119 354h109l-190 -533c-37 -103 -89 -147 -174 -147h-64v76h58c39 0 67 32 94 108zM330 550h-92l-128 150h117z" />
    <glyph glyph-name="endash" unicode="&#x2013;" horiz-adv-x="600" 
d="M560 311v-88h-520v88h520z" />
    <glyph glyph-name="emdash" unicode="&#x2014;" horiz-adv-x="820" 
d="M780 311v-88h-740v88h740z" />
    <glyph glyph-name="quoteleft" unicode="&#x2018;" horiz-adv-x="222" 
d="M117 413c-54 0 -77 35 -77 117c0 119 41 170 132 170v-57c-41 0 -58 -26 -58 -89c46 0 68 -20 68 -68c0 -52 -19 -73 -65 -73z" />
    <glyph glyph-name="quoteright" unicode="&#x2019;" horiz-adv-x="222" 
d="M105 710c54 0 77 -34 77 -116c0 -119 -41 -170 -132 -170v56c41 0 58 27 58 90c-46 0 -68 20 -68 67c0 52 19 73 65 73z" />
    <glyph glyph-name="quotesinglbase" unicode="&#x201a;" horiz-adv-x="221" 
d="M104 131c54 0 77 -34 77 -117c0 -119 -40 -170 -131 -170v57c42 0 58 26 58 89c-47 0 -68 20 -68 68c0 51 19 73 64 73z" />
    <glyph glyph-name="quotedblleft" unicode="&#x201c;" horiz-adv-x="419" 
d="M117 413c-54 0 -77 35 -77 117c0 118 40 170 132 170v-57c-41 0 -58 -26 -58 -89c46 0 68 -20 68 -68c0 -52 -19 -73 -65 -73zM315 413c-54 0 -77 35 -77 117c0 118 40 170 132 170v-57c-41 0 -59 -26 -59 -89c47 0 68 -20 68 -68c0 -49 -21 -73 -64 -73z" />
    <glyph glyph-name="quotedblright" unicode="&#x201d;" horiz-adv-x="419" 
d="M105 710c54 0 77 -34 77 -116c0 -119 -41 -170 -132 -170v56c41 0 58 28 58 90c-47 0 -68 21 -68 67c0 52 19 73 65 73zM303 710c53 0 76 -36 76 -116c0 -119 -40 -170 -131 -170v56c41 0 58 27 58 90c-47 0 -68 21 -68 67c0 52 19 73 65 73z" />
    <glyph glyph-name="quotedblbase" unicode="&#x201e;" horiz-adv-x="419" 
d="M105 131c54 0 77 -35 77 -117c0 -119 -41 -170 -132 -170v57c41 0 58 26 58 89c-47 0 -68 21 -68 68c0 52 19 73 65 73zM303 131c53 0 76 -35 76 -117c0 -119 -40 -170 -131 -170v57c41 0 58 26 58 89c-47 0 -68 21 -68 68c0 52 19 73 65 73z" />
    <glyph glyph-name="ellipsis" unicode="&#x2026;" horiz-adv-x="676" 
d="M110 135c50 0 72 -22 72 -71s-22 -70 -72 -70c-49 0 -70 21 -70 70s21 71 70 71zM338 135c49 0 71 -22 71 -71s-22 -70 -72 -70c-49 0 -70 21 -70 70s21 71 71 71zM565 135c49 0 71 -22 71 -71s-22 -70 -72 -70c-49 0 -70 21 -70 70s21 71 71 71z" />
    <glyph glyph-name="perthousand" unicode="&#x2030;" horiz-adv-x="1267" 
d="M666 390c117 0 167 -59 167 -196c0 -138 -50 -196 -167 -196s-168 58 -168 196c0 137 51 196 168 196zM666 67c59 0 83 37 83 127c0 89 -24 126 -83 126s-83 -37 -83 -126c0 -90 24 -127 83 -127zM1059 390c118 0 168 -59 168 -196c0 -138 -50 -196 -168 -196
c-117 0 -167 58 -167 196c0 137 50 196 167 196zM1059 67c59 0 83 37 83 127c0 89 -24 126 -82 126c-60 0 -84 -37 -84 -126c0 -90 24 -127 83 -127zM207 710c118 0 168 -59 168 -196c0 -138 -50 -196 -168 -196c-117 0 -167 58 -167 196c0 137 50 196 167 196zM207 387
c59 0 83 37 83 127c0 89 -24 126 -82 126c-60 0 -84 -37 -84 -126c0 -90 24 -127 83 -127zM268 -30h-103l440 760h103z" />
    <glyph glyph-name="guilsinglleft" unicode="&#x2039;" horiz-adv-x="314" 
d="M165 450h109l-119 -190l119 -200h-109l-125 200z" />
    <glyph glyph-name="guilsinglright" unicode="&#x203a;" horiz-adv-x="314" 
d="M40 450h109l125 -190l-125 -200h-109l119 200z" />
    <glyph glyph-name="lira" unicode="&#x20a4;" horiz-adv-x="661" 
d="M621 95v-95h-571v111c65 24 95 63 99 131h-99v63h100v60h-100v64h100v71c0 147 62 220 208 220c163 0 233 -59 233 -220h-108c0 97 -32 138 -108 138c-91 0 -111 -55 -111 -138v-71h257v-64h-257v-60h257v-63h-258c-5 -76 -39 -121 -110 -147h468z" />
    <glyph glyph-name="Euro" unicode="&#x20ac;" horiz-adv-x="871" 
d="M694 240h127c-37 -182 -137 -260 -335 -260c-216 0 -327 84 -352 275h-94v64h89v31v35h-89v64h94c26 189 137 271 352 271c211 0 311 -78 335 -260h-125c-18 112 -79 159 -210 159c-128 0 -197 -52 -219 -170h283v-64h-290c-1 -11 -1 -23 -1 -35v-31h250v-64h-244
c21 -122 90 -174 219 -174c126 0 186 46 210 159z" />
    <glyph glyph-name="trademark" unicode="&#x2122;" horiz-adv-x="1249" 
d="M486 700v-95h-169v-405h-108v405h-169v95h446zM570 200v500h148l150 -377l150 377h141v-500h-108v358l-147 -358h-78l-148 358v-358h-108z" />
    <glyph glyph-name="minus" unicode="&#x2212;" horiz-adv-x="410" 
d="M370 223h-330v88h330v-88z" />
    <glyph glyph-name="approxequal" unicode="&#x2248;" horiz-adv-x="680" 
d="M40 137v84c205 195 416 -190 600 0v-84c-204 -197 -416 187 -600 0zM40 329v85c205 194 416 -191 600 -1v-84c-204 -197 -416 187 -600 0z" />
    <glyph glyph-name="notequal" unicode="&#x2260;" horiz-adv-x="647" 
d="M196 0l45 127h-201v88h233l36 100h-269v88h300l35 97h67l-35 -97h200v-88h-231l-36 -100h267v-88h-299l-45 -127h-67z" />
    <glyph glyph-name="lessequal" unicode="&#x2264;" horiz-adv-x="480" 
d="M41 0v95h399v-95h-399zM40 511l400 189v-108l-301 -142l301 -142v-108l-400 189v122z" />
    <glyph glyph-name="greaterequal" unicode="&#x2265;" horiz-adv-x="480" 
d="M40 0v95h400v-95h-400zM40 700l400 -189v-122l-400 -189v108l301 142l-301 142v108z" />
    <glyph glyph-name="uniE132" unicode="&#xe132;" horiz-adv-x="510" 
d="M192 0h-114v500h114v-500zM253 -92c51 0 75 28 75 69v523h114v-535c0 -89 -52 -145 -148 -145h-106v88h65zM70 550l104 150h116l-127 -150h-93zM320 550l104 150h116l-127 -150h-93z" />
    <glyph glyph-name="uniE133" unicode="&#xe133;" horiz-adv-x="884" 
d="M90 700h125v-700h-125v700zM330 210v29h120v-29c0 -91 30 -129 105 -129s106 37 106 129v490h125v-490c0 -157 -69 -224 -231 -224c-157 0 -225 67 -225 224zM93 750l100 120h111l-117 -120h-94zM664 750l100 120h110l-117 -120h-93z" />
    <glyph glyph-name="a.alt1" horiz-adv-x="601" 
d="M255 -10c-151 0 -215 78 -215 260s64 260 215 260c78 0 133 -20 168 -64l18 54h90v-500h-90l-18 54c-35 -44 -90 -64 -168 -64zM285 78c92 0 131 52 131 172s-39 172 -131 172s-132 -52 -132 -172s40 -172 132 -172z" />
    <glyph glyph-name="aacute.alt1" horiz-adv-x="601" 
d="M255 -10c-151 0 -215 78 -215 260s64 260 215 260c78 0 133 -20 168 -64l18 54h90v-500h-90l-18 54c-35 -44 -90 -64 -168 -64zM285 78c92 0 131 52 131 172s-39 172 -131 172s-132 -52 -132 -172s40 -172 132 -172zM338 700h116l-127 -150h-93z" />
    <glyph glyph-name="aacutering.alt1" horiz-adv-x="601" 
d="M255 -10c-151 0 -215 78 -215 260s64 260 215 260c78 0 133 -20 168 -64l18 54h90v-500h-90l-18 54c-35 -44 -90 -64 -168 -64zM285 78c92 0 131 52 131 172s-39 172 -131 172s-132 -52 -132 -172s40 -172 132 -172zM319 719l53 60h87l-81 -77c28 -16 43 -43 43 -80
c0 -61 -41 -96 -117 -96s-118 35 -118 96c0 62 42 97 118 97h15zM305 577c42 0 56 13 56 45s-14 46 -56 46s-57 -14 -57 -46c0 -31 15 -45 57 -45z" />
    <glyph glyph-name="abreve.alt1" horiz-adv-x="601" 
d="M255 -10c-151 0 -215 78 -215 260s64 260 215 260c78 0 133 -20 168 -64l18 54h90v-500h-90l-18 54c-35 -44 -90 -64 -168 -64zM285 78c92 0 131 52 131 172s-39 172 -131 172s-132 -52 -132 -172s40 -172 132 -172zM388 700h78c0 -105 -48 -150 -161 -150
s-162 45 -162 150h79c0 -61 25 -87 83 -87c59 0 83 26 83 87z" />
    <glyph glyph-name="acircumflex.alt1" horiz-adv-x="601" 
d="M255 -10c-151 0 -215 78 -215 260s64 260 215 260c78 0 133 -20 168 -64l18 54h90v-500h-90l-18 54c-35 -44 -90 -64 -168 -64zM285 78c92 0 131 52 131 172s-39 172 -131 172s-132 -52 -132 -172s40 -172 132 -172zM362 700l88 -150h-75l-70 92l-71 -92h-74l88 150h114z
" />
    <glyph glyph-name="acute.case" horiz-adv-x="290" 
d="M40 550l99 120h111l-117 -120h-93z" />
    <glyph glyph-name="adieresis.alt1" horiz-adv-x="601" 
d="M255 -10c-151 0 -215 78 -215 260s64 260 215 260c78 0 133 -20 168 -64l18 54h90v-500h-90l-18 54c-35 -44 -90 -64 -168 -64zM285 78c92 0 131 52 131 172s-39 172 -131 172s-132 -52 -132 -172s40 -172 132 -172zM205 708c50 0 71 -21 71 -70s-21 -70 -71 -70
c-49 0 -71 21 -71 70s22 70 71 70zM404 708c49 0 71 -21 71 -70s-22 -70 -71 -70c-50 0 -71 21 -71 70s21 70 71 70z" />
    <glyph glyph-name="agrave.alt1" horiz-adv-x="601" 
d="M255 -10c-151 0 -215 78 -215 260s64 260 215 260c78 0 133 -20 168 -64l18 54h90v-500h-90l-18 54c-35 -44 -90 -64 -168 -64zM285 78c92 0 131 52 131 172s-39 172 -131 172s-132 -52 -132 -172s40 -172 132 -172zM242 700l104 -150h-92l-128 150h116z" />
    <glyph glyph-name="amacron.alt1" horiz-adv-x="601" 
d="M255 -10c-151 0 -215 78 -215 260s64 260 215 260c78 0 133 -20 168 -64l18 54h90v-500h-90l-18 54c-35 -44 -90 -64 -168 -64zM285 78c92 0 131 52 131 172s-39 172 -131 172s-132 -52 -132 -172s40 -172 132 -172zM134 595v70h340v-70h-340z" />
    <glyph glyph-name="aogonek.alt1" horiz-adv-x="601" 
d="M438 6l-15 48c-35 -44 -90 -64 -168 -64c-151 0 -215 78 -215 260s64 260 215 260c78 0 133 -20 168 -64l18 54h90v-500h-38c-75 -57 -92 -149 -18 -149c29 0 53 15 53 15v-96s-30 -20 -70 -20c-127 0 -142 171 -20 256zM285 78c92 0 131 52 131 172s-39 172 -131 172
s-132 -52 -132 -172s40 -172 132 -172z" />
    <glyph glyph-name="aring.alt1" horiz-adv-x="601" 
d="M255 -10c-151 0 -215 78 -215 260s64 260 215 260c78 0 133 -20 168 -64l18 54h90v-500h-90l-18 54c-35 -44 -90 -64 -168 -64zM285 78c92 0 131 52 131 172s-39 172 -131 172s-132 -52 -132 -172s40 -172 132 -172zM305 742c82 0 117 -30 117 -102s-35 -103 -117 -103
c-83 0 -118 31 -118 103s35 102 118 102zM305 589c41 0 56 14 56 51s-16 51 -56 51c-41 0 -57 -14 -57 -51s16 -51 57 -51z" />
    <glyph glyph-name="atilde.alt1" horiz-adv-x="601" 
d="M255 -10c-151 0 -215 78 -215 260s64 260 215 260c78 0 133 -20 168 -64l18 54h90v-500h-90l-18 54c-35 -44 -90 -64 -168 -64zM285 78c92 0 131 52 131 172s-39 172 -131 172s-132 -52 -132 -172s40 -172 132 -172zM143 576c0 70 42 123 93 123c82 0 101 -85 143 -85
c18 0 32 19 32 52h55c0 -70 -41 -122 -93 -122c-82 0 -101 85 -142 85c-19 0 -33 -19 -33 -53h-55z" />
    <glyph glyph-name="breve.case" horiz-adv-x="403" 
d="M279 670h84c0 -84 -49 -120 -162 -120s-161 36 -161 120h84c0 -44 23 -63 77 -63c56 0 78 18 78 63z" />
    <glyph glyph-name="caron.case" horiz-adv-x="378" 
d="M338 670l-92 -120h-114l-92 120h81l68 -69l68 69h81z" />
    <glyph glyph-name="circumflex.case" horiz-adv-x="378" 
d="M246 670l92 -120h-81l-68 69l-68 -69h-81l92 120h114z" />
    <glyph glyph-name="commaaccent" horiz-adv-x="186" 
d="M93 -44c32 0 48 -16 52 -52c1 -8 1 -17 1 -27c-1 -73 -30 -104 -96 -104v44c28 0 40 14 40 48c-34 0 -49 12 -50 40v11c3 28 19 40 53 40z" />
    <glyph glyph-name="dieresis.case" horiz-adv-x="432" 
d="M110 712c50 0 72 -18 72 -61c0 -42 -22 -61 -72 -61c-49 0 -70 19 -70 61c0 43 21 61 70 61zM321 712c49 0 71 -18 71 -61c0 -42 -22 -61 -71 -61c-50 0 -71 19 -71 61c0 43 21 61 71 61z" />
    <glyph glyph-name="dotaccent.case" horiz-adv-x="222" 
d="M110 676c50 0 72 -18 72 -61s-22 -61 -72 -61c-49 0 -70 18 -70 61s21 61 70 61z" />
    <glyph glyph-name="grave.case" horiz-adv-x="290" 
d="M144 670l106 -120h-87l-123 120h104z" />
    <glyph glyph-name="hungarumlaut.case" horiz-adv-x="457" 
d="M40 550l93 120h105l-111 -120h-87zM218 550l94 120h105l-111 -120h-88z" />
    <glyph glyph-name="tilde.case" horiz-adv-x="403" 
d="M40 580c0 70 41 106 93 106c82 0 100 -59 148 -59c19 0 33 15 33 43h49c0 -70 -42 -106 -93 -106c-82 0 -100 59 -149 59c-18 0 -32 -15 -32 -43h-49z" />
    </font>
</defs>
</svg>
